<?xml version='1.0' encoding='UTF-8' standalone='no'?>
<svg height="434pt" xmlns="http://www.w3.org/2000/svg" width="585pt" xmlns:xlink="http://www.w3.org/1999/xlink" viewBox="0 0 585 434">
 <title>Figure 1</title>
 <desc>
Creator: GL2PS 1.4.2, (C) 1999-2020 C. Geuzaine
For: Octave
CreationDate: Thu Dec 01 17:14:58 2022
</desc>
 <defs/>
 <polygon points="0,0 585,0 585,434 0,434" fill="#ffffff"/>
 <g>
  <polygon points="0,434 585,434 585,0 0,0" shape-rendering="crispEdges" fill="#ffffff"/>
  <clipPath id="cp00585434">
   <polygon points="0,434 585,434 585,0 0,0"/>
  </clipPath>
  <g clip-path="url(#cp00585434)">
   <polygon shape-rendering="crispEdges" points="529.579,386.881 529.579,32.6024 76.0722,32.6024 76.0722,386.881" fill="#ffffff"/>
   <g font-size="14" font-family="FreeSans" font-weight="normal" xml:space="preserve" transform="translate(61.0798,38.1024) rotate(-0,8,-5.5)" font-style="normal">
    <text x="0 " y="-0" fill="rgb(38,38,38)">1</text>
   </g>
   <g font-size="14" font-family="FreeSans" font-weight="normal" xml:space="preserve" transform="translate(49.0798,108.958) rotate(-0,20,-5.5)" font-style="normal">
    <text x="0 8 12 " y="-0" fill="rgb(38,38,38)">0.8</text>
   </g>
   <g font-size="14" font-family="FreeSans" font-weight="normal" xml:space="preserve" transform="translate(49.0798,179.814) rotate(-0,20,-5.5)" font-style="normal">
    <text x="0 8 12 " y="-0" fill="rgb(38,38,38)">0.6</text>
   </g>
   <g font-size="14" font-family="FreeSans" font-weight="normal" xml:space="preserve" transform="translate(49.0798,250.67) rotate(-0,20,-5.5)" font-style="normal">
    <text x="0 8 12 " y="-0" fill="rgb(38,38,38)">0.4</text>
   </g>
   <g font-size="14" font-family="FreeSans" font-weight="normal" xml:space="preserve" transform="translate(49.0798,321.526) rotate(-0,20,-5.5)" font-style="normal">
    <text x="0 8 12 " y="-0" fill="rgb(38,38,38)">0.2</text>
   </g>
   <g font-size="14" font-family="FreeSans" font-weight="normal" xml:space="preserve" transform="translate(61.0798,392.381) rotate(-0,8,-5.5)" font-style="normal">
    <text x="0 " y="-0" fill="rgb(38,38,38)">0</text>
   </g>
   <g font-size="15.4" font-family="FreeSans" font-weight="normal" xml:space="preserve" transform="translate(40.0798,209.742) rotate(-90,4,0)" font-style="italic">
    <text x="0 " y="-4" fill="rgb(38,38,38)">y</text>
   </g>
   <g font-size="15.4" font-family="FreeSans" font-weight="normal" xml:space="preserve" transform="translate(298.826,422.39) rotate(-0,4,-9)" font-style="italic">
    <text x="0 " y="-0" fill="rgb(38,38,38)">x</text>
   </g>
   <g font-size="14" font-family="FreeSans" font-weight="normal" xml:space="preserve" transform="translate(525.579,408.39) rotate(-0,4,-11)" font-style="normal">
    <text x="0 " y="-0" fill="rgb(38,38,38)">1</text>
   </g>
   <g font-size="14" font-family="FreeSans" font-weight="normal" xml:space="preserve" transform="translate(428.878,408.39) rotate(-0,10,-11)" font-style="normal">
    <text x="0 8 12 " y="-0" fill="rgb(38,38,38)">0.8</text>
   </g>
   <g font-size="14" font-family="FreeSans" font-weight="normal" xml:space="preserve" transform="translate(338.176,408.39) rotate(-0,10,-11)" font-style="normal">
    <text x="0 8 12 " y="-0" fill="rgb(38,38,38)">0.6</text>
   </g>
   <g font-size="14" font-family="FreeSans" font-weight="normal" xml:space="preserve" transform="translate(247.475,408.39) rotate(-0,10,-11)" font-style="normal">
    <text x="0 8 12 " y="-0" fill="rgb(38,38,38)">0.4</text>
   </g>
   <g font-size="14" font-family="FreeSans" font-weight="normal" xml:space="preserve" transform="translate(156.774,408.39) rotate(-0,10,-11)" font-style="normal">
    <text x="0 8 12 " y="-0" fill="rgb(38,38,38)">0.2</text>
   </g>
   <g font-size="14" font-family="FreeSans" font-weight="normal" xml:space="preserve" transform="translate(72.0722,408.39) rotate(-0,4,-11)" font-style="normal">
    <text x="0 " y="-0" fill="rgb(38,38,38)">0</text>
   </g>
   <polyline stroke-linecap="butt" stroke-width="0.5" stroke-linejoin="miter" points="529.579,386.881 529.579,382.343" stroke="#262626" fill="none"/>
   <polyline stroke-linecap="butt" stroke-width="0.5" stroke-linejoin="miter" points="529.579,32.6024 529.579,37.141" stroke="#262626" fill="none"/>
   <polyline stroke-linecap="butt" stroke-width="0.5" stroke-linejoin="miter" points="348.176,32.6024 348.176,37.141" stroke="#262626" fill="none"/>
   <polyline stroke-linecap="butt" stroke-width="0.5" stroke-linejoin="miter" points="348.176,386.881 348.176,382.343" stroke="#262626" fill="none"/>
   <polyline stroke-linecap="butt" stroke-width="0.5" stroke-linejoin="miter" points="257.475,32.6024 257.475,37.141" stroke="#262626" fill="none"/>
   <polyline stroke-linecap="butt" stroke-width="0.5" stroke-linejoin="miter" points="257.475,386.881 257.475,382.343" stroke="#262626" fill="none"/>
   <polyline stroke-linecap="butt" stroke-width="0.5" stroke-linejoin="miter" points="438.878,386.881 438.878,382.343" stroke="#262626" fill="none"/>
   <polyline stroke-linecap="butt" stroke-width="0.5" stroke-linejoin="miter" points="438.878,32.6024 438.878,37.141" stroke="#262626" fill="none"/>
   <polyline stroke-linecap="butt" stroke-width="0.5" stroke-linejoin="miter" points="166.774,32.6024 166.774,37.141" stroke="#262626" fill="none"/>
   <polyline stroke-linecap="butt" stroke-width="0.5" stroke-linejoin="miter" points="166.774,386.881 166.774,382.343" stroke="#262626" fill="none"/>
   <polyline stroke-linecap="butt" stroke-opacity="0.15" stroke-width="0.5" stroke-dasharray="16,0" stroke-linejoin="miter" points="76.0722,386.881 529.579,386.881" stroke="#262626" fill="none"/>
   <polyline stroke-linecap="butt" stroke-opacity="0.15" stroke-width="0.5" stroke-dasharray="16,0" stroke-linejoin="miter" points="76.0722,316.026 529.579,316.026" stroke="#262626" fill="none"/>
   <polyline stroke-linecap="butt" stroke-opacity="0.15" stroke-width="0.5" stroke-dasharray="16,0" stroke-linejoin="miter" points="76.0722,245.17 529.579,245.17" stroke="#262626" fill="none"/>
   <polyline stroke-linecap="butt" stroke-opacity="0.15" stroke-width="0.5" stroke-dasharray="16,0" stroke-linejoin="miter" points="76.0722,174.314 529.579,174.314" stroke="#262626" fill="none"/>
   <polyline stroke-linecap="butt" stroke-opacity="0.15" stroke-width="0.5" stroke-dasharray="16,0" stroke-linejoin="miter" points="76.0722,103.458 529.579,103.458" stroke="#262626" fill="none"/>
   <polyline stroke-linecap="butt" stroke-opacity="0.15" stroke-width="0.5" stroke-dasharray="16,0" stroke-linejoin="miter" points="76.0722,32.6024 529.579,32.6024" stroke="#262626" fill="none"/>
   <polyline stroke-linecap="butt" stroke-width="0.5" stroke-linejoin="miter" points="76.0722,386.881 80.6023,386.881" stroke="#262626" fill="none"/>
   <polyline stroke-linecap="butt" stroke-width="0.5" stroke-linejoin="miter" points="529.579,386.881 525.049,386.881" stroke="#262626" fill="none"/>
   <polyline stroke-linecap="butt" stroke-width="0.5" stroke-linejoin="miter" points="76.0722,316.026 80.6023,316.026" stroke="#262626" fill="none"/>
   <polyline stroke-linecap="butt" stroke-width="0.5" stroke-linejoin="miter" points="529.579,316.026 525.049,316.026" stroke="#262626" fill="none"/>
   <polyline stroke-linecap="butt" stroke-width="0.5" stroke-linejoin="miter" points="76.0722,245.17 80.6023,245.17" stroke="#262626" fill="none"/>
   <polyline stroke-linecap="butt" stroke-width="0.5" stroke-linejoin="miter" points="529.579,245.17 525.049,245.17" stroke="#262626" fill="none"/>
   <polyline stroke-linecap="butt" stroke-width="0.5" stroke-linejoin="miter" points="76.0722,174.314 80.6023,174.314" stroke="#262626" fill="none"/>
   <polyline stroke-linecap="butt" stroke-width="0.5" stroke-linejoin="miter" points="529.579,174.314 525.049,174.314" stroke="#262626" fill="none"/>
   <polyline stroke-linecap="butt" stroke-width="0.5" stroke-linejoin="miter" points="76.0722,103.458 80.6023,103.458" stroke="#262626" fill="none"/>
   <polyline stroke-linecap="butt" stroke-width="0.5" stroke-linejoin="miter" points="529.579,103.458 525.049,103.458" stroke="#262626" fill="none"/>
   <polyline stroke-linecap="butt" stroke-width="0.5" stroke-linejoin="miter" points="76.0722,32.6024 80.6023,32.6024" stroke="#262626" fill="none"/>
   <polyline stroke-linecap="butt" stroke-width="0.5" stroke-linejoin="miter" points="529.579,32.6024 525.049,32.6024" stroke="#262626" fill="none"/>
   <polyline stroke-linecap="butt" stroke-width="0.5" stroke-linejoin="miter" points="76.0722,32.6024 76.0722,37.141" stroke="#262626" fill="none"/>
   <polyline stroke-linecap="butt" stroke-width="0.5" stroke-linejoin="miter" points="76.0722,386.881 76.0722,382.343" stroke="#262626" fill="none"/>
   <polyline stroke-linecap="butt" stroke-opacity="0.15" stroke-width="0.5" stroke-dasharray="16,0" stroke-linejoin="miter" points="529.579,386.881 529.579,32.6024" stroke="#262626" fill="none"/>
   <polyline stroke-linecap="butt" stroke-opacity="0.15" stroke-width="0.5" stroke-dasharray="16,0" stroke-linejoin="miter" points="438.878,386.881 438.878,32.6024" stroke="#262626" fill="none"/>
   <polyline stroke-linecap="butt" stroke-opacity="0.15" stroke-width="0.5" stroke-dasharray="16,0" stroke-linejoin="miter" points="348.176,386.881 348.176,32.6024" stroke="#262626" fill="none"/>
   <polyline stroke-linecap="butt" stroke-opacity="0.15" stroke-width="0.5" stroke-dasharray="16,0" stroke-linejoin="miter" points="257.475,386.881 257.475,32.6024" stroke="#262626" fill="none"/>
   <polyline stroke-linecap="square" stroke-width="0.5" stroke-dasharray="16,0" stroke-linejoin="miter" points="76.0722,386.881 529.579,386.881" stroke="#262626" fill="none"/>
   <polyline stroke-linecap="square" stroke-width="0.5" stroke-dasharray="16,0" stroke-linejoin="miter" points="76.0722,32.6024 529.579,32.6024" stroke="#262626" fill="none"/>
   <polyline stroke-linecap="square" stroke-width="0.5" stroke-dasharray="16,0" stroke-linejoin="miter" points="76.0722,386.881 76.0722,32.6024" stroke="#262626" fill="none"/>
   <polyline stroke-linecap="square" stroke-width="0.5" stroke-dasharray="16,0" stroke-linejoin="miter" points="529.579,386.881 529.579,32.6024" stroke="#262626" fill="none"/>
   <polyline stroke-linecap="butt" stroke-opacity="0.15" stroke-width="0.5" stroke-dasharray="16,0" stroke-linejoin="miter" points="166.774,386.881 166.774,32.6024" stroke="#262626" fill="none"/>
   <polyline stroke-linecap="butt" stroke-opacity="0.15" stroke-width="0.5" stroke-dasharray="16,0" stroke-linejoin="miter" points="76.0722,386.881 76.0722,32.6024" stroke="#262626" fill="none"/>
   <polyline stroke-linecap="round" stroke-width="1.2" stroke-linejoin="round" points="118.996,313.538 118.423,311.774 118.996,310.011 120.496,308.921" stroke="#000000" fill="none"/>
   <polyline stroke-linecap="round" stroke-width="1.2" stroke-linejoin="round" points="123.126,309.485 122.35,308.921" stroke="#000000" fill="none"/>
   <polyline stroke-linecap="round" stroke-width="1.2" stroke-linejoin="round" points="165.07,253.127 164.347,252.602 163.774,250.838" stroke="#000000" fill="none"/>
   <polyline stroke-linecap="round" stroke-width="1.2" stroke-linejoin="round" points="119.719,314.063 118.996,313.538" stroke="#000000" fill="none"/>
   <polyline stroke-linecap="round" stroke-width="1.2" stroke-linejoin="round" points="120.496,308.921 122.35,308.921" stroke="#000000" fill="none"/>
   <polyline stroke-linecap="round" stroke-width="1.2" stroke-linejoin="round" points="163.774,250.838 164.347,249.075 165.847,247.985 167.701,247.985" stroke="#000000" fill="none"/>
   <polyline stroke-linecap="round" stroke-width="1.2" stroke-linejoin="round" points="168.477,248.549 167.701,247.985" stroke="#000000" fill="none"/>
   <polyline stroke-linecap="butt" stroke-width="1.2" stroke-dasharray="8,3,2,3" stroke-linejoin="round" points="187.61,222.841 76.0722,280.143" stroke="#0000ff" fill="none"/>
   <polyline stroke-linecap="butt" stroke-width="0.5" stroke-dasharray="9,7" stroke-linejoin="round" points="125.958,305.681 125.958,32.6024" stroke="#ff0000" fill="none"/>
   <polyline stroke-linecap="butt" stroke-width="1.2" stroke-dasharray="8,3,2,3" stroke-linejoin="round" points="232.405,162.651 121.121,32.248" stroke="#ff00ff" fill="none"/>
   <polyline stroke-linecap="butt" stroke-width="0.5" stroke-dasharray="9,7" stroke-linejoin="round" points="284.685,92.4046 284.685,32.6024" stroke="#ff00ff" fill="none"/>
   <polyline stroke-linecap="butt" stroke-width="1.2" stroke-linejoin="round" points="121.423,311.774 166.774,250.838" stroke="#000000" fill="none"/>
   <polyline stroke-linecap="round" stroke-width="1.2" stroke-linejoin="round" points="75.1451,389.734 73.6451,388.645" stroke="#000000" fill="none"/>
   <polyline stroke-linecap="round" stroke-width="1.2" stroke-linejoin="round" points="73.0722,386.881 73.6451,385.118" stroke="#000000" fill="none"/>
   <polyline stroke-linecap="butt" stroke-width="1.2" stroke-linejoin="round" points="82.5672,376.125 76.0722,386.881" stroke="#000000" fill="none"/>
   <polyline stroke-linecap="round" stroke-width="1.2" stroke-linejoin="round" points="76.9992,384.028 78.4992,385.118" stroke="#000000" fill="none"/>
   <polyline stroke-linecap="round" stroke-width="1.2" stroke-linejoin="round" points="76.9992,389.734 75.1451,389.734" stroke="#000000" fill="none"/>
   <polyline stroke-linecap="round" stroke-width="1.2" stroke-linejoin="round" points="78.4992,385.118 79.0722,386.881" stroke="#000000" fill="none"/>
   <polyline stroke-linecap="round" stroke-width="1.2" stroke-linejoin="round" points="73.6451,388.645 73.0722,386.881" stroke="#000000" fill="none"/>
   <polyline stroke-linecap="butt" stroke-width="0.5" stroke-dasharray="9,7" stroke-linejoin="round" points="80.0927,383.74 76.0722,386.881" stroke="#000000" fill="none"/>
   <polyline stroke-linecap="round" stroke-width="1.2" stroke-linejoin="round" points="73.6451,385.118 75.1451,384.028 76.9992,384.028" stroke="#000000" fill="none"/>
   <polyline stroke-linecap="round" stroke-width="1.2" stroke-linejoin="round" points="78.4992,388.645 76.9992,389.734" stroke="#000000" fill="none"/>
   <polyline stroke-linecap="round" stroke-width="1.2" stroke-linejoin="round" points="79.0722,386.881 78.4992,388.645" stroke="#000000" fill="none"/>
   <polyline stroke-linecap="round" stroke-width="1.2" stroke-linejoin="round" points="119.943,314.226 119.719,314.063" stroke="#000000" fill="none"/>
   <polyline stroke-linecap="butt" stroke-width="1.2" stroke-linejoin="round" points="82.5672,376.125 121.423,311.774" stroke="#000000" fill="none"/>
   <polyline stroke-linecap="round" stroke-width="1.2" stroke-linejoin="round" points="119.943,314.226 120.496,314.627" stroke="#000000" fill="none"/>
   <polyline stroke-linecap="round" stroke-width="1.2" stroke-linejoin="round" points="123.126,309.485 123.85,310.011 124.423,311.774" stroke="#000000" fill="none"/>
   <polyline stroke-linecap="butt" stroke-width="0.5" stroke-dasharray="9,7" stroke-linejoin="round" points="108.165,361.81 80.0927,383.74" stroke="#000000" fill="none"/>
   <polyline stroke-linecap="butt" stroke-width="1.2" stroke-dasharray="8,3,2,3" stroke-linejoin="round" points="103.717,375.502 94.2581,387.236" stroke="#ff0000" fill="none"/>
   <polyline stroke-linecap="butt" stroke-width="0.5" stroke-dasharray="9,7" stroke-linejoin="round" points="125.958,307.05 125.958,305.681" stroke="#ff0000" fill="none"/>
   <polyline stroke-linecap="round" stroke-width="1.2" stroke-linejoin="round" points="123.85,313.538 122.35,314.627 120.496,314.627" stroke="#000000" fill="none"/>
   <polyline stroke-linecap="butt" stroke-width="0.5" stroke-linejoin="round" points="126.403,305.681 125.958,305.681" stroke="#1d8b20" fill="none"/>
   <polyline stroke-linecap="butt" stroke-width="0.5" stroke-linejoin="round" points="125.958,307.05 125.958,305.681" stroke="#1d8b20" fill="none"/>
   <polyline stroke-linecap="round" stroke-width="1.2" stroke-linejoin="round" points="124.423,311.774 123.85,313.538" stroke="#000000" fill="none"/>
   <polyline stroke-linecap="butt" stroke-width="1.2" stroke-linejoin="round" points="438.878,53.1505 484.229,41.8136" stroke="#000000" fill="none"/>
   <polyline stroke-linecap="butt" stroke-width="1.2" stroke-linejoin="round" points="166.774,250.838 212.124,199.468 257.475,156.246" stroke="#000000" fill="none"/>
   <polyline stroke-linecap="butt" stroke-width="1.2" stroke-linejoin="round" points="484.229,41.8136 529.579,32.6024" stroke="#000000" fill="none"/>
   <polyline stroke-linecap="butt" stroke-width="1.2" stroke-linejoin="round" points="257.475,156.246 302.826,120.464 348.176,91.7669" stroke="#000000" fill="none"/>
   <polyline stroke-linecap="round" stroke-width="1.2" stroke-linejoin="round" points="169.774,250.838 169.201,252.602" stroke="#000000" fill="none"/>
   <polyline stroke-linecap="round" stroke-width="1.2" stroke-linejoin="round" points="167.701,253.691 165.847,253.691" stroke="#000000" fill="none"/>
   <polyline stroke-linecap="butt" stroke-width="1.2" stroke-linejoin="round" points="393.527,69.8017 438.878,53.1505" stroke="#000000" fill="none"/>
   <polyline stroke-linecap="round" stroke-width="1.2" stroke-linejoin="round" points="169.201,252.602 167.701,253.691" stroke="#000000" fill="none"/>
   <polyline stroke-linecap="round" stroke-width="1.2" stroke-linejoin="round" points="165.07,253.127 165.847,253.691" stroke="#000000" fill="none"/>
   <polyline stroke-linecap="round" stroke-width="1.2" stroke-linejoin="round" points="168.477,248.549 169.201,249.075 169.774,250.838" stroke="#000000" fill="none"/>
   <polyline stroke-linecap="round" stroke-width="1.2" stroke-linejoin="round" points="215.124,199.468 214.551,201.231 213.051,202.321 211.197,202.321 209.697,201.231 209.124,199.468 209.697,197.704 211.197,196.615 213.051,196.615 214.551,197.704 215.124,199.468" stroke="#000000" fill="none"/>
   <polyline stroke-linecap="round" stroke-width="1.2" stroke-linejoin="round" points="260.475,156.246 259.902,158.009 258.402,159.099 256.548,159.099 255.048,158.009 254.475,156.246 255.048,154.482 256.548,153.393 258.402,153.393 259.902,154.482 260.475,156.246" stroke="#000000" fill="none"/>
   <polyline stroke-linecap="round" stroke-width="1.2" stroke-linejoin="round" points="305.826,120.464 305.253,122.227 303.753,123.317 301.899,123.317 300.399,122.227 299.826,120.464 300.399,118.7 301.899,117.61 303.753,117.61 305.253,118.7 305.826,120.464" stroke="#000000" fill="none"/>
   <polyline stroke-linecap="round" stroke-width="1.2" stroke-linejoin="round" points="351.176,91.7669 350.604,93.5303 349.104,94.6201 347.249,94.6201 345.749,93.5303" stroke="#000000" fill="none"/>
   <polyline stroke-linecap="round" stroke-width="1.2" stroke-linejoin="round" points="345.584,93.0224 345.749,93.5303" stroke="#000000" fill="none"/>
   <polyline stroke-linecap="round" stroke-width="1.2" stroke-linejoin="round" points="350.769,90.5114 351.176,91.7669" stroke="#000000" fill="none"/>
   <polyline stroke-linecap="round" stroke-width="1.2" stroke-linejoin="round" points="396.527,69.8017 395.954,71.565 394.454,72.6548 392.6,72.6548 391.1,71.565" stroke="#000000" fill="none"/>
   <polyline stroke-linecap="round" stroke-width="1.2" stroke-linejoin="round" points="390.935,71.0571 391.1,71.565" stroke="#000000" fill="none"/>
   <polyline stroke-linecap="round" stroke-width="1.2" stroke-linejoin="round" points="396.119,68.5462 396.527,69.8017" stroke="#000000" fill="none"/>
   <polyline stroke-linecap="round" stroke-width="1.2" stroke-linejoin="round" points="441.878,53.1505 441.305,54.9139 439.805,56.0037 437.951,56.0037 436.451,54.9139 435.878,53.1505 436.451,51.3872 437.951,50.2974 439.805,50.2974 441.305,51.3872 441.878,53.1505" stroke="#000000" fill="none"/>
   <polyline stroke-linecap="round" stroke-width="1.2" stroke-linejoin="round" points="487.229,41.8136 486.656,43.577 485.156,44.6668 483.302,44.6668 481.802,43.577 481.229,41.8136 481.802,40.0503 483.302,38.9604 485.156,38.9604 486.656,40.0503 487.229,41.8136" stroke="#000000" fill="none"/>
   <polyline stroke-linecap="round" stroke-width="1.2" stroke-linejoin="round" points="532.579,32.6024 532.006,34.3657 530.506,35.4555 528.652,35.4555 527.152,34.3657 526.579,32.6024 527.152,30.839 528.652,29.7492 530.506,29.7492 532.006,30.839 532.579,32.6024" stroke="#000000" fill="none"/>
   <polyline stroke-linecap="butt" stroke-width="0.5" stroke-dasharray="9,7" stroke-linejoin="round" points="108.165,361.81 529.579,32.6024" stroke="#000000" fill="none"/>
   <polyline stroke-linecap="butt" stroke-width="1.2" stroke-dasharray="8,3,2,3" stroke-linejoin="round" points="187.61,222.841 529.579,47.1577" stroke="#0000ff" fill="none"/>
   <polyline stroke-linecap="butt" stroke-width="0.5" stroke-dasharray="9,7" stroke-linejoin="round" points="475.158,386.881 475.158,32.6024" stroke="#0000ff" fill="none"/>
   <polyline stroke-linecap="butt" stroke-width="1.2" stroke-dasharray="8,3,2,3" stroke-linejoin="round" points="322.354,104.274 103.717,375.502" stroke="#ff0000" fill="none"/>
   <polyline stroke-linecap="butt" stroke-width="0.5" stroke-dasharray="9,7" stroke-linejoin="round" points="125.958,307.05 125.958,386.881" stroke="#ff0000" fill="none"/>
   <polyline stroke-linecap="butt" stroke-width="1.2" stroke-dasharray="8,3,2,3" stroke-linejoin="round" points="232.405,162.651 424.063,387.236" stroke="#ff00ff" fill="none"/>
   <polyline stroke-linecap="butt" stroke-width="0.5" stroke-dasharray="9,7" stroke-linejoin="round" points="284.685,122.518 284.685,386.881" stroke="#ff00ff" fill="none"/>
   <polyline stroke-linecap="butt" stroke-width="0.5" stroke-linejoin="round" points="509.572,57.4361 427.206,57.4361 427.206,99.751 335.559,99.751 335.559,146.834 269.404,146.834 269.404,180.82 231.69,180.82 231.69,216.746 196.871,216.746 196.871,259.94 160,259.94 160,305.681" stroke="#1d8b20" fill="none"/>
   <polyline stroke-linecap="butt" stroke-width="0.5" stroke-linejoin="round" points="126.403,305.681 160,305.681" stroke="#1d8b20" fill="none"/>
   <polyline stroke-linecap="butt" stroke-width="0.5" stroke-linejoin="round" points="125.958,307.05 125.958,347.911" stroke="#1d8b20" fill="none"/>
   <polyline stroke-linecap="butt" stroke-width="1.2" stroke-linejoin="round" points="348.176,91.7669 393.527,69.8017" stroke="#000000" fill="none"/>
   <polyline stroke-linecap="round" stroke-width="1.2" stroke-linejoin="round" points="349.104,88.9138 350.604,90.0036" stroke="#000000" fill="none"/>
   <polyline stroke-linecap="round" stroke-width="1.2" stroke-linejoin="round" points="350.769,90.5114 350.604,90.0036" stroke="#000000" fill="none"/>
   <polyline stroke-linecap="round" stroke-width="1.2" stroke-linejoin="round" points="390.935,71.0571 390.527,69.8017 391.1,68.0383" stroke="#000000" fill="none"/>
   <polyline stroke-linecap="round" stroke-width="1.2" stroke-linejoin="round" points="345.584,93.0224 345.176,91.7669" stroke="#000000" fill="none"/>
   <polyline stroke-linecap="round" stroke-width="1.2" stroke-linejoin="round" points="391.1,68.0383 392.6,66.9485" stroke="#000000" fill="none"/>
   <polyline stroke-linecap="round" stroke-width="1.2" stroke-linejoin="round" points="345.176,91.7669 345.749,90.0036" stroke="#000000" fill="none"/>
   <polyline stroke-linecap="round" stroke-width="1.2" stroke-linejoin="round" points="347.249,88.9138 349.104,88.9138" stroke="#000000" fill="none"/>
   <polyline stroke-linecap="round" stroke-width="1.2" stroke-linejoin="round" points="392.6,66.9485 394.454,66.9485 395.954,68.0383" stroke="#000000" fill="none"/>
   <polyline stroke-linecap="round" stroke-width="1.2" stroke-linejoin="round" points="396.119,68.5462 395.954,68.0383" stroke="#000000" fill="none"/>
   <polyline stroke-linecap="round" stroke-width="1.2" stroke-linejoin="round" points="345.749,90.0036 347.249,88.9138" stroke="#000000" fill="none"/>
   <polyline stroke-linecap="butt" stroke-width="1.2" stroke-dasharray="8,3,2,3" stroke-linejoin="round" points="322.354,104.274 380.414,32.2481" stroke="#ff0000" fill="none"/>
   <polyline stroke-linecap="butt" stroke-width="0.5" stroke-dasharray="9,7" stroke-linejoin="round" points="284.685,122.518 284.685,92.4046" stroke="#ff00ff" fill="none"/>
  </g>
 </g>
</svg>
