<?xml version='1.0' encoding='UTF-8' standalone='no'?>
<svg xmlns:xlink="http://www.w3.org/1999/xlink" width="392pt" viewBox="0 0 392 293" xmlns="http://www.w3.org/2000/svg" height="293pt">
 <title>Figure 1</title>
 <desc>
Creator: GL2PS 1.4.2, (C) 1999-2020 C. Geuzaine
For: Octave
CreationDate: Mon Nov 21 11:05:01 2022
</desc>
 <defs/>
 <polygon fill="#ffffff" points="0,0 392,0 392,293 0,293"/>
 <g>
  <polygon fill="#ffffff" points="0,293 392,293 392,0 0,0" shape-rendering="crispEdges"/>
  <clipPath id="cp00392293">
   <polygon points="0,293 392,293 392,0 0,0"/>
  </clipPath>
  <g clip-path="url(#cp00392293)">
   <polygon fill="#ffffff" points="355.657,257.837 355.657,22.0005 51.0889,22.0005 51.0889,257.837" shape-rendering="crispEdges"/>
   <g font-size="14" transform="translate(36.0988,27.5005) rotate(-0,8,-5.5)" font-weight="normal" xml:space="preserve" font-family="FreeSans" font-style="normal">
    <text y="-0" fill="rgb(38,38,38)" x="0 ">1</text>
   </g>
   <g font-size="14" transform="translate(24.0988,74.6678) rotate(-0,20,-5.5)" font-weight="normal" xml:space="preserve" font-family="FreeSans" font-style="normal">
    <text y="-0" fill="rgb(38,38,38)" x="0 8 12 ">0.8</text>
   </g>
   <g font-size="14" transform="translate(24.0988,121.835) rotate(-0,20,-5.5)" font-weight="normal" xml:space="preserve" font-family="FreeSans" font-style="normal">
    <text y="-0" fill="rgb(38,38,38)" x="0 8 12 ">0.6</text>
   </g>
   <g font-size="14" transform="translate(24.0988,169.002) rotate(-0,20,-5.5)" font-weight="normal" xml:space="preserve" font-family="FreeSans" font-style="normal">
    <text y="-0" fill="rgb(38,38,38)" x="0 8 12 ">0.4</text>
   </g>
   <g font-size="14" transform="translate(24.0988,216.17) rotate(-0,20,-5.5)" font-weight="normal" xml:space="preserve" font-family="FreeSans" font-style="normal">
    <text y="-0" fill="rgb(38,38,38)" x="0 8 12 ">0.2</text>
   </g>
   <g font-size="14" transform="translate(36.0988,263.337) rotate(-0,8,-5.5)" font-weight="normal" xml:space="preserve" font-family="FreeSans" font-style="normal">
    <text y="-0" fill="rgb(38,38,38)" x="0 ">0</text>
   </g>
   <g font-size="15.4" transform="translate(15.0988,139.919) rotate(-90,4,0)" font-weight="normal" xml:space="preserve" font-family="FreeSans" font-style="italic">
    <text y="-4" fill="rgb(38,38,38)" x="0 ">y</text>
   </g>
   <g font-size="15.4" transform="translate(199.373,293.33) rotate(-0,4,-9)" font-weight="normal" xml:space="preserve" font-family="FreeSans" font-style="italic">
    <text y="-0" fill="rgb(38,38,38)" x="0 ">x</text>
   </g>
   <g font-size="14" transform="translate(351.657,279.33) rotate(-0,4,-11)" font-weight="normal" xml:space="preserve" font-family="FreeSans" font-style="normal">
    <text y="-0" fill="rgb(38,38,38)" x="0 ">1</text>
   </g>
   <g font-size="14" transform="translate(284.744,279.33) rotate(-0,10,-11)" font-weight="normal" xml:space="preserve" font-family="FreeSans" font-style="normal">
    <text y="-0" fill="rgb(38,38,38)" x="0 8 12 ">0.8</text>
   </g>
   <g font-size="14" transform="translate(223.83,279.33) rotate(-0,10,-11)" font-weight="normal" xml:space="preserve" font-family="FreeSans" font-style="normal">
    <text y="-0" fill="rgb(38,38,38)" x="0 8 12 ">0.6</text>
   </g>
   <g font-size="14" transform="translate(162.916,279.33) rotate(-0,10,-11)" font-weight="normal" xml:space="preserve" font-family="FreeSans" font-style="normal">
    <text y="-0" fill="rgb(38,38,38)" x="0 8 12 ">0.4</text>
   </g>
   <g font-size="14" transform="translate(102.003,279.33) rotate(-0,10,-11)" font-weight="normal" xml:space="preserve" font-family="FreeSans" font-style="normal">
    <text y="-0" fill="rgb(38,38,38)" x="0 8 12 ">0.2</text>
   </g>
   <g font-size="14" transform="translate(47.0889,279.33) rotate(-0,4,-11)" font-weight="normal" xml:space="preserve" font-family="FreeSans" font-style="normal">
    <text y="-0" fill="rgb(38,38,38)" x="0 ">0</text>
   </g>
   <polyline stroke-linejoin="miter" fill="none" stroke-width="0.5" stroke-linecap="butt" stroke="#262626" points="355.657,257.837 355.657,254.793"/>
   <polyline stroke-linejoin="miter" fill="none" stroke-width="0.5" stroke-linecap="butt" stroke="#262626" points="355.657,22.0005 355.657,25.0441"/>
   <polyline stroke-linejoin="miter" fill="none" stroke-width="0.5" stroke-linecap="butt" stroke="#262626" points="233.83,22.0005 233.83,25.0441"/>
   <polyline stroke-linejoin="miter" fill="none" stroke-width="0.5" stroke-linecap="butt" stroke="#262626" points="233.83,257.837 233.83,254.793"/>
   <polyline stroke-linejoin="miter" fill="none" stroke-width="0.5" stroke-linecap="butt" stroke="#262626" points="172.916,22.0005 172.916,25.0441"/>
   <polyline stroke-linejoin="miter" fill="none" stroke-width="0.5" stroke-linecap="butt" stroke="#262626" points="172.916,257.837 172.916,254.793"/>
   <polyline stroke-linejoin="miter" fill="none" stroke-width="0.5" stroke-linecap="butt" stroke="#262626" points="294.743,257.837 294.743,254.793"/>
   <polyline stroke-linejoin="miter" fill="none" stroke-width="0.5" stroke-linecap="butt" stroke="#262626" points="294.743,22.0005 294.743,25.0441"/>
   <polyline stroke-linejoin="miter" fill="none" stroke-width="0.5" stroke-linecap="butt" stroke="#262626" points="112.003,22.0005 112.003,25.0441"/>
   <polyline stroke-linejoin="miter" fill="none" stroke-width="0.5" stroke-linecap="butt" stroke="#262626" points="112.003,257.837 112.003,254.793"/>
   <polyline stroke-linejoin="miter" fill="none" stroke-width="0.5" stroke-linecap="butt" stroke="#262626" points="51.0889,257.837 355.657,257.837" stroke-opacity="0.15" stroke-dasharray="16,0"/>
   <polyline stroke-linejoin="miter" fill="none" stroke-width="0.5" stroke-linecap="butt" stroke="#262626" points="51.0889,210.67 355.657,210.67" stroke-opacity="0.15" stroke-dasharray="16,0"/>
   <polyline stroke-linejoin="miter" fill="none" stroke-width="0.5" stroke-linecap="butt" stroke="#262626" points="51.0889,163.502 355.657,163.502" stroke-opacity="0.15" stroke-dasharray="16,0"/>
   <polyline stroke-linejoin="miter" fill="none" stroke-width="0.5" stroke-linecap="butt" stroke="#262626" points="51.0889,116.335 355.657,116.335" stroke-opacity="0.15" stroke-dasharray="16,0"/>
   <polyline stroke-linejoin="miter" fill="none" stroke-width="0.5" stroke-linecap="butt" stroke="#262626" points="51.0889,69.1678 355.657,69.1678" stroke-opacity="0.15" stroke-dasharray="16,0"/>
   <polyline stroke-linejoin="miter" fill="none" stroke-width="0.5" stroke-linecap="butt" stroke="#262626" points="51.0889,22.0005 355.657,22.0005" stroke-opacity="0.15" stroke-dasharray="16,0"/>
   <polyline stroke-linejoin="miter" fill="none" stroke-width="0.5" stroke-linecap="butt" stroke="#262626" points="51.0889,257.837 54.1302,257.837"/>
   <polyline stroke-linejoin="miter" fill="none" stroke-width="0.5" stroke-linecap="butt" stroke="#262626" points="355.657,257.837 352.616,257.837"/>
   <polyline stroke-linejoin="miter" fill="none" stroke-width="0.5" stroke-linecap="butt" stroke="#262626" points="51.0889,210.67 54.1302,210.67"/>
   <polyline stroke-linejoin="miter" fill="none" stroke-width="0.5" stroke-linecap="butt" stroke="#262626" points="355.657,210.67 352.616,210.67"/>
   <polyline stroke-linejoin="miter" fill="none" stroke-width="0.5" stroke-linecap="butt" stroke="#262626" points="51.0889,163.502 54.1302,163.502"/>
   <polyline stroke-linejoin="miter" fill="none" stroke-width="0.5" stroke-linecap="butt" stroke="#262626" points="355.657,163.502 352.616,163.502"/>
   <polyline stroke-linejoin="miter" fill="none" stroke-width="0.5" stroke-linecap="butt" stroke="#262626" points="51.0889,116.335 54.1302,116.335"/>
   <polyline stroke-linejoin="miter" fill="none" stroke-width="0.5" stroke-linecap="butt" stroke="#262626" points="355.657,116.335 352.616,116.335"/>
   <polyline stroke-linejoin="miter" fill="none" stroke-width="0.5" stroke-linecap="butt" stroke="#262626" points="51.0889,69.1678 54.1302,69.1678"/>
   <polyline stroke-linejoin="miter" fill="none" stroke-width="0.5" stroke-linecap="butt" stroke="#262626" points="355.657,69.1678 352.616,69.1678"/>
   <polyline stroke-linejoin="miter" fill="none" stroke-width="0.5" stroke-linecap="butt" stroke="#262626" points="51.0889,22.0005 54.1302,22.0005"/>
   <polyline stroke-linejoin="miter" fill="none" stroke-width="0.5" stroke-linecap="butt" stroke="#262626" points="355.657,22.0005 352.616,22.0005"/>
   <polyline stroke-linejoin="miter" fill="none" stroke-width="0.5" stroke-linecap="butt" stroke="#262626" points="51.0889,22.0005 51.0889,25.0441"/>
   <polyline stroke-linejoin="miter" fill="none" stroke-width="0.5" stroke-linecap="butt" stroke="#262626" points="51.0889,257.837 51.0889,254.793"/>
   <polyline stroke-linejoin="miter" fill="none" stroke-width="0.5" stroke-linecap="butt" stroke="#262626" points="355.657,257.837 355.657,22.0005" stroke-opacity="0.15" stroke-dasharray="16,0"/>
   <polyline stroke-linejoin="miter" fill="none" stroke-width="0.5" stroke-linecap="butt" stroke="#262626" points="294.743,257.837 294.743,22.0005" stroke-opacity="0.15" stroke-dasharray="16,0"/>
   <polyline stroke-linejoin="miter" fill="none" stroke-width="0.5" stroke-linecap="butt" stroke="#262626" points="233.83,257.837 233.83,22.0005" stroke-opacity="0.15" stroke-dasharray="16,0"/>
   <polyline stroke-linejoin="miter" fill="none" stroke-width="0.5" stroke-linecap="butt" stroke="#262626" points="172.916,257.837 172.916,22.0005" stroke-opacity="0.15" stroke-dasharray="16,0"/>
   <polyline stroke-linejoin="miter" fill="none" stroke-width="0.5" stroke-linecap="square" stroke="#262626" points="51.0889,257.837 355.657,257.837" stroke-dasharray="16,0"/>
   <polyline stroke-linejoin="miter" fill="none" stroke-width="0.5" stroke-linecap="square" stroke="#262626" points="51.0889,22.0005 355.657,22.0005" stroke-dasharray="16,0"/>
   <polyline stroke-linejoin="miter" fill="none" stroke-width="0.5" stroke-linecap="square" stroke="#262626" points="51.0889,257.837 51.0889,22.0005" stroke-dasharray="16,0"/>
   <polyline stroke-linejoin="miter" fill="none" stroke-width="0.5" stroke-linecap="square" stroke="#262626" points="355.657,257.837 355.657,22.0005" stroke-dasharray="16,0"/>
   <polyline stroke-linejoin="miter" fill="none" stroke-width="0.5" stroke-linecap="butt" stroke="#262626" points="112.003,257.837 112.003,22.0005" stroke-opacity="0.15" stroke-dasharray="16,0"/>
   <polyline stroke-linejoin="miter" fill="none" stroke-width="0.5" stroke-linecap="butt" stroke="#262626" points="51.0889,257.837 51.0889,22.0005" stroke-opacity="0.15" stroke-dasharray="16,0"/>
   <polyline stroke-linejoin="round" fill="none" stroke-width="1.2" stroke-linecap="round" stroke="#000000" points="79.1186,209.603 78.5457,207.839 79.1186,206.076 80.6186,204.986"/>
   <polyline stroke-linejoin="round" fill="none" stroke-width="1.2" stroke-linecap="round" stroke="#000000" points="83.259,205.558 82.4728,204.986"/>
   <polyline stroke-linejoin="round" fill="none" stroke-width="1.2" stroke-linecap="round" stroke="#000000" points="110.289,169.558 109.575,169.039 109.003,167.276"/>
   <polyline stroke-linejoin="round" fill="none" stroke-width="1.2" stroke-linecap="round" stroke="#000000" points="79.8324,210.121 79.1186,209.603"/>
   <polyline stroke-linejoin="round" fill="none" stroke-width="1.2" stroke-linecap="round" stroke="#000000" points="80.6186,204.986 82.4728,204.986"/>
   <polyline stroke-linejoin="round" fill="none" stroke-width="1.2" stroke-linecap="round" stroke="#000000" points="109.003,167.276 109.575,165.512 111.075,164.423 112.93,164.423"/>
   <polyline stroke-linejoin="round" fill="none" stroke-width="1.2" stroke-linecap="round" stroke="#000000" points="113.716,164.994 112.93,164.423"/>
   <polyline stroke-linejoin="round" fill="none" stroke-width="1.2" stroke-linecap="butt" stroke="#0000ff" points="123.145,152.435 51.0889,189.99" stroke-dasharray="8,3,2,3"/>
   <polyline stroke-linejoin="round" fill="none" stroke-width="0.5" stroke-linecap="butt" stroke="#ff0000" points="84.5914,203.783 84.5914,22.0005" stroke-dasharray="9,7"/>
   <polyline stroke-linejoin="round" fill="none" stroke-width="1.2" stroke-linecap="butt" stroke="#ff00ff" points="152.124,113.841 51.0889,22.0005" stroke-dasharray="8,3,2,3"/>
   <polyline stroke-linejoin="round" fill="none" stroke-width="0.5" stroke-linecap="butt" stroke="#ff00ff" points="191.19,61.8096 191.19,22.0005" stroke-dasharray="9,7"/>
   <polyline stroke-linejoin="round" fill="none" stroke-width="1.2" stroke-linecap="butt" stroke="#000000" points="81.5457,207.84 112.003,167.276"/>
   <polyline stroke-linejoin="round" fill="none" stroke-width="1.2" stroke-linecap="round" stroke="#000000" points="50.1618,260.69 48.6618,259.6"/>
   <polyline stroke-linejoin="round" fill="none" stroke-width="1.2" stroke-linecap="round" stroke="#000000" points="48.0889,257.837 48.6618,256.073"/>
   <polyline stroke-linejoin="round" fill="none" stroke-width="1.2" stroke-linecap="butt" stroke="#000000" points="57.5181,247.283 51.0889,257.837"/>
   <polyline stroke-linejoin="round" fill="none" stroke-width="1.2" stroke-linecap="round" stroke="#000000" points="52.0159,254.984 53.5159,256.073"/>
   <polyline stroke-linejoin="round" fill="none" stroke-width="1.2" stroke-linecap="round" stroke="#000000" points="52.0159,260.69 50.1618,260.69"/>
   <polyline stroke-linejoin="round" fill="none" stroke-width="1.2" stroke-linecap="round" stroke="#000000" points="53.5159,256.073 54.0889,257.837"/>
   <polyline stroke-linejoin="round" fill="none" stroke-width="1.2" stroke-linecap="round" stroke="#000000" points="48.6618,259.6 48.0889,257.837"/>
   <polyline stroke-linejoin="round" fill="none" stroke-width="0.5" stroke-linecap="butt" stroke="#000000" points="55.0974,254.733 51.0889,257.837" stroke-dasharray="9,7"/>
   <polyline stroke-linejoin="round" fill="none" stroke-width="1.2" stroke-linecap="round" stroke="#000000" points="48.6618,256.073 50.1618,254.984 52.0159,254.984"/>
   <polyline stroke-linejoin="round" fill="none" stroke-width="1.2" stroke-linecap="round" stroke="#000000" points="53.5159,259.6 52.0159,260.69"/>
   <polyline stroke-linejoin="round" fill="none" stroke-width="1.2" stroke-linecap="round" stroke="#000000" points="54.0889,257.837 53.5159,259.6"/>
   <polyline stroke-linejoin="round" fill="none" stroke-width="1.2" stroke-linecap="round" stroke="#000000" points="80.0565,210.284 79.8324,210.121"/>
   <polyline stroke-linejoin="round" fill="none" stroke-width="1.2" stroke-linecap="butt" stroke="#000000" points="57.5181,247.283 81.5457,207.84"/>
   <polyline stroke-linejoin="round" fill="none" stroke-width="1.2" stroke-linecap="round" stroke="#000000" points="80.0565,210.284 80.6186,210.693"/>
   <polyline stroke-linejoin="round" fill="none" stroke-width="1.2" stroke-linecap="round" stroke="#000000" points="83.259,205.558 83.9727,206.076 84.5457,207.839"/>
   <polyline stroke-linejoin="round" fill="none" stroke-width="0.5" stroke-linecap="butt" stroke="#000000" points="74.0867,240.029 55.0974,254.733" stroke-dasharray="9,7"/>
   <polyline stroke-linejoin="round" fill="none" stroke-width="1.2" stroke-linecap="butt" stroke="#ff0000" points="71.5082,247.965 63.2788,258.073" stroke-dasharray="8,3,2,3"/>
   <polyline stroke-linejoin="round" fill="none" stroke-width="0.5" stroke-linecap="butt" stroke="#ff0000" points="84.5914,207.699 84.5914,203.783" stroke-dasharray="9,7"/>
   <polyline stroke-linejoin="round" fill="none" stroke-width="1.2" stroke-linecap="round" stroke="#000000" points="83.9727,209.603 82.4728,210.693 80.6186,210.693"/>
   <polyline stroke-linejoin="round" fill="none" stroke-width="0.5" stroke-linecap="butt" stroke="#00ff00" points="85.8637,203.783 84.5914,203.783"/>
   <polyline stroke-linejoin="round" fill="none" stroke-width="0.5" stroke-linecap="butt" stroke="#00ff00" points="84.5914,207.699 84.5914,203.783"/>
   <polyline stroke-linejoin="round" fill="none" stroke-width="1.2" stroke-linecap="round" stroke="#000000" points="84.5457,207.839 83.9727,209.603"/>
   <polyline stroke-linejoin="round" fill="none" stroke-width="1.2" stroke-linecap="butt" stroke="#000000" points="294.743,35.679 325.2,28.1323"/>
   <polyline stroke-linejoin="round" fill="none" stroke-width="1.2" stroke-linecap="butt" stroke="#000000" points="112.003,167.276 142.459,133.079 172.916,104.307"/>
   <polyline stroke-linejoin="round" fill="none" stroke-width="1.2" stroke-linecap="butt" stroke="#000000" points="325.2,28.1323 355.657,22.0005"/>
   <polyline stroke-linejoin="round" fill="none" stroke-width="1.2" stroke-linecap="butt" stroke="#000000" points="172.916,104.307 203.373,80.4879 233.83,61.3851"/>
   <polyline stroke-linejoin="round" fill="none" stroke-width="1.2" stroke-linecap="round" stroke="#000000" points="115.003,167.276 114.43,169.039"/>
   <polyline stroke-linejoin="round" fill="none" stroke-width="1.2" stroke-linecap="round" stroke="#000000" points="112.93,170.129 111.075,170.129"/>
   <polyline stroke-linejoin="round" fill="none" stroke-width="1.2" stroke-linecap="butt" stroke="#000000" points="264.287,46.7633 294.743,35.679"/>
   <polyline stroke-linejoin="round" fill="none" stroke-width="1.2" stroke-linecap="round" stroke="#000000" points="114.43,169.039 112.93,170.129"/>
   <polyline stroke-linejoin="round" fill="none" stroke-width="1.2" stroke-linecap="round" stroke="#000000" points="110.289,169.558 111.075,170.129"/>
   <polyline stroke-linejoin="round" fill="none" stroke-width="1.2" stroke-linecap="round" stroke="#000000" points="113.716,164.994 114.43,165.512 115.003,167.276"/>
   <polyline stroke-linejoin="round" fill="none" stroke-width="1.2" stroke-linecap="round" stroke="#000000" points="145.459,133.079 144.886,134.843 143.386,135.933 141.532,135.933 140.032,134.843 139.459,133.079 140.032,131.316 141.532,130.226 143.386,130.226 144.886,131.316 145.459,133.079"/>
   <polyline stroke-linejoin="round" fill="none" stroke-width="1.2" stroke-linecap="round" stroke="#000000" points="175.916,104.307 175.343,106.071 173.843,107.161 171.989,107.161 170.489,106.071 169.916,104.307 170.489,102.544 171.989,101.454 173.843,101.454 175.343,102.544 175.916,104.307"/>
   <polyline stroke-linejoin="round" fill="none" stroke-width="1.2" stroke-linecap="round" stroke="#000000" points="206.373,80.4879 205.8,82.2513 204.3,83.3411 202.446,83.3411 200.946,82.2513 200.373,80.4879 200.946,78.7245 202.446,77.6347 204.3,77.6347 205.8,78.7245 206.373,80.4879"/>
   <polyline stroke-linejoin="round" fill="none" stroke-width="1.2" stroke-linecap="round" stroke="#000000" points="236.83,61.3852 236.257,63.1485 234.757,64.2383 232.903,64.2383 231.403,63.1485"/>
   <polyline stroke-linejoin="round" fill="none" stroke-width="1.2" stroke-linecap="round" stroke="#000000" points="231.235,62.6311 231.403,63.1485"/>
   <polyline stroke-linejoin="round" fill="none" stroke-width="1.2" stroke-linecap="round" stroke="#000000" points="236.425,60.1393 236.83,61.3852"/>
   <polyline stroke-linejoin="round" fill="none" stroke-width="1.2" stroke-linecap="round" stroke="#000000" points="267.287,46.7633 266.714,48.5267 265.214,49.6165 263.36,49.6165 261.86,48.5267"/>
   <polyline stroke-linejoin="round" fill="none" stroke-width="1.2" stroke-linecap="round" stroke="#000000" points="261.691,48.0092 261.86,48.5267"/>
   <polyline stroke-linejoin="round" fill="none" stroke-width="1.2" stroke-linecap="round" stroke="#000000" points="266.882,45.5174 267.287,46.7633"/>
   <polyline stroke-linejoin="round" fill="none" stroke-width="1.2" stroke-linecap="round" stroke="#000000" points="297.743,35.679 297.171,37.4424 295.671,38.5322 293.816,38.5322 292.316,37.4424 291.743,35.679 292.316,33.9156 293.816,32.8258 295.671,32.8258 297.171,33.9156 297.743,35.679"/>
   <polyline stroke-linejoin="round" fill="none" stroke-width="1.2" stroke-linecap="round" stroke="#000000" points="328.2,28.1322 327.627,29.8956 326.127,30.9854 324.273,30.9854 322.773,29.8956 322.2,28.1322 322.773,26.3689 324.273,25.2791 326.127,25.2791 327.627,26.3689 328.2,28.1322"/>
   <polyline stroke-linejoin="round" fill="none" stroke-width="1.2" stroke-linecap="round" stroke="#000000" points="358.657,22.0005 358.084,23.7639 356.584,24.8537 354.73,24.8537 353.23,23.7639 352.657,22.0005 353.23,20.2372 354.73,19.1473 356.584,19.1473 358.084,20.2372 358.657,22.0005"/>
   <polyline stroke-linejoin="round" fill="none" stroke-width="0.5" stroke-linecap="butt" stroke="#000000" points="74.0867,240.029 355.657,22.0005" stroke-dasharray="9,7"/>
   <polyline stroke-linejoin="round" fill="none" stroke-width="1.2" stroke-linecap="butt" stroke="#0000ff" points="123.145,152.435 355.657,31.2523" stroke-dasharray="8,3,2,3"/>
   <polyline stroke-linejoin="round" fill="none" stroke-width="0.5" stroke-linecap="butt" stroke="#0000ff" points="319.109,257.837 319.109,22.0005" stroke-dasharray="9,7"/>
   <polyline stroke-linejoin="round" fill="none" stroke-width="1.2" stroke-linecap="butt" stroke="#ff0000" points="216.726,69.5966 71.5082,247.965" stroke-dasharray="8,3,2,3"/>
   <polyline stroke-linejoin="round" fill="none" stroke-width="0.5" stroke-linecap="butt" stroke="#ff0000" points="84.5914,207.699 84.5914,257.837" stroke-dasharray="9,7"/>
   <polyline stroke-linejoin="round" fill="none" stroke-width="1.2" stroke-linecap="butt" stroke="#ff00ff" points="152.124,113.841 310.795,258.073" stroke-dasharray="8,3,2,3"/>
   <polyline stroke-linejoin="round" fill="none" stroke-width="0.5" stroke-linecap="butt" stroke="#ff00ff" points="191.19,81.8557 191.19,257.837" stroke-dasharray="9,7"/>
   <polyline stroke-linejoin="round" fill="none" stroke-width="0.5" stroke-linecap="butt" stroke="#00ff00" points="347.978,35.2544 296.457,35.2544 296.457,62.1068 232.679,62.1068 232.679,95.3471 184.373,95.3471 184.373,120.524 155.75,120.524 155.75,144.492 132.295,144.492 132.295,173.301 107.478,173.301 107.478,203.783"/>
   <polyline stroke-linejoin="round" fill="none" stroke-width="0.5" stroke-linecap="butt" stroke="#00ff00" points="85.8637,203.783 107.478,203.783"/>
   <polyline stroke-linejoin="round" fill="none" stroke-width="0.5" stroke-linecap="butt" stroke="#00ff00" points="84.5914,207.699 84.5914,231.895"/>
   <polyline stroke-linejoin="round" fill="none" stroke-width="1.2" stroke-linecap="butt" stroke="#000000" points="233.83,61.3851 264.287,46.7633"/>
   <polyline stroke-linejoin="round" fill="none" stroke-width="1.2" stroke-linecap="round" stroke="#000000" points="234.757,58.532 236.257,59.6218"/>
   <polyline stroke-linejoin="round" fill="none" stroke-width="1.2" stroke-linecap="round" stroke="#000000" points="236.425,60.1393 236.257,59.6218"/>
   <polyline stroke-linejoin="round" fill="none" stroke-width="1.2" stroke-linecap="round" stroke="#000000" points="261.691,48.0092 261.287,46.7633 261.86,45"/>
   <polyline stroke-linejoin="round" fill="none" stroke-width="1.2" stroke-linecap="round" stroke="#000000" points="231.235,62.6311 230.83,61.3852"/>
   <polyline stroke-linejoin="round" fill="none" stroke-width="1.2" stroke-linecap="round" stroke="#000000" points="261.86,45 263.36,43.9101"/>
   <polyline stroke-linejoin="round" fill="none" stroke-width="1.2" stroke-linecap="round" stroke="#000000" points="230.83,61.3852 231.403,59.6218"/>
   <polyline stroke-linejoin="round" fill="none" stroke-width="1.2" stroke-linecap="round" stroke="#000000" points="232.903,58.532 234.757,58.532"/>
   <polyline stroke-linejoin="round" fill="none" stroke-width="1.2" stroke-linecap="round" stroke="#000000" points="263.36,43.9101 265.214,43.9101 266.714,45"/>
   <polyline stroke-linejoin="round" fill="none" stroke-width="1.2" stroke-linecap="round" stroke="#000000" points="266.882,45.5174 266.714,45"/>
   <polyline stroke-linejoin="round" fill="none" stroke-width="1.2" stroke-linecap="round" stroke="#000000" points="231.403,59.6218 232.903,58.532"/>
   <polyline stroke-linejoin="round" fill="none" stroke-width="1.2" stroke-linecap="butt" stroke="#ff0000" points="216.726,69.5966 255.668,21.7647" stroke-dasharray="8,3,2,3"/>
   <polyline stroke-linejoin="round" fill="none" stroke-width="0.5" stroke-linecap="butt" stroke="#ff00ff" points="191.19,81.8557 191.19,61.8096" stroke-dasharray="9,7"/>
  </g>
 </g>
</svg>
