<?xml version='1.0' encoding='UTF-8' standalone='no'?>
<svg xmlns="http://www.w3.org/2000/svg" xmlns:xlink="http://www.w3.org/1999/xlink" width="585pt" viewBox="0 0 585 434" height="434pt">
 <title>Figure 1</title>
 <desc>
Creator: GL2PS 1.4.2, (C) 1999-2020 C. Geuzaine
For: Octave
CreationDate: Mon Nov 21 21:34:02 2022
</desc>
 <defs/>
 <polygon fill="#ffffff" points="0,0 585,0 585,434 0,434"/>
 <g>
  <polygon fill="#ffffff" shape-rendering="crispEdges" points="0,434 585,434 585,0 0,0"/>
  <clipPath id="cp00585434">
   <polygon points="0,434 585,434 585,0 0,0"/>
  </clipPath>
  <g clip-path="url(#cp00585434)">
   <polygon fill="#ffffff" shape-rendering="crispEdges" points="529.579,386.881 529.579,32.6024 76.0722,32.6024 76.0722,386.881"/>
   <g font-size="16" font-weight="normal" transform="translate(59.0809,39.1024) rotate(-0,9,-6.5)" font-style="normal" xml:space="preserve" font-family="FreeSans">
    <text fill="rgb(38,38,38)" y="-0" x="0 ">1</text>
   </g>
   <g font-size="16" font-weight="normal" transform="translate(46.0809,109.958) rotate(-0,22,-6.5)" font-style="normal" xml:space="preserve" font-family="FreeSans">
    <text fill="rgb(38,38,38)" y="-0" x="0 9 13 ">0.8</text>
   </g>
   <g font-size="16" font-weight="normal" transform="translate(46.0809,180.814) rotate(-0,22,-6.5)" font-style="normal" xml:space="preserve" font-family="FreeSans">
    <text fill="rgb(38,38,38)" y="-0" x="0 9 13 ">0.6</text>
   </g>
   <g font-size="16" font-weight="normal" transform="translate(46.0809,251.67) rotate(-0,22,-6.5)" font-style="normal" xml:space="preserve" font-family="FreeSans">
    <text fill="rgb(38,38,38)" y="-0" x="0 9 13 ">0.4</text>
   </g>
   <g font-size="16" font-weight="normal" transform="translate(46.0809,322.526) rotate(-0,22,-6.5)" font-style="normal" xml:space="preserve" font-family="FreeSans">
    <text fill="rgb(38,38,38)" y="-0" x="0 9 13 ">0.2</text>
   </g>
   <g font-size="16" font-weight="normal" transform="translate(59.0809,393.381) rotate(-0,9,-6.5)" font-style="normal" xml:space="preserve" font-family="FreeSans">
    <text fill="rgb(38,38,38)" y="-0" x="0 ">0</text>
   </g>
   <g font-size="17.6" font-weight="normal" transform="translate(36.0809,209.742) rotate(-90,5,0)" font-style="italic" xml:space="preserve" font-family="FreeSans">
    <text fill="rgb(38,38,38)" y="-4" x="0 ">y</text>
   </g>
   <g font-size="17.6" font-weight="normal" transform="translate(297.826,427.891) rotate(-0,5,-11)" font-style="italic" xml:space="preserve" font-family="FreeSans">
    <text fill="rgb(38,38,38)" y="-0" x="0 ">x</text>
   </g>
   <g font-size="16" font-weight="normal" transform="translate(525.079,411.891) rotate(-0,4.5,-13)" font-style="normal" xml:space="preserve" font-family="FreeSans">
    <text fill="rgb(38,38,38)" y="-0" x="0 ">1</text>
   </g>
   <g font-size="16" font-weight="normal" transform="translate(427.878,411.891) rotate(-0,11,-13)" font-style="normal" xml:space="preserve" font-family="FreeSans">
    <text fill="rgb(38,38,38)" y="-0" x="0 9 13 ">0.8</text>
   </g>
   <g font-size="16" font-weight="normal" transform="translate(337.176,411.891) rotate(-0,11,-13)" font-style="normal" xml:space="preserve" font-family="FreeSans">
    <text fill="rgb(38,38,38)" y="-0" x="0 9 13 ">0.6</text>
   </g>
   <g font-size="16" font-weight="normal" transform="translate(246.475,411.891) rotate(-0,11,-13)" font-style="normal" xml:space="preserve" font-family="FreeSans">
    <text fill="rgb(38,38,38)" y="-0" x="0 9 13 ">0.4</text>
   </g>
   <g font-size="16" font-weight="normal" transform="translate(155.774,411.891) rotate(-0,11,-13)" font-style="normal" xml:space="preserve" font-family="FreeSans">
    <text fill="rgb(38,38,38)" y="-0" x="0 9 13 ">0.2</text>
   </g>
   <g font-size="16" font-weight="normal" transform="translate(71.5722,411.891) rotate(-0,4.5,-13)" font-style="normal" xml:space="preserve" font-family="FreeSans">
    <text fill="rgb(38,38,38)" y="-0" x="0 ">0</text>
   </g>
   <polyline fill="none" stroke-linecap="butt" stroke-linejoin="miter" stroke-width="0.5" stroke="#262626" points="529.579,386.881 529.579,382.343"/>
   <polyline fill="none" stroke-linecap="butt" stroke-linejoin="miter" stroke-width="0.5" stroke="#262626" points="529.579,32.6024 529.579,37.141"/>
   <polyline fill="none" stroke-linecap="butt" stroke-linejoin="miter" stroke-width="0.5" stroke="#262626" points="348.176,32.6024 348.176,37.141"/>
   <polyline fill="none" stroke-linecap="butt" stroke-linejoin="miter" stroke-width="0.5" stroke="#262626" points="348.176,386.881 348.176,382.343"/>
   <polyline fill="none" stroke-linecap="butt" stroke-linejoin="miter" stroke-width="0.5" stroke="#262626" points="257.475,32.6024 257.475,37.141"/>
   <polyline fill="none" stroke-linecap="butt" stroke-linejoin="miter" stroke-width="0.5" stroke="#262626" points="257.475,386.881 257.475,382.343"/>
   <polyline fill="none" stroke-linecap="butt" stroke-linejoin="miter" stroke-width="0.5" stroke="#262626" points="438.878,386.881 438.878,382.343"/>
   <polyline fill="none" stroke-linecap="butt" stroke-linejoin="miter" stroke-width="0.5" stroke="#262626" points="438.878,32.6024 438.878,37.141"/>
   <polyline fill="none" stroke-linecap="butt" stroke-linejoin="miter" stroke-width="0.5" stroke="#262626" points="166.774,32.6024 166.774,37.141"/>
   <polyline fill="none" stroke-linecap="butt" stroke-linejoin="miter" stroke-width="0.5" stroke="#262626" points="166.774,386.881 166.774,382.343"/>
   <polyline fill="none" stroke-dasharray="16,0" stroke-linecap="butt" stroke-linejoin="miter" stroke-width="0.5" stroke="#262626" points="76.0722,386.881 529.579,386.881" stroke-opacity="0.15"/>
   <polyline fill="none" stroke-dasharray="16,0" stroke-linecap="butt" stroke-linejoin="miter" stroke-width="0.5" stroke="#262626" points="76.0722,316.026 529.579,316.026" stroke-opacity="0.15"/>
   <polyline fill="none" stroke-dasharray="16,0" stroke-linecap="butt" stroke-linejoin="miter" stroke-width="0.5" stroke="#262626" points="76.0722,245.17 529.579,245.17" stroke-opacity="0.15"/>
   <polyline fill="none" stroke-dasharray="16,0" stroke-linecap="butt" stroke-linejoin="miter" stroke-width="0.5" stroke="#262626" points="76.0722,174.314 529.579,174.314" stroke-opacity="0.15"/>
   <polyline fill="none" stroke-dasharray="16,0" stroke-linecap="butt" stroke-linejoin="miter" stroke-width="0.5" stroke="#262626" points="76.0722,103.458 529.579,103.458" stroke-opacity="0.15"/>
   <polyline fill="none" stroke-dasharray="16,0" stroke-linecap="butt" stroke-linejoin="miter" stroke-width="0.5" stroke="#262626" points="76.0722,32.6024 529.579,32.6024" stroke-opacity="0.15"/>
   <polyline fill="none" stroke-linecap="butt" stroke-linejoin="miter" stroke-width="0.5" stroke="#262626" points="76.0722,386.881 80.6023,386.881"/>
   <polyline fill="none" stroke-linecap="butt" stroke-linejoin="miter" stroke-width="0.5" stroke="#262626" points="529.579,386.881 525.049,386.881"/>
   <polyline fill="none" stroke-linecap="butt" stroke-linejoin="miter" stroke-width="0.5" stroke="#262626" points="76.0722,316.026 80.6023,316.026"/>
   <polyline fill="none" stroke-linecap="butt" stroke-linejoin="miter" stroke-width="0.5" stroke="#262626" points="529.579,316.026 525.049,316.026"/>
   <polyline fill="none" stroke-linecap="butt" stroke-linejoin="miter" stroke-width="0.5" stroke="#262626" points="76.0722,245.17 80.6023,245.17"/>
   <polyline fill="none" stroke-linecap="butt" stroke-linejoin="miter" stroke-width="0.5" stroke="#262626" points="529.579,245.17 525.049,245.17"/>
   <polyline fill="none" stroke-linecap="butt" stroke-linejoin="miter" stroke-width="0.5" stroke="#262626" points="76.0722,174.314 80.6023,174.314"/>
   <polyline fill="none" stroke-linecap="butt" stroke-linejoin="miter" stroke-width="0.5" stroke="#262626" points="529.579,174.314 525.049,174.314"/>
   <polyline fill="none" stroke-linecap="butt" stroke-linejoin="miter" stroke-width="0.5" stroke="#262626" points="76.0722,103.458 80.6023,103.458"/>
   <polyline fill="none" stroke-linecap="butt" stroke-linejoin="miter" stroke-width="0.5" stroke="#262626" points="529.579,103.458 525.049,103.458"/>
   <polyline fill="none" stroke-linecap="butt" stroke-linejoin="miter" stroke-width="0.5" stroke="#262626" points="76.0722,32.6024 80.6023,32.6024"/>
   <polyline fill="none" stroke-linecap="butt" stroke-linejoin="miter" stroke-width="0.5" stroke="#262626" points="529.579,32.6024 525.049,32.6024"/>
   <polyline fill="none" stroke-linecap="butt" stroke-linejoin="miter" stroke-width="0.5" stroke="#262626" points="76.0722,32.6024 76.0722,37.141"/>
   <polyline fill="none" stroke-linecap="butt" stroke-linejoin="miter" stroke-width="0.5" stroke="#262626" points="76.0722,386.881 76.0722,382.343"/>
   <polyline fill="none" stroke-dasharray="16,0" stroke-linecap="butt" stroke-linejoin="miter" stroke-width="0.5" stroke="#262626" points="529.579,386.881 529.579,32.6024" stroke-opacity="0.15"/>
   <polyline fill="none" stroke-dasharray="16,0" stroke-linecap="butt" stroke-linejoin="miter" stroke-width="0.5" stroke="#262626" points="438.878,386.881 438.878,32.6024" stroke-opacity="0.15"/>
   <polyline fill="none" stroke-dasharray="16,0" stroke-linecap="butt" stroke-linejoin="miter" stroke-width="0.5" stroke="#262626" points="348.176,386.881 348.176,32.6024" stroke-opacity="0.15"/>
   <polyline fill="none" stroke-dasharray="16,0" stroke-linecap="butt" stroke-linejoin="miter" stroke-width="0.5" stroke="#262626" points="257.475,386.881 257.475,32.6024" stroke-opacity="0.15"/>
   <polyline fill="none" stroke-dasharray="16,0" stroke-linecap="square" stroke-linejoin="miter" stroke-width="0.5" stroke="#262626" points="76.0722,386.881 529.579,386.881"/>
   <polyline fill="none" stroke-dasharray="16,0" stroke-linecap="square" stroke-linejoin="miter" stroke-width="0.5" stroke="#262626" points="76.0722,32.6024 529.579,32.6024"/>
   <polyline fill="none" stroke-dasharray="16,0" stroke-linecap="square" stroke-linejoin="miter" stroke-width="0.5" stroke="#262626" points="76.0722,386.881 76.0722,32.6024"/>
   <polyline fill="none" stroke-dasharray="16,0" stroke-linecap="square" stroke-linejoin="miter" stroke-width="0.5" stroke="#262626" points="529.579,386.881 529.579,32.6024"/>
   <polyline fill="none" stroke-dasharray="16,0" stroke-linecap="butt" stroke-linejoin="miter" stroke-width="0.5" stroke="#262626" points="166.774,386.881 166.774,32.6024" stroke-opacity="0.15"/>
   <polyline fill="none" stroke-dasharray="16,0" stroke-linecap="butt" stroke-linejoin="miter" stroke-width="0.5" stroke="#262626" points="76.0722,386.881 76.0722,32.6024" stroke-opacity="0.15"/>
   <polyline fill="none" stroke-linecap="round" stroke-linejoin="round" stroke-width="0.5" stroke="#000000" points="118.996,313.538 118.423,311.774 118.996,310.011 120.496,308.921"/>
   <polyline fill="none" stroke-linecap="round" stroke-linejoin="round" stroke-width="0.5" stroke="#000000" points="123.126,309.485 122.35,308.921"/>
   <polyline fill="none" stroke-linecap="round" stroke-linejoin="round" stroke-width="0.5" stroke="#000000" points="165.07,253.127 164.347,252.602 163.774,250.838"/>
   <polyline fill="none" stroke-linecap="round" stroke-linejoin="round" stroke-width="0.5" stroke="#000000" points="119.719,314.063 118.996,313.538"/>
   <polyline fill="none" stroke-linecap="round" stroke-linejoin="round" stroke-width="0.5" stroke="#000000" points="120.496,308.921 122.35,308.921"/>
   <polyline fill="none" stroke-linecap="round" stroke-linejoin="round" stroke-width="0.5" stroke="#000000" points="163.774,250.838 164.347,249.075 165.847,247.985 167.701,247.985"/>
   <polyline fill="none" stroke-linecap="round" stroke-linejoin="round" stroke-width="0.5" stroke="#000000" points="168.477,248.549 167.701,247.985"/>
   <polyline fill="none" stroke-linecap="butt" stroke-linejoin="round" stroke-width="0.5" stroke="#0000ff" points="183.366,228.544 76.0722,284.96"/>
   <polyline fill="none" stroke-dasharray="9,7" stroke-linecap="butt" stroke-linejoin="round" stroke-width="0.5" stroke="#ff0000" points="125.958,305.681 125.958,32.6024"/>
   <polyline fill="none" stroke-linecap="butt" stroke-linejoin="round" stroke-width="0.5" stroke="#ff00ff" points="226.514,170.567 76.0722,32.6024"/>
   <polyline fill="none" stroke-dasharray="9,7" stroke-linecap="butt" stroke-linejoin="round" stroke-width="0.5" stroke="#ff00ff" points="284.685,92.4046 284.685,32.6024"/>
   <polyline fill="none" stroke-linecap="butt" stroke-linejoin="round" stroke-width="0.5" stroke="#000000" points="121.423,311.774 166.774,250.838"/>
   <polyline fill="none" stroke-linecap="round" stroke-linejoin="round" stroke-width="0.5" stroke="#000000" points="75.1451,389.734 73.6451,388.645"/>
   <polyline fill="none" stroke-linecap="round" stroke-linejoin="round" stroke-width="0.5" stroke="#000000" points="73.0722,386.881 73.6451,385.118"/>
   <polyline fill="none" stroke-linecap="butt" stroke-linejoin="round" stroke-width="0.5" stroke="#000000" points="82.5672,376.125 76.0722,386.881"/>
   <polyline fill="none" stroke-linecap="round" stroke-linejoin="round" stroke-width="0.5" stroke="#000000" points="76.9992,384.028 78.4992,385.118"/>
   <polyline fill="none" stroke-linecap="round" stroke-linejoin="round" stroke-width="0.5" stroke="#000000" points="76.9992,389.734 75.1451,389.734"/>
   <polyline fill="none" stroke-linecap="round" stroke-linejoin="round" stroke-width="0.5" stroke="#000000" points="78.4992,385.118 79.0722,386.881"/>
   <polyline fill="none" stroke-linecap="round" stroke-linejoin="round" stroke-width="0.5" stroke="#000000" points="73.6451,388.645 73.0722,386.881"/>
   <polyline fill="none" stroke-dasharray="9,7" stroke-linecap="butt" stroke-linejoin="round" stroke-width="0.5" stroke="#000000" points="80.0927,383.74 76.0722,386.881"/>
   <polyline fill="none" stroke-linecap="round" stroke-linejoin="round" stroke-width="0.5" stroke="#000000" points="73.6451,385.118 75.1451,384.028 76.9992,384.028"/>
   <polyline fill="none" stroke-linecap="round" stroke-linejoin="round" stroke-width="0.5" stroke="#000000" points="78.4992,388.645 76.9992,389.734"/>
   <polyline fill="none" stroke-linecap="round" stroke-linejoin="round" stroke-width="0.5" stroke="#000000" points="79.0722,386.881 78.4992,388.645"/>
   <polyline fill="none" stroke-linecap="round" stroke-linejoin="round" stroke-width="0.5" stroke="#000000" points="119.943,314.226 119.719,314.063"/>
   <polyline fill="none" stroke-linecap="butt" stroke-linejoin="round" stroke-width="0.5" stroke="#000000" points="82.5672,376.125 121.423,311.774"/>
   <polyline fill="none" stroke-linecap="round" stroke-linejoin="round" stroke-width="0.5" stroke="#000000" points="119.943,314.226 120.496,314.627"/>
   <polyline fill="none" stroke-linecap="round" stroke-linejoin="round" stroke-width="0.5" stroke="#000000" points="123.126,309.485 123.85,310.011 124.423,311.774"/>
   <polyline fill="none" stroke-dasharray="9,7" stroke-linecap="butt" stroke-linejoin="round" stroke-width="0.5" stroke="#000000" points="108.165,361.81 80.0927,383.74"/>
   <polyline fill="none" stroke-linecap="butt" stroke-linejoin="round" stroke-width="0.5" stroke="#ff0000" points="103.733,375.451 94.2232,387.236"/>
   <polyline fill="none" stroke-dasharray="9,7" stroke-linecap="butt" stroke-linejoin="round" stroke-width="0.5" stroke="#ff0000" points="125.958,307.05 125.958,305.681"/>
   <polyline fill="none" stroke-linecap="round" stroke-linejoin="round" stroke-width="0.5" stroke="#000000" points="123.85,313.538 122.35,314.627 120.496,314.627"/>
   <polyline fill="none" stroke-linecap="butt" stroke-linejoin="round" stroke-width="0.5" stroke="#00ffff" points="126.403,305.681 125.958,305.681"/>
   <polyline fill="none" stroke-linecap="butt" stroke-linejoin="round" stroke-width="0.5" stroke="#00ffff" points="125.958,307.05 125.958,305.681"/>
   <polyline fill="none" stroke-linecap="round" stroke-linejoin="round" stroke-width="0.5" stroke="#000000" points="124.423,311.774 123.85,313.538"/>
   <polyline fill="none" stroke-linecap="butt" stroke-linejoin="round" stroke-width="0.5" stroke="#000000" points="438.878,53.1505 484.229,41.8136"/>
   <polyline fill="none" stroke-linecap="butt" stroke-linejoin="round" stroke-width="0.5" stroke="#000000" points="166.774,250.838 212.124,199.468 257.475,156.246"/>
   <polyline fill="none" stroke-linecap="butt" stroke-linejoin="round" stroke-width="0.5" stroke="#000000" points="484.229,41.8136 529.579,32.6024"/>
   <polyline fill="none" stroke-linecap="butt" stroke-linejoin="round" stroke-width="0.5" stroke="#000000" points="257.475,156.246 302.826,120.464 348.176,91.7669"/>
   <polyline fill="none" stroke-linecap="round" stroke-linejoin="round" stroke-width="0.5" stroke="#000000" points="169.774,250.838 169.201,252.602"/>
   <polyline fill="none" stroke-linecap="round" stroke-linejoin="round" stroke-width="0.5" stroke="#000000" points="167.701,253.691 165.847,253.691"/>
   <polyline fill="none" stroke-linecap="butt" stroke-linejoin="round" stroke-width="0.5" stroke="#000000" points="393.527,69.8017 438.878,53.1505"/>
   <polyline fill="none" stroke-linecap="round" stroke-linejoin="round" stroke-width="0.5" stroke="#000000" points="169.201,252.602 167.701,253.691"/>
   <polyline fill="none" stroke-linecap="round" stroke-linejoin="round" stroke-width="0.5" stroke="#000000" points="165.07,253.127 165.847,253.691"/>
   <polyline fill="none" stroke-linecap="round" stroke-linejoin="round" stroke-width="0.5" stroke="#000000" points="168.477,248.549 169.201,249.075 169.774,250.838"/>
   <polyline fill="none" stroke-linecap="round" stroke-linejoin="round" stroke-width="0.5" stroke="#000000" points="215.124,199.468 214.551,201.231 213.051,202.321 211.197,202.321 209.697,201.231 209.124,199.468 209.697,197.704 211.197,196.615 213.051,196.615 214.551,197.704 215.124,199.468"/>
   <polyline fill="none" stroke-linecap="round" stroke-linejoin="round" stroke-width="0.5" stroke="#000000" points="260.475,156.246 259.902,158.009 258.402,159.099 256.548,159.099 255.048,158.009 254.475,156.246 255.048,154.482 256.548,153.393 258.402,153.393 259.902,154.482 260.475,156.246"/>
   <polyline fill="none" stroke-linecap="round" stroke-linejoin="round" stroke-width="0.5" stroke="#000000" points="305.826,120.464 305.253,122.227 303.753,123.317 301.899,123.317 300.399,122.227 299.826,120.464 300.399,118.7 301.899,117.61 303.753,117.61 305.253,118.7 305.826,120.464"/>
   <polyline fill="none" stroke-linecap="round" stroke-linejoin="round" stroke-width="0.5" stroke="#000000" points="351.176,91.7669 350.604,93.5303 349.104,94.6201 347.249,94.6201 345.749,93.5303"/>
   <polyline fill="none" stroke-linecap="round" stroke-linejoin="round" stroke-width="0.5" stroke="#000000" points="345.584,93.0224 345.749,93.5303"/>
   <polyline fill="none" stroke-linecap="round" stroke-linejoin="round" stroke-width="0.5" stroke="#000000" points="350.769,90.5114 351.176,91.7669"/>
   <polyline fill="none" stroke-linecap="round" stroke-linejoin="round" stroke-width="0.5" stroke="#000000" points="396.527,69.8017 395.954,71.565 394.454,72.6548 392.6,72.6548 391.1,71.565"/>
   <polyline fill="none" stroke-linecap="round" stroke-linejoin="round" stroke-width="0.5" stroke="#000000" points="390.935,71.0571 391.1,71.565"/>
   <polyline fill="none" stroke-linecap="round" stroke-linejoin="round" stroke-width="0.5" stroke="#000000" points="396.119,68.5462 396.527,69.8017"/>
   <polyline fill="none" stroke-linecap="round" stroke-linejoin="round" stroke-width="0.5" stroke="#000000" points="441.878,53.1505 441.305,54.9139 439.805,56.0037 437.951,56.0037 436.451,54.9139 435.878,53.1505 436.451,51.3872 437.951,50.2974 439.805,50.2974 441.305,51.3872 441.878,53.1505"/>
   <polyline fill="none" stroke-linecap="round" stroke-linejoin="round" stroke-width="0.5" stroke="#000000" points="487.229,41.8136 486.656,43.577 485.156,44.6668 483.302,44.6668 481.802,43.577 481.229,41.8136 481.802,40.0503 483.302,38.9604 485.156,38.9604 486.656,40.0503 487.229,41.8136"/>
   <polyline fill="none" stroke-linecap="round" stroke-linejoin="round" stroke-width="0.5" stroke="#000000" points="532.579,32.6024 532.006,34.3657 530.506,35.4555 528.652,35.4555 527.152,34.3657 526.579,32.6024 527.152,30.839 528.652,29.7492 530.506,29.7492 532.006,30.839 532.579,32.6024"/>
   <polyline fill="none" stroke-dasharray="9,7" stroke-linecap="butt" stroke-linejoin="round" stroke-width="0.5" stroke="#000000" points="108.165,361.81 529.579,32.6024"/>
   <polyline fill="none" stroke-linecap="butt" stroke-linejoin="round" stroke-width="0.5" stroke="#0000ff" points="183.366,228.544 529.579,46.5007"/>
   <polyline fill="none" stroke-dasharray="9,7" stroke-linecap="butt" stroke-linejoin="round" stroke-width="0.5" stroke="#0000ff" points="475.158,386.881 475.158,32.6024"/>
   <polyline fill="none" stroke-linecap="butt" stroke-linejoin="round" stroke-width="0.5" stroke="#ff0000" points="322.708,104.102 103.733,375.451"/>
   <polyline fill="none" stroke-dasharray="9,7" stroke-linecap="butt" stroke-linejoin="round" stroke-width="0.5" stroke="#ff0000" points="125.958,307.05 125.958,386.881"/>
   <polyline fill="none" stroke-linecap="butt" stroke-linejoin="round" stroke-width="0.5" stroke="#ff00ff" points="226.514,170.567 462.779,387.236"/>
   <polyline fill="none" stroke-dasharray="9,7" stroke-linecap="butt" stroke-linejoin="round" stroke-width="0.5" stroke="#ff00ff" points="284.685,122.518 284.685,386.881"/>
   <polyline fill="none" stroke-linecap="butt" stroke-linejoin="round" stroke-width="0.5" stroke="#00ffff" points="518.146,52.5127 441.429,52.5127 441.429,92.851 346.463,92.851 346.463,142.785 274.535,142.785 274.535,180.606 231.915,180.606 231.915,216.611 196.99,216.611 196.99,259.89 160.037,259.89 160.037,305.681"/>
   <polyline fill="none" stroke-linecap="butt" stroke-linejoin="round" stroke-width="0.5" stroke="#00ffff" points="126.403,305.681 160.037,305.681"/>
   <polyline fill="none" stroke-linecap="butt" stroke-linejoin="round" stroke-width="0.5" stroke="#00ffff" points="125.958,307.05 125.958,347.911"/>
   <polyline fill="none" stroke-linecap="butt" stroke-linejoin="round" stroke-width="0.5" stroke="#000000" points="348.176,91.7669 393.527,69.8017"/>
   <polyline fill="none" stroke-linecap="round" stroke-linejoin="round" stroke-width="0.5" stroke="#000000" points="349.104,88.9138 350.604,90.0036"/>
   <polyline fill="none" stroke-linecap="round" stroke-linejoin="round" stroke-width="0.5" stroke="#000000" points="350.769,90.5114 350.604,90.0036"/>
   <polyline fill="none" stroke-linecap="round" stroke-linejoin="round" stroke-width="0.5" stroke="#000000" points="390.935,71.0571 390.527,69.8017 391.1,68.0383"/>
   <polyline fill="none" stroke-linecap="round" stroke-linejoin="round" stroke-width="0.5" stroke="#000000" points="345.584,93.0224 345.176,91.7669"/>
   <polyline fill="none" stroke-linecap="round" stroke-linejoin="round" stroke-width="0.5" stroke="#000000" points="391.1,68.0383 392.6,66.9485"/>
   <polyline fill="none" stroke-linecap="round" stroke-linejoin="round" stroke-width="0.5" stroke="#000000" points="345.176,91.7669 345.749,90.0036"/>
   <polyline fill="none" stroke-linecap="round" stroke-linejoin="round" stroke-width="0.5" stroke="#000000" points="347.249,88.9138 349.104,88.9138"/>
   <polyline fill="none" stroke-linecap="round" stroke-linejoin="round" stroke-width="0.5" stroke="#000000" points="392.6,66.9485 394.454,66.9485 395.954,68.0383"/>
   <polyline fill="none" stroke-linecap="round" stroke-linejoin="round" stroke-width="0.5" stroke="#000000" points="396.119,68.5462 395.954,68.0383"/>
   <polyline fill="none" stroke-linecap="round" stroke-linejoin="round" stroke-width="0.5" stroke="#000000" points="345.749,90.0036 347.249,88.9138"/>
   <polyline fill="none" stroke-linecap="butt" stroke-linejoin="round" stroke-width="0.5" stroke="#ff0000" points="322.708,104.102 380.693,32.248"/>
   <polyline fill="none" stroke-dasharray="9,7" stroke-linecap="butt" stroke-linejoin="round" stroke-width="0.5" stroke="#ff00ff" points="284.685,122.518 284.685,92.4046"/>
  </g>
 </g>
</svg>
