<?xml version='1.0' encoding='UTF-8' standalone='no'?>
<svg viewBox="0 0 392 293" width="392pt" height="293pt" xmlns="http://www.w3.org/2000/svg" xmlns:xlink="http://www.w3.org/1999/xlink">
 <title>Figure 1</title>
 <desc>
Creator: GL2PS 1.4.2, (C) 1999-2020 C. Geuzaine
For: Octave
CreationDate: Mon Oct 10 11:25:03 2022
</desc>
 <defs/>
 <polygon fill="#ffffff" points="0,0 392,0 392,293 0,293"/>
 <g>
  <polygon fill="#ffffff" points="0,293 392,293 392,0 0,0" shape-rendering="crispEdges"/>
  <clipPath id="cp00392293">
   <polygon points="0,293 392,293 392,0 0,0"/>
  </clipPath>
  <g clip-path="url(#cp00392293)">
   <polygon fill="#ffffff" points="355.657,252.336 355.657,22.0005 51.0889,22.0005 51.0889,252.336" shape-rendering="crispEdges"/>
   <g transform="translate(34.1002,28.5005) rotate(-0,9,-6.5)" font-style="normal" font-size="16" xml:space="preserve" font-weight="normal" font-family="FreeSans">
    <text fill="rgb(38,38,38)" y="-0" x="0 ">1</text>
   </g>
   <g transform="translate(21.1002,74.5677) rotate(-0,22,-6.5)" font-style="normal" font-size="16" xml:space="preserve" font-weight="normal" font-family="FreeSans">
    <text fill="rgb(38,38,38)" y="-0" x="0 9 13 ">0.8</text>
   </g>
   <g transform="translate(21.1002,120.635) rotate(-0,22,-6.5)" font-style="normal" font-size="16" xml:space="preserve" font-weight="normal" font-family="FreeSans">
    <text fill="rgb(38,38,38)" y="-0" x="0 9 13 ">0.6</text>
   </g>
   <g transform="translate(21.1002,166.702) rotate(-0,22,-6.5)" font-style="normal" font-size="16" xml:space="preserve" font-weight="normal" font-family="FreeSans">
    <text fill="rgb(38,38,38)" y="-0" x="0 9 13 ">0.4</text>
   </g>
   <g transform="translate(21.1002,212.769) rotate(-0,22,-6.5)" font-style="normal" font-size="16" xml:space="preserve" font-weight="normal" font-family="FreeSans">
    <text fill="rgb(38,38,38)" y="-0" x="0 9 13 ">0.2</text>
   </g>
   <g transform="translate(34.1002,258.836) rotate(-0,9,-6.5)" font-style="normal" font-size="16" xml:space="preserve" font-weight="normal" font-family="FreeSans">
    <text fill="rgb(38,38,38)" y="-0" x="0 ">0</text>
   </g>
   <g transform="translate(11.1002,137.168) rotate(-90,5,0)" font-style="italic" font-size="17.6" xml:space="preserve" font-weight="normal" font-family="FreeSans">
    <text fill="rgb(38,38,38)" y="-4" x="0 ">y</text>
   </g>
   <g transform="translate(198.373,293.354) rotate(-0,5,-11)" font-style="italic" font-size="17.6" xml:space="preserve" font-weight="normal" font-family="FreeSans">
    <text fill="rgb(38,38,38)" y="-0" x="0 ">x</text>
   </g>
   <g transform="translate(351.157,277.354) rotate(-0,4.5,-13)" font-style="normal" font-size="16" xml:space="preserve" font-weight="normal" font-family="FreeSans">
    <text fill="rgb(38,38,38)" y="-0" x="0 ">1</text>
   </g>
   <g transform="translate(283.744,277.354) rotate(-0,11,-13)" font-style="normal" font-size="16" xml:space="preserve" font-weight="normal" font-family="FreeSans">
    <text fill="rgb(38,38,38)" y="-0" x="0 9 13 ">0.8</text>
   </g>
   <g transform="translate(222.83,277.354) rotate(-0,11,-13)" font-style="normal" font-size="16" xml:space="preserve" font-weight="normal" font-family="FreeSans">
    <text fill="rgb(38,38,38)" y="-0" x="0 9 13 ">0.6</text>
   </g>
   <g transform="translate(161.916,277.354) rotate(-0,11,-13)" font-style="normal" font-size="16" xml:space="preserve" font-weight="normal" font-family="FreeSans">
    <text fill="rgb(38,38,38)" y="-0" x="0 9 13 ">0.4</text>
   </g>
   <g transform="translate(101.003,277.354) rotate(-0,11,-13)" font-style="normal" font-size="16" xml:space="preserve" font-weight="normal" font-family="FreeSans">
    <text fill="rgb(38,38,38)" y="-0" x="0 9 13 ">0.2</text>
   </g>
   <g transform="translate(46.5889,277.354) rotate(-0,4.5,-13)" font-style="normal" font-size="16" xml:space="preserve" font-weight="normal" font-family="FreeSans">
    <text fill="rgb(38,38,38)" y="-0" x="0 ">0</text>
   </g>
   <polyline stroke="#262626" fill="none" points="355.657,252.336 355.657,249.286" stroke-linejoin="miter" stroke-linecap="butt" stroke-width="0.5"/>
   <polyline stroke="#262626" fill="none" points="355.657,22.0005 355.657,25.0506" stroke-linejoin="miter" stroke-linecap="butt" stroke-width="0.5"/>
   <polyline stroke="#262626" fill="none" points="233.83,22.0005 233.83,25.0506" stroke-linejoin="miter" stroke-linecap="butt" stroke-width="0.5"/>
   <polyline stroke="#262626" fill="none" points="233.83,252.336 233.83,249.286" stroke-linejoin="miter" stroke-linecap="butt" stroke-width="0.5"/>
   <polyline stroke="#262626" fill="none" points="172.916,22.0005 172.916,25.0506" stroke-linejoin="miter" stroke-linecap="butt" stroke-width="0.5"/>
   <polyline stroke="#262626" fill="none" points="172.916,252.336 172.916,249.286" stroke-linejoin="miter" stroke-linecap="butt" stroke-width="0.5"/>
   <polyline stroke="#262626" fill="none" points="294.743,252.336 294.743,249.286" stroke-linejoin="miter" stroke-linecap="butt" stroke-width="0.5"/>
   <polyline stroke="#262626" fill="none" points="294.743,22.0005 294.743,25.0506" stroke-linejoin="miter" stroke-linecap="butt" stroke-width="0.5"/>
   <polyline stroke="#262626" fill="none" points="112.003,22.0005 112.003,25.0506" stroke-linejoin="miter" stroke-linecap="butt" stroke-width="0.5"/>
   <polyline stroke="#262626" fill="none" points="112.003,252.336 112.003,249.286" stroke-linejoin="miter" stroke-linecap="butt" stroke-width="0.5"/>
   <polyline stroke="#262626" fill="none" points="51.0889,252.336 355.657,252.336" stroke-linejoin="miter" stroke-opacity="0.15" stroke-linecap="butt" stroke-dasharray="16,0" stroke-width="0.5"/>
   <polyline stroke="#262626" fill="none" points="51.0889,206.269 355.657,206.269" stroke-linejoin="miter" stroke-opacity="0.15" stroke-linecap="butt" stroke-dasharray="16,0" stroke-width="0.5"/>
   <polyline stroke="#262626" fill="none" points="51.0889,160.202 355.657,160.202" stroke-linejoin="miter" stroke-opacity="0.15" stroke-linecap="butt" stroke-dasharray="16,0" stroke-width="0.5"/>
   <polyline stroke="#262626" fill="none" points="51.0889,114.135 355.657,114.135" stroke-linejoin="miter" stroke-opacity="0.15" stroke-linecap="butt" stroke-dasharray="16,0" stroke-width="0.5"/>
   <polyline stroke="#262626" fill="none" points="51.0889,68.0677 355.657,68.0677" stroke-linejoin="miter" stroke-opacity="0.15" stroke-linecap="butt" stroke-dasharray="16,0" stroke-width="0.5"/>
   <polyline stroke="#262626" fill="none" points="51.0889,22.0005 355.657,22.0005" stroke-linejoin="miter" stroke-opacity="0.15" stroke-linecap="butt" stroke-dasharray="16,0" stroke-width="0.5"/>
   <polyline stroke="#262626" fill="none" points="51.0889,252.336 54.1302,252.336" stroke-linejoin="miter" stroke-linecap="butt" stroke-width="0.5"/>
   <polyline stroke="#262626" fill="none" points="355.657,252.336 352.616,252.336" stroke-linejoin="miter" stroke-linecap="butt" stroke-width="0.5"/>
   <polyline stroke="#262626" fill="none" points="51.0889,206.269 54.1302,206.269" stroke-linejoin="miter" stroke-linecap="butt" stroke-width="0.5"/>
   <polyline stroke="#262626" fill="none" points="355.657,206.269 352.616,206.269" stroke-linejoin="miter" stroke-linecap="butt" stroke-width="0.5"/>
   <polyline stroke="#262626" fill="none" points="51.0889,160.202 54.1302,160.202" stroke-linejoin="miter" stroke-linecap="butt" stroke-width="0.5"/>
   <polyline stroke="#262626" fill="none" points="355.657,160.202 352.616,160.202" stroke-linejoin="miter" stroke-linecap="butt" stroke-width="0.5"/>
   <polyline stroke="#262626" fill="none" points="51.0889,114.135 54.1302,114.135" stroke-linejoin="miter" stroke-linecap="butt" stroke-width="0.5"/>
   <polyline stroke="#262626" fill="none" points="355.657,114.135 352.616,114.135" stroke-linejoin="miter" stroke-linecap="butt" stroke-width="0.5"/>
   <polyline stroke="#262626" fill="none" points="51.0889,68.0677 54.1302,68.0677" stroke-linejoin="miter" stroke-linecap="butt" stroke-width="0.5"/>
   <polyline stroke="#262626" fill="none" points="355.657,68.0677 352.616,68.0677" stroke-linejoin="miter" stroke-linecap="butt" stroke-width="0.5"/>
   <polyline stroke="#262626" fill="none" points="51.0889,22.0005 54.1302,22.0005" stroke-linejoin="miter" stroke-linecap="butt" stroke-width="0.5"/>
   <polyline stroke="#262626" fill="none" points="355.657,22.0005 352.616,22.0005" stroke-linejoin="miter" stroke-linecap="butt" stroke-width="0.5"/>
   <polyline stroke="#262626" fill="none" points="51.0889,22.0005 51.0889,25.0506" stroke-linejoin="miter" stroke-linecap="butt" stroke-width="0.5"/>
   <polyline stroke="#262626" fill="none" points="51.0889,252.336 51.0889,249.286" stroke-linejoin="miter" stroke-linecap="butt" stroke-width="0.5"/>
   <polyline stroke="#262626" fill="none" points="355.657,252.336 355.657,22.0005" stroke-linejoin="miter" stroke-opacity="0.15" stroke-linecap="butt" stroke-dasharray="16,0" stroke-width="0.5"/>
   <polyline stroke="#262626" fill="none" points="294.743,252.336 294.743,22.0005" stroke-linejoin="miter" stroke-opacity="0.15" stroke-linecap="butt" stroke-dasharray="16,0" stroke-width="0.5"/>
   <polyline stroke="#262626" fill="none" points="233.83,252.336 233.83,22.0005" stroke-linejoin="miter" stroke-opacity="0.15" stroke-linecap="butt" stroke-dasharray="16,0" stroke-width="0.5"/>
   <polyline stroke="#262626" fill="none" points="172.916,252.336 172.916,22.0005" stroke-linejoin="miter" stroke-opacity="0.15" stroke-linecap="butt" stroke-dasharray="16,0" stroke-width="0.5"/>
   <polyline stroke="#262626" fill="none" points="51.0889,252.336 355.657,252.336" stroke-linejoin="miter" stroke-linecap="square" stroke-dasharray="16,0" stroke-width="0.5"/>
   <polyline stroke="#262626" fill="none" points="51.0889,22.0005 355.657,22.0005" stroke-linejoin="miter" stroke-linecap="square" stroke-dasharray="16,0" stroke-width="0.5"/>
   <polyline stroke="#262626" fill="none" points="51.0889,252.336 51.0889,22.0005" stroke-linejoin="miter" stroke-linecap="square" stroke-dasharray="16,0" stroke-width="0.5"/>
   <polyline stroke="#262626" fill="none" points="355.657,252.336 355.657,22.0005" stroke-linejoin="miter" stroke-linecap="square" stroke-dasharray="16,0" stroke-width="0.5"/>
   <polyline stroke="#262626" fill="none" points="112.003,252.336 112.003,22.0005" stroke-linejoin="miter" stroke-opacity="0.15" stroke-linecap="butt" stroke-dasharray="16,0" stroke-width="0.5"/>
   <polyline stroke="#262626" fill="none" points="51.0889,252.336 51.0889,22.0005" stroke-linejoin="miter" stroke-opacity="0.15" stroke-linecap="butt" stroke-dasharray="16,0" stroke-width="0.5"/>
   <polyline stroke="#000000" fill="none" points="79.1186,205.269 78.5457,203.505 79.1186,201.742 80.6186,200.652" stroke-linejoin="round" stroke-linecap="round" stroke-width="0.5"/>
   <polyline stroke="#000000" fill="none" points="83.2853,201.242 82.4728,200.652" stroke-linejoin="round" stroke-linecap="round" stroke-width="0.5"/>
   <polyline stroke="#000000" fill="none" points="110.263,166.15 109.575,165.651 109.003,163.887" stroke-linejoin="round" stroke-linecap="round" stroke-width="0.5"/>
   <polyline stroke="#000000" fill="none" points="79.8061,205.768 79.1186,205.269" stroke-linejoin="round" stroke-linecap="round" stroke-width="0.5"/>
   <polyline stroke="#000000" fill="none" points="80.6186,200.652 82.4728,200.652" stroke-linejoin="round" stroke-linecap="round" stroke-width="0.5"/>
   <polyline stroke="#000000" fill="none" points="109.003,163.887 109.575,162.124 111.075,161.034 112.93,161.034" stroke-linejoin="round" stroke-linecap="round" stroke-width="0.5"/>
   <polyline stroke="#000000" fill="none" points="113.742,161.625 112.93,161.034" stroke-linejoin="round" stroke-linecap="round" stroke-width="0.5"/>
   <polyline stroke="#0000ff" fill="none" points="123.145,149.393 51.0889,186.072" stroke-linejoin="round" stroke-linecap="butt" stroke-width="0.5"/>
   <polyline stroke="#ff0000" fill="none" points="84.5914,199.543 84.5914,22.0005" stroke-linejoin="round" stroke-linecap="butt" stroke-dasharray="9,7" stroke-width="0.5"/>
   <polyline stroke="#ff00ff" fill="none" points="152.124,111.699 51.0889,22.0005" stroke-linejoin="round" stroke-linecap="butt" stroke-width="0.5"/>
   <polyline stroke="#ff00ff" fill="none" points="191.19,60.8811 191.19,22.0005" stroke-linejoin="round" stroke-linecap="butt" stroke-dasharray="9,7" stroke-width="0.5"/>
   <polyline stroke="#000000" fill="none" points="81.5457,203.505 112.003,163.887" stroke-linejoin="round" stroke-linecap="butt" stroke-width="0.5"/>
   <polyline stroke="#000000" fill="none" points="53.5159,254.1 52.0159,255.19" stroke-linejoin="round" stroke-linecap="round" stroke-width="0.5"/>
   <polyline stroke="#000000" fill="none" points="50.1618,255.19 48.6618,254.1" stroke-linejoin="round" stroke-linecap="round" stroke-width="0.5"/>
   <polyline stroke="#000000" fill="none" points="48.0889,252.336 48.6618,250.573" stroke-linejoin="round" stroke-linecap="round" stroke-width="0.5"/>
   <polyline stroke="#000000" fill="none" points="57.3511,242.296 51.0889,252.336" stroke-linejoin="round" stroke-linecap="butt" stroke-width="0.5"/>
   <polyline stroke="#000000" fill="none" points="52.0159,249.483 53.5159,250.573" stroke-linejoin="round" stroke-linecap="round" stroke-width="0.5"/>
   <polyline stroke="#000000" fill="none" points="52.0159,255.19 50.1618,255.19" stroke-linejoin="round" stroke-linecap="round" stroke-width="0.5"/>
   <polyline stroke="#000000" fill="none" points="53.5159,250.573 54.0889,252.336" stroke-linejoin="round" stroke-linecap="round" stroke-width="0.5"/>
   <polyline stroke="#000000" fill="none" points="48.6618,254.1 48.0889,252.336" stroke-linejoin="round" stroke-linecap="round" stroke-width="0.5"/>
   <polyline stroke="#000000" fill="none" points="55.0662,249.328 51.0889,252.336" stroke-linejoin="round" stroke-linecap="butt" stroke-dasharray="9,7" stroke-width="0.5"/>
   <polyline stroke="#000000" fill="none" points="48.6618,250.573 50.1618,249.483 52.0159,249.483" stroke-linejoin="round" stroke-linecap="round" stroke-width="0.5"/>
   <polyline stroke="#000000" fill="none" points="54.0889,252.336 53.5159,254.1" stroke-linejoin="round" stroke-linecap="round" stroke-width="0.5"/>
   <polyline stroke="#000000" fill="none" points="80.032,205.932 79.8061,205.768" stroke-linejoin="round" stroke-linecap="round" stroke-width="0.5"/>
   <polyline stroke="#000000" fill="none" points="57.3511,242.296 81.5457,203.505" stroke-linejoin="round" stroke-linecap="butt" stroke-width="0.5"/>
   <polyline stroke="#000000" fill="none" points="80.032,205.932 80.6186,206.358" stroke-linejoin="round" stroke-linecap="round" stroke-width="0.5"/>
   <polyline stroke="#000000" fill="none" points="83.2853,201.242 83.9727,201.742 84.5457,203.505" stroke-linejoin="round" stroke-linecap="round" stroke-width="0.5"/>
   <polyline stroke="#000000" fill="none" points="74.4101,234.699 55.0662,249.328" stroke-linejoin="round" stroke-linecap="butt" stroke-dasharray="9,7" stroke-width="0.5"/>
   <polyline stroke="#ff0000" fill="none" points="72.0065,242.097 63.2788,252.567" stroke-linejoin="round" stroke-linecap="butt" stroke-width="0.5"/>
   <polyline stroke="#ff0000" fill="none" points="84.5914,203.365 84.5914,199.543" stroke-linejoin="round" stroke-linecap="butt" stroke-dasharray="9,7" stroke-width="0.5"/>
   <polyline stroke="#000000" fill="none" points="83.9727,205.269 82.4728,206.358 80.6186,206.358" stroke-linejoin="round" stroke-linecap="round" stroke-width="0.5"/>
   <polyline stroke="#00ffff" fill="none" points="85.833,199.543 84.5914,199.543" stroke-linejoin="round" stroke-linecap="butt" stroke-width="0.5"/>
   <polyline stroke="#00ffff" fill="none" points="84.5914,203.365 84.5914,199.543" stroke-linejoin="round" stroke-linecap="butt" stroke-width="0.5"/>
   <polyline stroke="#000000" fill="none" points="84.5457,203.505 83.9727,205.269" stroke-linejoin="round" stroke-linecap="round" stroke-width="0.5"/>
   <polyline stroke="#000000" fill="none" points="294.743,35.36 325.2,27.9892" stroke-linejoin="round" stroke-linecap="butt" stroke-width="0.5"/>
   <polyline stroke="#000000" fill="none" points="112.003,163.887 142.459,130.489 172.916,102.388" stroke-linejoin="round" stroke-linecap="butt" stroke-width="0.5"/>
   <polyline stroke="#000000" fill="none" points="325.2,27.9892 355.657,22.0005" stroke-linejoin="round" stroke-linecap="butt" stroke-width="0.5"/>
   <polyline stroke="#000000" fill="none" points="172.916,102.388 203.373,79.1238 233.83,60.4666" stroke-linejoin="round" stroke-linecap="butt" stroke-width="0.5"/>
   <polyline stroke="#000000" fill="none" points="115.003,163.887 114.43,165.651" stroke-linejoin="round" stroke-linecap="round" stroke-width="0.5"/>
   <polyline stroke="#000000" fill="none" points="112.93,166.741 111.075,166.741" stroke-linejoin="round" stroke-linecap="round" stroke-width="0.5"/>
   <polyline stroke="#000000" fill="none" points="264.287,46.1858 294.743,35.36" stroke-linejoin="round" stroke-linecap="butt" stroke-width="0.5"/>
   <polyline stroke="#000000" fill="none" points="114.43,165.651 112.93,166.741" stroke-linejoin="round" stroke-linecap="round" stroke-width="0.5"/>
   <polyline stroke="#000000" fill="none" points="110.263,166.15 111.075,166.741" stroke-linejoin="round" stroke-linecap="round" stroke-width="0.5"/>
   <polyline stroke="#000000" fill="none" points="113.742,161.625 114.43,162.124 115.003,163.887" stroke-linejoin="round" stroke-linecap="round" stroke-width="0.5"/>
   <polyline stroke="#000000" fill="none" points="145.459,130.489 144.886,132.252 143.386,133.342 141.532,133.342 140.032,132.252 139.459,130.489 140.032,128.725 141.532,127.636 143.386,127.636 144.886,128.725 145.459,130.489" stroke-linejoin="round" stroke-linecap="round" stroke-width="0.5"/>
   <polyline stroke="#000000" fill="none" points="175.916,102.388 175.343,104.151 173.843,105.241 171.989,105.241 170.489,104.151 169.916,102.388 170.489,100.624 171.989,99.5345 173.843,99.5345 175.343,100.624 175.916,102.388" stroke-linejoin="round" stroke-linecap="round" stroke-width="0.5"/>
   <polyline stroke="#000000" fill="none" points="206.373,79.1238 205.8,80.8871 204.3,81.9769 202.446,81.9769 200.946,80.8871 200.373,79.1238 200.946,77.3604 202.446,76.2706 204.3,76.2706 205.8,77.3604 206.373,79.1238" stroke-linejoin="round" stroke-linecap="round" stroke-width="0.5"/>
   <polyline stroke="#000000" fill="none" points="236.83,60.4666 236.257,62.2299 234.757,63.3198 232.903,63.3198 231.403,62.2299" stroke-linejoin="round" stroke-linecap="round" stroke-width="0.5"/>
   <polyline stroke="#000000" fill="none" points="231.226,61.6873 231.403,62.2299" stroke-linejoin="round" stroke-linecap="round" stroke-width="0.5"/>
   <polyline stroke="#000000" fill="none" points="236.433,59.2459 236.83,60.4666" stroke-linejoin="round" stroke-linecap="round" stroke-width="0.5"/>
   <polyline stroke="#000000" fill="none" points="267.287,46.1858 266.714,47.9491 265.214,49.0389 263.36,49.0389 261.86,47.9491" stroke-linejoin="round" stroke-linecap="round" stroke-width="0.5"/>
   <polyline stroke="#000000" fill="none" points="261.683,47.4064 261.86,47.9491" stroke-linejoin="round" stroke-linecap="round" stroke-width="0.5"/>
   <polyline stroke="#000000" fill="none" points="266.89,44.9651 267.287,46.1858" stroke-linejoin="round" stroke-linecap="round" stroke-width="0.5"/>
   <polyline stroke="#000000" fill="none" points="297.743,35.36 297.171,37.1233 295.671,38.2132 293.816,38.2132 292.316,37.1233 291.743,35.36 292.316,33.5966 293.816,32.5068 295.671,32.5068 297.171,33.5966 297.743,35.36" stroke-linejoin="round" stroke-linecap="round" stroke-width="0.5"/>
   <polyline stroke="#000000" fill="none" points="328.2,27.9892 327.627,29.7526 326.127,30.8424 324.273,30.8424 322.773,29.7526 322.2,27.9892 322.773,26.2259 324.273,25.136 326.127,25.136 327.627,26.2259 328.2,27.9892" stroke-linejoin="round" stroke-linecap="round" stroke-width="0.5"/>
   <polyline stroke="#000000" fill="none" points="358.657,22.0005 358.084,23.7639 356.584,24.8537 354.73,24.8537 353.23,23.7639 352.657,22.0005 353.23,20.2372 354.73,19.1473 356.584,19.1473 358.084,20.2372 358.657,22.0005" stroke-linejoin="round" stroke-linecap="round" stroke-width="0.5"/>
   <polyline stroke="#000000" fill="none" points="74.4101,234.699 355.657,22.0005" stroke-linejoin="round" stroke-linecap="butt" stroke-dasharray="9,7" stroke-width="0.5"/>
   <polyline stroke="#0000ff" fill="none" points="123.145,149.393 355.657,31.0365" stroke-linejoin="round" stroke-linecap="butt" stroke-width="0.5"/>
   <polyline stroke="#0000ff" fill="none" points="319.109,252.336 319.109,22.0005" stroke-linejoin="round" stroke-linecap="butt" stroke-dasharray="9,7" stroke-width="0.5"/>
   <polyline stroke="#ff0000" fill="none" points="216.726,68.4866 72.0065,242.097" stroke-linejoin="round" stroke-linecap="butt" stroke-width="0.5"/>
   <polyline stroke="#ff0000" fill="none" points="84.5914,203.365 84.5914,252.336" stroke-linejoin="round" stroke-linecap="butt" stroke-dasharray="9,7" stroke-width="0.5"/>
   <polyline stroke="#ff00ff" fill="none" points="152.124,111.699 310.795,252.567" stroke-linejoin="round" stroke-linecap="butt" stroke-width="0.5"/>
   <polyline stroke="#ff00ff" fill="none" points="191.19,80.4597 191.19,252.336" stroke-linejoin="round" stroke-linecap="butt" stroke-dasharray="9,7" stroke-width="0.5"/>
   <polyline stroke="#00ffff" fill="none" points="347.978,34.9453 296.457,34.9453 296.457,61.1714 232.679,61.1714 232.679,93.6364 184.373,93.6364 184.373,118.226 155.75,118.226 155.75,141.635 132.295,141.635 132.295,169.772 107.478,169.772 107.478,199.543" stroke-linejoin="round" stroke-linecap="butt" stroke-width="0.5"/>
   <polyline stroke="#00ffff" fill="none" points="85.833,199.543 107.478,199.543" stroke-linejoin="round" stroke-linecap="butt" stroke-width="0.5"/>
   <polyline stroke="#00ffff" fill="none" points="84.5914,203.365 84.5914,226.999" stroke-linejoin="round" stroke-linecap="butt" stroke-width="0.5"/>
   <polyline stroke="#000000" fill="none" points="233.83,60.4666 264.287,46.1858" stroke-linejoin="round" stroke-linecap="butt" stroke-width="0.5"/>
   <polyline stroke="#000000" fill="none" points="234.757,57.6134 236.257,58.7032" stroke-linejoin="round" stroke-linecap="round" stroke-width="0.5"/>
   <polyline stroke="#000000" fill="none" points="236.433,59.2459 236.257,58.7032" stroke-linejoin="round" stroke-linecap="round" stroke-width="0.5"/>
   <polyline stroke="#000000" fill="none" points="261.683,47.4064 261.287,46.1858 261.86,44.4224" stroke-linejoin="round" stroke-linecap="round" stroke-width="0.5"/>
   <polyline stroke="#000000" fill="none" points="231.226,61.6873 230.83,60.4666" stroke-linejoin="round" stroke-linecap="round" stroke-width="0.5"/>
   <polyline stroke="#000000" fill="none" points="261.86,44.4224 263.36,43.3326" stroke-linejoin="round" stroke-linecap="round" stroke-width="0.5"/>
   <polyline stroke="#000000" fill="none" points="230.83,60.4666 231.403,58.7032" stroke-linejoin="round" stroke-linecap="round" stroke-width="0.5"/>
   <polyline stroke="#000000" fill="none" points="232.903,57.6134 234.757,57.6134" stroke-linejoin="round" stroke-linecap="round" stroke-width="0.5"/>
   <polyline stroke="#000000" fill="none" points="263.36,43.3326 265.214,43.3326 266.714,44.4224" stroke-linejoin="round" stroke-linecap="round" stroke-width="0.5"/>
   <polyline stroke="#000000" fill="none" points="266.89,44.9651 266.714,44.4224" stroke-linejoin="round" stroke-linecap="round" stroke-width="0.5"/>
   <polyline stroke="#000000" fill="none" points="231.403,58.7032 232.903,57.6134" stroke-linejoin="round" stroke-linecap="round" stroke-width="0.5"/>
   <polyline stroke="#ff0000" fill="none" points="216.726,68.4866 255.668,21.7701" stroke-linejoin="round" stroke-linecap="butt" stroke-width="0.5"/>
   <polyline stroke="#ff00ff" fill="none" points="191.19,80.4597 191.19,60.8811" stroke-linejoin="round" stroke-linecap="butt" stroke-dasharray="9,7" stroke-width="0.5"/>
  </g>
 </g>
</svg>
