<?xml version='1.0' encoding='UTF-8' standalone='no'?>
<svg xmlns="http://www.w3.org/2000/svg" height="293pt" viewBox="0 0 392 293" xmlns:xlink="http://www.w3.org/1999/xlink" width="392pt">
 <title>Figure 1</title>
 <desc>
Creator: GL2PS 1.4.2, (C) 1999-2020 C. Geuzaine
For: Octave
CreationDate: Mon Nov 21 11:00:28 2022
</desc>
 <defs/>
 <polygon fill="#ffffff" points="0,0 392,0 392,293 0,293"/>
 <g>
  <polygon fill="#ffffff" points="0,293 392,293 392,0 0,0" shape-rendering="crispEdges"/>
  <clipPath id="cp00392293">
   <polygon points="0,293 392,293 392,0 0,0"/>
  </clipPath>
  <g clip-path="url(#cp00392293)">
   <polygon fill="#ffffff" points="355.657,255.087 355.657,22.0005 51.0889,22.0005 51.0889,255.087" shape-rendering="crispEdges"/>
   <g transform="translate(35.5995,28.0005) rotate(-0,8,-6)" font-weight="normal" xml:space="preserve" font-style="normal" font-size="15" font-family="FreeSans">
    <text fill="rgb(38,38,38)" y="-0" x="0 ">1</text>
   </g>
   <g transform="translate(23.5995,74.6177) rotate(-0,20,-6)" font-weight="normal" xml:space="preserve" font-style="normal" font-size="15" font-family="FreeSans">
    <text fill="rgb(38,38,38)" y="-0" x="0 8 12 ">0.8</text>
   </g>
   <g transform="translate(23.5995,121.235) rotate(-0,20,-6)" font-weight="normal" xml:space="preserve" font-style="normal" font-size="15" font-family="FreeSans">
    <text fill="rgb(38,38,38)" y="-0" x="0 8 12 ">0.6</text>
   </g>
   <g transform="translate(23.5995,167.852) rotate(-0,20,-6)" font-weight="normal" xml:space="preserve" font-style="normal" font-size="15" font-family="FreeSans">
    <text fill="rgb(38,38,38)" y="-0" x="0 8 12 ">0.4</text>
   </g>
   <g transform="translate(23.5995,214.469) rotate(-0,20,-6)" font-weight="normal" xml:space="preserve" font-style="normal" font-size="15" font-family="FreeSans">
    <text fill="rgb(38,38,38)" y="-0" x="0 8 12 ">0.2</text>
   </g>
   <g transform="translate(35.5995,261.087) rotate(-0,8,-6)" font-weight="normal" xml:space="preserve" font-style="normal" font-size="15" font-family="FreeSans">
    <text fill="rgb(38,38,38)" y="-0" x="0 ">0</text>
   </g>
   <g transform="translate(14.0995,138.544) rotate(-90,4.5,0)" font-weight="normal" xml:space="preserve" font-style="italic" font-size="16.5" font-family="FreeSans">
    <text fill="rgb(38,38,38)" y="-4" x="0 ">y</text>
   </g>
   <g transform="translate(198.873,293.341) rotate(-0,4.5,-10)" font-weight="normal" xml:space="preserve" font-style="italic" font-size="16.5" font-family="FreeSans">
    <text fill="rgb(38,38,38)" y="-0" x="0 ">x</text>
   </g>
   <g transform="translate(351.657,278.341) rotate(-0,4,-12)" font-weight="normal" xml:space="preserve" font-style="normal" font-size="15" font-family="FreeSans">
    <text fill="rgb(38,38,38)" y="-0" x="0 ">1</text>
   </g>
   <g transform="translate(284.744,278.341) rotate(-0,10,-12)" font-weight="normal" xml:space="preserve" font-style="normal" font-size="15" font-family="FreeSans">
    <text fill="rgb(38,38,38)" y="-0" x="0 8 12 ">0.8</text>
   </g>
   <g transform="translate(223.83,278.341) rotate(-0,10,-12)" font-weight="normal" xml:space="preserve" font-style="normal" font-size="15" font-family="FreeSans">
    <text fill="rgb(38,38,38)" y="-0" x="0 8 12 ">0.6</text>
   </g>
   <g transform="translate(162.916,278.341) rotate(-0,10,-12)" font-weight="normal" xml:space="preserve" font-style="normal" font-size="15" font-family="FreeSans">
    <text fill="rgb(38,38,38)" y="-0" x="0 8 12 ">0.4</text>
   </g>
   <g transform="translate(102.003,278.341) rotate(-0,10,-12)" font-weight="normal" xml:space="preserve" font-style="normal" font-size="15" font-family="FreeSans">
    <text fill="rgb(38,38,38)" y="-0" x="0 8 12 ">0.2</text>
   </g>
   <g transform="translate(47.0889,278.341) rotate(-0,4,-12)" font-weight="normal" xml:space="preserve" font-style="normal" font-size="15" font-family="FreeSans">
    <text fill="rgb(38,38,38)" y="-0" x="0 ">0</text>
   </g>
   <polyline fill="none" stroke-linejoin="miter" points="355.657,255.087 355.657,252.04" stroke-linecap="butt" stroke="#262626" stroke-width="0.5"/>
   <polyline fill="none" stroke-linejoin="miter" points="355.657,22.0005 355.657,25.0473" stroke-linecap="butt" stroke="#262626" stroke-width="0.5"/>
   <polyline fill="none" stroke-linejoin="miter" points="233.83,22.0005 233.83,25.0473" stroke-linecap="butt" stroke="#262626" stroke-width="0.5"/>
   <polyline fill="none" stroke-linejoin="miter" points="233.83,255.087 233.83,252.04" stroke-linecap="butt" stroke="#262626" stroke-width="0.5"/>
   <polyline fill="none" stroke-linejoin="miter" points="172.916,22.0005 172.916,25.0473" stroke-linecap="butt" stroke="#262626" stroke-width="0.5"/>
   <polyline fill="none" stroke-linejoin="miter" points="172.916,255.087 172.916,252.04" stroke-linecap="butt" stroke="#262626" stroke-width="0.5"/>
   <polyline fill="none" stroke-linejoin="miter" points="294.743,255.087 294.743,252.04" stroke-linecap="butt" stroke="#262626" stroke-width="0.5"/>
   <polyline fill="none" stroke-linejoin="miter" points="294.743,22.0005 294.743,25.0473" stroke-linecap="butt" stroke="#262626" stroke-width="0.5"/>
   <polyline fill="none" stroke-linejoin="miter" points="112.003,22.0005 112.003,25.0473" stroke-linecap="butt" stroke="#262626" stroke-width="0.5"/>
   <polyline fill="none" stroke-linejoin="miter" points="112.003,255.087 112.003,252.04" stroke-linecap="butt" stroke="#262626" stroke-width="0.5"/>
   <polyline stroke-opacity="0.15" stroke-dasharray="16,0" fill="none" stroke-linejoin="miter" points="51.0889,255.087 355.657,255.087" stroke-linecap="butt" stroke="#262626" stroke-width="0.5"/>
   <polyline stroke-opacity="0.15" stroke-dasharray="16,0" fill="none" stroke-linejoin="miter" points="51.0889,208.469 355.657,208.469" stroke-linecap="butt" stroke="#262626" stroke-width="0.5"/>
   <polyline stroke-opacity="0.15" stroke-dasharray="16,0" fill="none" stroke-linejoin="miter" points="51.0889,161.852 355.657,161.852" stroke-linecap="butt" stroke="#262626" stroke-width="0.5"/>
   <polyline stroke-opacity="0.15" stroke-dasharray="16,0" fill="none" stroke-linejoin="miter" points="51.0889,115.235 355.657,115.235" stroke-linecap="butt" stroke="#262626" stroke-width="0.5"/>
   <polyline stroke-opacity="0.15" stroke-dasharray="16,0" fill="none" stroke-linejoin="miter" points="51.0889,68.6177 355.657,68.6177" stroke-linecap="butt" stroke="#262626" stroke-width="0.5"/>
   <polyline stroke-opacity="0.15" stroke-dasharray="16,0" fill="none" stroke-linejoin="miter" points="51.0889,22.0005 355.657,22.0005" stroke-linecap="butt" stroke="#262626" stroke-width="0.5"/>
   <polyline fill="none" stroke-linejoin="miter" points="51.0889,255.087 54.1302,255.087" stroke-linecap="butt" stroke="#262626" stroke-width="0.5"/>
   <polyline fill="none" stroke-linejoin="miter" points="355.657,255.087 352.616,255.087" stroke-linecap="butt" stroke="#262626" stroke-width="0.5"/>
   <polyline fill="none" stroke-linejoin="miter" points="51.0889,208.469 54.1302,208.469" stroke-linecap="butt" stroke="#262626" stroke-width="0.5"/>
   <polyline fill="none" stroke-linejoin="miter" points="355.657,208.469 352.616,208.469" stroke-linecap="butt" stroke="#262626" stroke-width="0.5"/>
   <polyline fill="none" stroke-linejoin="miter" points="51.0889,161.852 54.1302,161.852" stroke-linecap="butt" stroke="#262626" stroke-width="0.5"/>
   <polyline fill="none" stroke-linejoin="miter" points="355.657,161.852 352.616,161.852" stroke-linecap="butt" stroke="#262626" stroke-width="0.5"/>
   <polyline fill="none" stroke-linejoin="miter" points="51.0889,115.235 54.1302,115.235" stroke-linecap="butt" stroke="#262626" stroke-width="0.5"/>
   <polyline fill="none" stroke-linejoin="miter" points="355.657,115.235 352.616,115.235" stroke-linecap="butt" stroke="#262626" stroke-width="0.5"/>
   <polyline fill="none" stroke-linejoin="miter" points="51.0889,68.6177 54.1302,68.6177" stroke-linecap="butt" stroke="#262626" stroke-width="0.5"/>
   <polyline fill="none" stroke-linejoin="miter" points="355.657,68.6177 352.616,68.6177" stroke-linecap="butt" stroke="#262626" stroke-width="0.5"/>
   <polyline fill="none" stroke-linejoin="miter" points="51.0889,22.0005 54.1302,22.0005" stroke-linecap="butt" stroke="#262626" stroke-width="0.5"/>
   <polyline fill="none" stroke-linejoin="miter" points="355.657,22.0005 352.616,22.0005" stroke-linecap="butt" stroke="#262626" stroke-width="0.5"/>
   <polyline fill="none" stroke-linejoin="miter" points="51.0889,22.0005 51.0889,25.0473" stroke-linecap="butt" stroke="#262626" stroke-width="0.5"/>
   <polyline fill="none" stroke-linejoin="miter" points="51.0889,255.087 51.0889,252.04" stroke-linecap="butt" stroke="#262626" stroke-width="0.5"/>
   <polyline stroke-opacity="0.15" stroke-dasharray="16,0" fill="none" stroke-linejoin="miter" points="355.657,255.087 355.657,22.0005" stroke-linecap="butt" stroke="#262626" stroke-width="0.5"/>
   <polyline stroke-opacity="0.15" stroke-dasharray="16,0" fill="none" stroke-linejoin="miter" points="294.743,255.087 294.743,22.0005" stroke-linecap="butt" stroke="#262626" stroke-width="0.5"/>
   <polyline stroke-opacity="0.15" stroke-dasharray="16,0" fill="none" stroke-linejoin="miter" points="233.83,255.087 233.83,22.0005" stroke-linecap="butt" stroke="#262626" stroke-width="0.5"/>
   <polyline stroke-opacity="0.15" stroke-dasharray="16,0" fill="none" stroke-linejoin="miter" points="172.916,255.087 172.916,22.0005" stroke-linecap="butt" stroke="#262626" stroke-width="0.5"/>
   <polyline stroke-dasharray="16,0" fill="none" stroke-linejoin="miter" points="51.0889,255.087 355.657,255.087" stroke-linecap="square" stroke="#262626" stroke-width="0.5"/>
   <polyline stroke-dasharray="16,0" fill="none" stroke-linejoin="miter" points="51.0889,22.0005 355.657,22.0005" stroke-linecap="square" stroke="#262626" stroke-width="0.5"/>
   <polyline stroke-dasharray="16,0" fill="none" stroke-linejoin="miter" points="51.0889,255.087 51.0889,22.0005" stroke-linecap="square" stroke="#262626" stroke-width="0.5"/>
   <polyline stroke-dasharray="16,0" fill="none" stroke-linejoin="miter" points="355.657,255.087 355.657,22.0005" stroke-linecap="square" stroke="#262626" stroke-width="0.5"/>
   <polyline stroke-opacity="0.15" stroke-dasharray="16,0" fill="none" stroke-linejoin="miter" points="112.003,255.087 112.003,22.0005" stroke-linecap="butt" stroke="#262626" stroke-width="0.5"/>
   <polyline stroke-opacity="0.15" stroke-dasharray="16,0" fill="none" stroke-linejoin="miter" points="51.0889,255.087 51.0889,22.0005" stroke-linecap="butt" stroke="#262626" stroke-width="0.5"/>
   <polyline fill="none" stroke-linejoin="round" points="79.1186,207.436 78.5457,205.672 79.1186,203.909 80.6186,202.819" stroke-linecap="round" stroke="#000000" stroke-width="1.2"/>
   <polyline fill="none" stroke-linejoin="round" points="83.2721,203.4 82.4728,202.819" stroke-linecap="round" stroke="#000000" stroke-width="1.2"/>
   <polyline fill="none" stroke-linejoin="round" points="110.276,167.854 109.575,167.345 109.003,165.582" stroke-linecap="round" stroke="#000000" stroke-width="1.2"/>
   <polyline fill="none" stroke-linejoin="round" points="79.8193,207.945 79.1186,207.436" stroke-linecap="round" stroke="#000000" stroke-width="1.2"/>
   <polyline fill="none" stroke-linejoin="round" points="80.6186,202.819 82.4728,202.819" stroke-linecap="round" stroke="#000000" stroke-width="1.2"/>
   <polyline fill="none" stroke-linejoin="round" points="109.003,165.582 109.575,163.818 111.075,162.728 112.93,162.728" stroke-linecap="round" stroke="#000000" stroke-width="1.2"/>
   <polyline fill="none" stroke-linejoin="round" points="113.729,163.309 112.93,162.728" stroke-linecap="round" stroke="#000000" stroke-width="1.2"/>
   <polyline stroke-dasharray="8,3,2,3" fill="none" stroke-linejoin="round" points="123.145,150.914 51.0889,188.031" stroke-linecap="butt" stroke="#0000ff" stroke-width="1.2"/>
   <polyline stroke-dasharray="9,7" fill="none" stroke-linejoin="round" points="84.5914,201.663 84.5914,22.0005" stroke-linecap="butt" stroke="#ff0000" stroke-width="0.5"/>
   <polyline stroke-dasharray="8,3,2,3" fill="none" stroke-linejoin="round" points="152.124,112.77 51.0889,22.0005" stroke-linecap="butt" stroke="#ff00ff" stroke-width="1.2"/>
   <polyline stroke-dasharray="9,7" fill="none" stroke-linejoin="round" points="191.19,61.3454 191.19,22.0005" stroke-linecap="butt" stroke="#ff00ff" stroke-width="0.5"/>
   <polyline fill="none" stroke-linejoin="round" points="81.5457,205.672 112.003,165.582" stroke-linecap="butt" stroke="#000000" stroke-width="1.2"/>
   <polyline fill="none" stroke-linejoin="round" points="50.1618,257.94 48.6618,256.85" stroke-linecap="round" stroke="#000000" stroke-width="1.2"/>
   <polyline fill="none" stroke-linejoin="round" points="48.0889,255.087 48.6618,253.323" stroke-linecap="round" stroke="#000000" stroke-width="1.2"/>
   <polyline fill="none" stroke-linejoin="round" points="57.4335,244.793 51.0889,255.087" stroke-linecap="butt" stroke="#000000" stroke-width="1.2"/>
   <polyline fill="none" stroke-linejoin="round" points="52.0159,252.233 53.5159,253.323" stroke-linecap="round" stroke="#000000" stroke-width="1.2"/>
   <polyline fill="none" stroke-linejoin="round" points="52.0159,257.94 50.1618,257.94" stroke-linecap="round" stroke="#000000" stroke-width="1.2"/>
   <polyline fill="none" stroke-linejoin="round" points="53.5159,253.323 54.0889,255.087" stroke-linecap="round" stroke="#000000" stroke-width="1.2"/>
   <polyline fill="none" stroke-linejoin="round" points="48.6618,256.85 48.0889,255.087" stroke-linecap="round" stroke="#000000" stroke-width="1.2"/>
   <polyline stroke-dasharray="9,7" fill="none" stroke-linejoin="round" points="55.0817,252.031 51.0889,255.087" stroke-linecap="butt" stroke="#000000" stroke-width="0.5"/>
   <polyline fill="none" stroke-linejoin="round" points="48.6618,253.323 50.1618,252.233 52.0159,252.233" stroke-linecap="round" stroke="#000000" stroke-width="1.2"/>
   <polyline fill="none" stroke-linejoin="round" points="53.5159,256.85 52.0159,257.94" stroke-linecap="round" stroke="#000000" stroke-width="1.2"/>
   <polyline fill="none" stroke-linejoin="round" points="54.0889,255.087 53.5159,256.85" stroke-linecap="round" stroke="#000000" stroke-width="1.2"/>
   <polyline fill="none" stroke-linejoin="round" points="80.0443,208.108 79.8193,207.945" stroke-linecap="round" stroke="#000000" stroke-width="1.2"/>
   <polyline fill="none" stroke-linejoin="round" points="57.4335,244.793 81.5457,205.672" stroke-linecap="butt" stroke="#000000" stroke-width="1.2"/>
   <polyline fill="none" stroke-linejoin="round" points="80.0443,208.108 80.6186,208.525" stroke-linecap="round" stroke="#000000" stroke-width="1.2"/>
   <polyline fill="none" stroke-linejoin="round" points="83.2721,203.4 83.9727,203.909 84.5457,205.672" stroke-linecap="round" stroke="#000000" stroke-width="1.2"/>
   <polyline stroke-dasharray="9,7" fill="none" stroke-linejoin="round" points="74.249,237.362 55.0817,252.031" stroke-linecap="butt" stroke="#000000" stroke-width="0.5"/>
   <polyline stroke-dasharray="8,3,2,3" fill="none" stroke-linejoin="round" points="71.7593,245.025 63.2788,255.32" stroke-linecap="butt" stroke="#ff0000" stroke-width="1.2"/>
   <polyline stroke-dasharray="9,7" fill="none" stroke-linejoin="round" points="84.5914,205.532 84.5914,201.663" stroke-linecap="butt" stroke="#ff0000" stroke-width="0.5"/>
   <polyline fill="none" stroke-linejoin="round" points="83.9727,207.436 82.4728,208.525 80.6186,208.525" stroke-linecap="round" stroke="#000000" stroke-width="1.2"/>
   <polyline fill="none" stroke-linejoin="round" points="85.8483,201.663 84.5914,201.663" stroke-linecap="butt" stroke="#00ff00" stroke-width="0.5"/>
   <polyline fill="none" stroke-linejoin="round" points="84.5914,205.532 84.5914,201.663" stroke-linecap="butt" stroke="#00ff00" stroke-width="0.5"/>
   <polyline fill="none" stroke-linejoin="round" points="84.5457,205.672 83.9727,207.436" stroke-linecap="round" stroke="#000000" stroke-width="1.2"/>
   <polyline fill="none" stroke-linejoin="round" points="294.743,35.5195 325.2,28.0607" stroke-linecap="butt" stroke="#000000" stroke-width="1.2"/>
   <polyline fill="none" stroke-linejoin="round" points="112.003,165.582 142.459,131.784 172.916,103.348" stroke-linecap="butt" stroke="#000000" stroke-width="1.2"/>
   <polyline fill="none" stroke-linejoin="round" points="325.2,28.0607 355.657,22.0005" stroke-linecap="butt" stroke="#000000" stroke-width="1.2"/>
   <polyline fill="none" stroke-linejoin="round" points="172.916,103.348 203.373,79.8058 233.83,60.9259" stroke-linecap="butt" stroke="#000000" stroke-width="1.2"/>
   <polyline fill="none" stroke-linejoin="round" points="115.003,165.582 114.43,167.345" stroke-linecap="round" stroke="#000000" stroke-width="1.2"/>
   <polyline fill="none" stroke-linejoin="round" points="112.93,168.435 111.075,168.435" stroke-linecap="round" stroke="#000000" stroke-width="1.2"/>
   <polyline fill="none" stroke-linejoin="round" points="264.287,46.4745 294.743,35.5195" stroke-linecap="butt" stroke="#000000" stroke-width="1.2"/>
   <polyline fill="none" stroke-linejoin="round" points="114.43,167.345 112.93,168.435" stroke-linecap="round" stroke="#000000" stroke-width="1.2"/>
   <polyline fill="none" stroke-linejoin="round" points="110.276,167.854 111.075,168.435" stroke-linecap="round" stroke="#000000" stroke-width="1.2"/>
   <polyline fill="none" stroke-linejoin="round" points="113.729,163.309 114.43,163.818 115.003,165.582" stroke-linecap="round" stroke="#000000" stroke-width="1.2"/>
   <polyline fill="none" stroke-linejoin="round" points="145.459,131.784 144.886,133.547 143.386,134.637 141.532,134.637 140.032,133.547 139.459,131.784 140.032,130.021 141.532,128.931 143.386,128.931 144.886,130.021 145.459,131.784" stroke-linecap="round" stroke="#000000" stroke-width="1.2"/>
   <polyline fill="none" stroke-linejoin="round" points="175.916,103.348 175.343,105.111 173.843,106.201 171.989,106.201 170.489,105.111 169.916,103.348 170.489,101.584 171.989,100.494 173.843,100.494 175.343,101.584 175.916,103.348" stroke-linecap="round" stroke="#000000" stroke-width="1.2"/>
   <polyline fill="none" stroke-linejoin="round" points="206.373,79.8058 205.8,81.5692 204.3,82.659 202.446,82.659 200.946,81.5692 200.373,79.8058 200.946,78.0425 202.446,76.9527 204.3,76.9527 205.8,78.0425 206.373,79.8058" stroke-linecap="round" stroke="#000000" stroke-width="1.2"/>
   <polyline fill="none" stroke-linejoin="round" points="236.83,60.9259 236.257,62.6892 234.757,63.7791 232.903,63.7791 231.403,62.6892" stroke-linecap="round" stroke="#000000" stroke-width="1.2"/>
   <polyline fill="none" stroke-linejoin="round" points="231.231,62.1592 231.403,62.6892" stroke-linecap="round" stroke="#000000" stroke-width="1.2"/>
   <polyline fill="none" stroke-linejoin="round" points="236.429,59.6926 236.83,60.9259" stroke-linecap="round" stroke="#000000" stroke-width="1.2"/>
   <polyline fill="none" stroke-linejoin="round" points="267.287,46.4745 266.714,48.2379 265.214,49.3277 263.36,49.3277 261.86,48.2379" stroke-linecap="round" stroke="#000000" stroke-width="1.2"/>
   <polyline fill="none" stroke-linejoin="round" points="261.687,47.7079 261.86,48.2379" stroke-linecap="round" stroke="#000000" stroke-width="1.2"/>
   <polyline fill="none" stroke-linejoin="round" points="266.886,45.2412 267.287,46.4745" stroke-linecap="round" stroke="#000000" stroke-width="1.2"/>
   <polyline fill="none" stroke-linejoin="round" points="297.743,35.5195 297.171,37.2828 295.671,38.3727 293.816,38.3727 292.316,37.2828 291.743,35.5195 292.316,33.7561 293.816,32.6663 295.671,32.6663 297.171,33.7561 297.743,35.5195" stroke-linecap="round" stroke="#000000" stroke-width="1.2"/>
   <polyline fill="none" stroke-linejoin="round" points="328.2,28.0607 327.627,29.8241 326.127,30.9139 324.273,30.9139 322.773,29.8241 322.2,28.0607 322.773,26.2974 324.273,25.2076 326.127,25.2076 327.627,26.2974 328.2,28.0607" stroke-linecap="round" stroke="#000000" stroke-width="1.2"/>
   <polyline fill="none" stroke-linejoin="round" points="358.657,22.0005 358.084,23.7639 356.584,24.8537 354.73,24.8537 353.23,23.7639 352.657,22.0005 353.23,20.2372 354.73,19.1473 356.584,19.1473 358.084,20.2372 358.657,22.0005" stroke-linecap="round" stroke="#000000" stroke-width="1.2"/>
   <polyline stroke-dasharray="9,7" fill="none" stroke-linejoin="round" points="74.249,237.362 355.657,22.0005" stroke-linecap="butt" stroke="#000000" stroke-width="0.5"/>
   <polyline stroke-dasharray="8,3,2,3" fill="none" stroke-linejoin="round" points="123.145,150.914 355.657,31.1444" stroke-linecap="butt" stroke="#0000ff" stroke-width="1.2"/>
   <polyline stroke-dasharray="9,7" fill="none" stroke-linejoin="round" points="319.109,255.087 319.109,22.0005" stroke-linecap="butt" stroke="#0000ff" stroke-width="0.5"/>
   <polyline stroke-dasharray="8,3,2,3" fill="none" stroke-linejoin="round" points="216.726,69.0416 71.7593,245.025" stroke-linecap="butt" stroke="#ff0000" stroke-width="1.2"/>
   <polyline stroke-dasharray="9,7" fill="none" stroke-linejoin="round" points="84.5914,205.532 84.5914,255.087" stroke-linecap="butt" stroke="#ff0000" stroke-width="0.5"/>
   <polyline stroke-dasharray="8,3,2,3" fill="none" stroke-linejoin="round" points="152.124,112.77 310.795,255.32" stroke-linecap="butt" stroke="#ff00ff" stroke-width="1.2"/>
   <polyline stroke-dasharray="9,7" fill="none" stroke-linejoin="round" points="191.19,81.1577 191.19,255.087" stroke-linecap="butt" stroke="#ff00ff" stroke-width="0.5"/>
   <polyline fill="none" stroke-linejoin="round" points="347.978,35.0998 296.457,35.0998 296.457,61.6391 232.679,61.6391 232.679,94.4918 184.373,94.4918 184.373,119.375 155.75,119.375 155.75,143.063 132.295,143.063 132.295,171.537 107.478,171.537 107.478,201.663" stroke-linecap="butt" stroke="#00ff00" stroke-width="0.5"/>
   <polyline fill="none" stroke-linejoin="round" points="85.8483,201.663 107.478,201.663" stroke-linecap="butt" stroke="#00ff00" stroke-width="0.5"/>
   <polyline fill="none" stroke-linejoin="round" points="84.5914,205.532 84.5914,229.447" stroke-linecap="butt" stroke="#00ff00" stroke-width="0.5"/>
   <polyline fill="none" stroke-linejoin="round" points="233.83,60.9259 264.287,46.4745" stroke-linecap="butt" stroke="#000000" stroke-width="1.2"/>
   <polyline fill="none" stroke-linejoin="round" points="234.757,58.0727 236.257,59.1625" stroke-linecap="round" stroke="#000000" stroke-width="1.2"/>
   <polyline fill="none" stroke-linejoin="round" points="236.429,59.6926 236.257,59.1625" stroke-linecap="round" stroke="#000000" stroke-width="1.2"/>
   <polyline fill="none" stroke-linejoin="round" points="261.687,47.7079 261.287,46.4745 261.86,44.7112" stroke-linecap="round" stroke="#000000" stroke-width="1.2"/>
   <polyline fill="none" stroke-linejoin="round" points="231.231,62.1592 230.83,60.9259" stroke-linecap="round" stroke="#000000" stroke-width="1.2"/>
   <polyline fill="none" stroke-linejoin="round" points="261.86,44.7112 263.36,43.6214" stroke-linecap="round" stroke="#000000" stroke-width="1.2"/>
   <polyline fill="none" stroke-linejoin="round" points="230.83,60.9259 231.403,59.1625" stroke-linecap="round" stroke="#000000" stroke-width="1.2"/>
   <polyline fill="none" stroke-linejoin="round" points="232.903,58.0727 234.757,58.0727" stroke-linecap="round" stroke="#000000" stroke-width="1.2"/>
   <polyline fill="none" stroke-linejoin="round" points="263.36,43.6214 265.214,43.6214 266.714,44.7112" stroke-linecap="round" stroke="#000000" stroke-width="1.2"/>
   <polyline fill="none" stroke-linejoin="round" points="266.886,45.2412 266.714,44.7112" stroke-linecap="round" stroke="#000000" stroke-width="1.2"/>
   <polyline fill="none" stroke-linejoin="round" points="231.403,59.1625 232.903,58.0727" stroke-linecap="round" stroke="#000000" stroke-width="1.2"/>
   <polyline stroke-dasharray="8,3,2,3" fill="none" stroke-linejoin="round" points="216.726,69.0416 255.668,21.7674" stroke-linecap="butt" stroke="#ff0000" stroke-width="1.2"/>
   <polyline stroke-dasharray="9,7" fill="none" stroke-linejoin="round" points="191.19,81.1577 191.19,61.3454" stroke-linecap="butt" stroke="#ff00ff" stroke-width="0.5"/>
  </g>
 </g>
</svg>
