<?xml version='1.0' encoding='UTF-8' standalone='no'?>
<svg width="585pt" viewBox="0 0 585 482" xmlns="http://www.w3.org/2000/svg" xmlns:xlink="http://www.w3.org/1999/xlink" height="482pt">
 <title>Figure 1</title>
 <desc>
Creator: GL2PS 1.4.2, (C) 1999-2020 C. Geuzaine
For: Octave
CreationDate: Sat Oct 15 23:57:31 2022
</desc>
 <defs/>
 <polygon fill="#ffffff" points="0,0 585,0 585,482 0,482"/>
 <g>
  <polygon fill="#ffffff" points="0,482 585,482 585,0 0,0" shape-rendering="crispEdges"/>
  <clipPath id="cp00585482">
   <polygon points="0,482 585,482 585,0 0,0"/>
  </clipPath>
  <g clip-path="url(#cp00585482)">
   <polygon fill="#ffffff" points="529.579,429.661 529.579,36.2074 76.0722,36.2074 76.0722,429.661" shape-rendering="crispEdges"/>
   <g font-style="normal" transform="translate(59.0809,42.7074) rotate(-0,9,-6.5)" font-size="16" font-family="FreeSans" font-weight="normal" xml:space="preserve">
    <text x="0 " fill="rgb(38,38,38)" y="-0">1</text>
   </g>
   <g font-style="normal" transform="translate(46.0809,121.398) rotate(-0,22,-6.5)" font-size="16" font-family="FreeSans" font-weight="normal" xml:space="preserve">
    <text x="0 9 13 " fill="rgb(38,38,38)" y="-0">0.8</text>
   </g>
   <g font-style="normal" transform="translate(46.0809,200.089) rotate(-0,22,-6.5)" font-size="16" font-family="FreeSans" font-weight="normal" xml:space="preserve">
    <text x="0 9 13 " fill="rgb(38,38,38)" y="-0">0.6</text>
   </g>
   <g font-style="normal" transform="translate(46.0809,278.78) rotate(-0,22,-6.5)" font-size="16" font-family="FreeSans" font-weight="normal" xml:space="preserve">
    <text x="0 9 13 " fill="rgb(38,38,38)" y="-0">0.4</text>
   </g>
   <g font-style="normal" transform="translate(46.0809,357.471) rotate(-0,22,-6.5)" font-size="16" font-family="FreeSans" font-weight="normal" xml:space="preserve">
    <text x="0 9 13 " fill="rgb(38,38,38)" y="-0">0.2</text>
   </g>
   <g font-style="normal" transform="translate(59.0809,436.161) rotate(-0,9,-6.5)" font-size="16" font-family="FreeSans" font-weight="normal" xml:space="preserve">
    <text x="0 " fill="rgb(38,38,38)" y="-0">0</text>
   </g>
   <g font-style="italic" transform="translate(36.0809,232.934) rotate(-90,5,0)" font-size="17.6" font-family="FreeSans" font-weight="normal" xml:space="preserve">
    <text x="0 " fill="rgb(38,38,38)" y="-4">y</text>
   </g>
   <g font-style="italic" transform="translate(297.826,470.675) rotate(-0,5,-11)" font-size="17.6" font-family="FreeSans" font-weight="normal" xml:space="preserve">
    <text x="0 " fill="rgb(38,38,38)" y="-0">x</text>
   </g>
   <g font-style="normal" transform="translate(525.079,454.675) rotate(-0,4.5,-13)" font-size="16" font-family="FreeSans" font-weight="normal" xml:space="preserve">
    <text x="0 " fill="rgb(38,38,38)" y="-0">1</text>
   </g>
   <g font-style="normal" transform="translate(427.878,454.675) rotate(-0,11,-13)" font-size="16" font-family="FreeSans" font-weight="normal" xml:space="preserve">
    <text x="0 9 13 " fill="rgb(38,38,38)" y="-0">0.8</text>
   </g>
   <g font-style="normal" transform="translate(337.176,454.675) rotate(-0,11,-13)" font-size="16" font-family="FreeSans" font-weight="normal" xml:space="preserve">
    <text x="0 9 13 " fill="rgb(38,38,38)" y="-0">0.6</text>
   </g>
   <g font-style="normal" transform="translate(246.475,454.675) rotate(-0,11,-13)" font-size="16" font-family="FreeSans" font-weight="normal" xml:space="preserve">
    <text x="0 9 13 " fill="rgb(38,38,38)" y="-0">0.4</text>
   </g>
   <g font-style="normal" transform="translate(155.774,454.675) rotate(-0,11,-13)" font-size="16" font-family="FreeSans" font-weight="normal" xml:space="preserve">
    <text x="0 9 13 " fill="rgb(38,38,38)" y="-0">0.2</text>
   </g>
   <g font-style="normal" transform="translate(71.5722,454.675) rotate(-0,4.5,-13)" font-size="16" font-family="FreeSans" font-weight="normal" xml:space="preserve">
    <text x="0 " fill="rgb(38,38,38)" y="-0">0</text>
   </g>
   <polyline fill="none" stroke="#262626" stroke-linejoin="miter" points="529.579,429.661 529.579,425.121" stroke-width="0.5" stroke-linecap="butt"/>
   <polyline fill="none" stroke="#262626" stroke-linejoin="miter" points="529.579,36.2074 529.579,40.7477" stroke-width="0.5" stroke-linecap="butt"/>
   <polyline fill="none" stroke="#262626" stroke-linejoin="miter" points="348.176,36.2074 348.176,40.7477" stroke-width="0.5" stroke-linecap="butt"/>
   <polyline fill="none" stroke="#262626" stroke-linejoin="miter" points="348.176,429.661 348.176,425.121" stroke-width="0.5" stroke-linecap="butt"/>
   <polyline fill="none" stroke="#262626" stroke-linejoin="miter" points="257.475,36.2074 257.475,40.7477" stroke-width="0.5" stroke-linecap="butt"/>
   <polyline fill="none" stroke="#262626" stroke-linejoin="miter" points="257.475,429.661 257.475,425.121" stroke-width="0.5" stroke-linecap="butt"/>
   <polyline fill="none" stroke="#262626" stroke-linejoin="miter" points="438.878,429.661 438.878,425.121" stroke-width="0.5" stroke-linecap="butt"/>
   <polyline fill="none" stroke="#262626" stroke-linejoin="miter" points="438.878,36.2074 438.878,40.7477" stroke-width="0.5" stroke-linecap="butt"/>
   <polyline fill="none" stroke="#262626" stroke-linejoin="miter" points="166.774,36.2074 166.774,40.7477" stroke-width="0.5" stroke-linecap="butt"/>
   <polyline fill="none" stroke="#262626" stroke-linejoin="miter" points="166.774,429.661 166.774,425.121" stroke-width="0.5" stroke-linecap="butt"/>
   <polyline fill="none" stroke="#262626" stroke-opacity="0.15" stroke-linejoin="miter" points="76.0722,429.661 529.579,429.661" stroke-width="0.5" stroke-linecap="butt" stroke-dasharray="16,0"/>
   <polyline fill="none" stroke="#262626" stroke-opacity="0.15" stroke-linejoin="miter" points="76.0722,350.971 529.579,350.971" stroke-width="0.5" stroke-linecap="butt" stroke-dasharray="16,0"/>
   <polyline fill="none" stroke="#262626" stroke-opacity="0.15" stroke-linejoin="miter" points="76.0722,272.28 529.579,272.28" stroke-width="0.5" stroke-linecap="butt" stroke-dasharray="16,0"/>
   <polyline fill="none" stroke="#262626" stroke-opacity="0.15" stroke-linejoin="miter" points="76.0722,193.589 529.579,193.589" stroke-width="0.5" stroke-linecap="butt" stroke-dasharray="16,0"/>
   <polyline fill="none" stroke="#262626" stroke-opacity="0.15" stroke-linejoin="miter" points="76.0722,114.898 529.579,114.898" stroke-width="0.5" stroke-linecap="butt" stroke-dasharray="16,0"/>
   <polyline fill="none" stroke="#262626" stroke-opacity="0.15" stroke-linejoin="miter" points="76.0722,36.2074 529.579,36.2074" stroke-width="0.5" stroke-linecap="butt" stroke-dasharray="16,0"/>
   <polyline fill="none" stroke="#262626" stroke-linejoin="miter" points="76.0722,429.661 80.6023,429.661" stroke-width="0.5" stroke-linecap="butt"/>
   <polyline fill="none" stroke="#262626" stroke-linejoin="miter" points="529.579,429.661 525.049,429.661" stroke-width="0.5" stroke-linecap="butt"/>
   <polyline fill="none" stroke="#262626" stroke-linejoin="miter" points="76.0722,350.971 80.6023,350.971" stroke-width="0.5" stroke-linecap="butt"/>
   <polyline fill="none" stroke="#262626" stroke-linejoin="miter" points="529.579,350.971 525.049,350.971" stroke-width="0.5" stroke-linecap="butt"/>
   <polyline fill="none" stroke="#262626" stroke-linejoin="miter" points="76.0722,272.28 80.6023,272.28" stroke-width="0.5" stroke-linecap="butt"/>
   <polyline fill="none" stroke="#262626" stroke-linejoin="miter" points="529.579,272.28 525.049,272.28" stroke-width="0.5" stroke-linecap="butt"/>
   <polyline fill="none" stroke="#262626" stroke-linejoin="miter" points="76.0722,193.589 80.6023,193.589" stroke-width="0.5" stroke-linecap="butt"/>
   <polyline fill="none" stroke="#262626" stroke-linejoin="miter" points="529.579,193.589 525.049,193.589" stroke-width="0.5" stroke-linecap="butt"/>
   <polyline fill="none" stroke="#262626" stroke-linejoin="miter" points="76.0722,114.898 80.6023,114.898" stroke-width="0.5" stroke-linecap="butt"/>
   <polyline fill="none" stroke="#262626" stroke-linejoin="miter" points="529.579,114.898 525.049,114.898" stroke-width="0.5" stroke-linecap="butt"/>
   <polyline fill="none" stroke="#262626" stroke-linejoin="miter" points="76.0722,36.2074 80.6023,36.2074" stroke-width="0.5" stroke-linecap="butt"/>
   <polyline fill="none" stroke="#262626" stroke-linejoin="miter" points="529.579,36.2074 525.049,36.2074" stroke-width="0.5" stroke-linecap="butt"/>
   <polyline fill="none" stroke="#262626" stroke-linejoin="miter" points="76.0722,36.2074 76.0722,40.7477" stroke-width="0.5" stroke-linecap="butt"/>
   <polyline fill="none" stroke="#262626" stroke-linejoin="miter" points="76.0722,429.661 76.0722,425.121" stroke-width="0.5" stroke-linecap="butt"/>
   <polyline fill="none" stroke="#262626" stroke-opacity="0.15" stroke-linejoin="miter" points="529.579,429.661 529.579,36.2074" stroke-width="0.5" stroke-linecap="butt" stroke-dasharray="16,0"/>
   <polyline fill="none" stroke="#262626" stroke-opacity="0.15" stroke-linejoin="miter" points="438.878,429.661 438.878,36.2074" stroke-width="0.5" stroke-linecap="butt" stroke-dasharray="16,0"/>
   <polyline fill="none" stroke="#262626" stroke-opacity="0.15" stroke-linejoin="miter" points="348.176,429.661 348.176,36.2074" stroke-width="0.5" stroke-linecap="butt" stroke-dasharray="16,0"/>
   <polyline fill="none" stroke="#262626" stroke-opacity="0.15" stroke-linejoin="miter" points="257.475,429.661 257.475,36.2074" stroke-width="0.5" stroke-linecap="butt" stroke-dasharray="16,0"/>
   <polyline fill="none" stroke="#262626" stroke-linejoin="miter" points="76.0722,429.661 529.579,429.661" stroke-width="0.5" stroke-linecap="square" stroke-dasharray="16,0"/>
   <polyline fill="none" stroke="#262626" stroke-linejoin="miter" points="76.0722,36.2074 529.579,36.2074" stroke-width="0.5" stroke-linecap="square" stroke-dasharray="16,0"/>
   <polyline fill="none" stroke="#262626" stroke-linejoin="miter" points="76.0722,429.661 76.0722,36.2074" stroke-width="0.5" stroke-linecap="square" stroke-dasharray="16,0"/>
   <polyline fill="none" stroke="#262626" stroke-linejoin="miter" points="529.579,429.661 529.579,36.2074" stroke-width="0.5" stroke-linecap="square" stroke-dasharray="16,0"/>
   <polyline fill="none" stroke="#262626" stroke-opacity="0.15" stroke-linejoin="miter" points="166.774,429.661 166.774,36.2074" stroke-width="0.5" stroke-linecap="butt" stroke-dasharray="16,0"/>
   <polyline fill="none" stroke="#262626" stroke-opacity="0.15" stroke-linejoin="miter" points="76.0722,429.661 76.0722,36.2074" stroke-width="0.5" stroke-linecap="butt" stroke-dasharray="16,0"/>
   <polyline fill="none" stroke="#000000" stroke-linejoin="round" points="118.996,348.013 118.423,346.249 118.996,344.486 120.496,343.396" stroke-width="0.5" stroke-linecap="round"/>
   <polyline fill="none" stroke="#000000" stroke-linejoin="round" points="123.012,343.877 122.35,343.396" stroke-width="0.5" stroke-linecap="round"/>
   <polyline fill="none" stroke="#000000" stroke-linejoin="round" points="165.184,280.947 164.347,280.339 163.774,278.575" stroke-width="0.5" stroke-linecap="round"/>
   <polyline fill="none" stroke="#000000" stroke-linejoin="round" points="119.833,348.621 118.996,348.013" stroke-width="0.5" stroke-linecap="round"/>
   <polyline fill="none" stroke="#000000" stroke-linejoin="round" points="120.496,343.396 122.35,343.396" stroke-width="0.5" stroke-linecap="round"/>
   <polyline fill="none" stroke="#000000" stroke-linejoin="round" points="163.774,278.575 164.347,276.812 165.847,275.722 167.701,275.722" stroke-width="0.5" stroke-linecap="round"/>
   <polyline fill="none" stroke="#000000" stroke-linejoin="round" points="168.363,276.203 167.701,275.722" stroke-width="0.5" stroke-linecap="round"/>
   <polyline fill="none" stroke="#0000ff" stroke-linejoin="round" points="183.366,253.816 76.0722,316.471" stroke-width="0.5" stroke-linecap="butt"/>
   <polyline fill="none" stroke="#ff0000" stroke-linejoin="round" points="125.958,339.482 125.958,36.2074" stroke-width="0.5" stroke-linecap="butt" stroke-dasharray="9,7"/>
   <polyline fill="none" stroke="#ff00ff" stroke-linejoin="round" points="226.514,189.428 76.0722,36.2074" stroke-width="0.5" stroke-linecap="butt"/>
   <polyline fill="none" stroke="#ff00ff" stroke-linejoin="round" points="284.685,102.622 284.685,36.2074" stroke-width="0.5" stroke-linecap="butt" stroke-dasharray="9,7"/>
   <polyline fill="none" stroke="#000000" stroke-linejoin="round" points="121.423,346.249 166.774,278.575" stroke-width="0.5" stroke-linecap="butt"/>
   <polyline fill="none" stroke="#000000" stroke-linejoin="round" points="75.1451,432.515 73.6451,431.425" stroke-width="0.5" stroke-linecap="round"/>
   <polyline fill="none" stroke="#000000" stroke-linejoin="round" points="73.0722,429.661 73.6451,427.898" stroke-width="0.5" stroke-linecap="round"/>
   <polyline fill="none" stroke="#000000" stroke-linejoin="round" points="83.5277,415.949 76.0722,429.661" stroke-width="0.5" stroke-linecap="butt"/>
   <polyline fill="none" stroke="#000000" stroke-linejoin="round" points="76.9992,426.808 78.4992,427.898" stroke-width="0.5" stroke-linecap="round"/>
   <polyline fill="none" stroke="#000000" stroke-linejoin="round" points="76.9992,432.515 75.1451,432.515" stroke-width="0.5" stroke-linecap="round"/>
   <polyline fill="none" stroke="#000000" stroke-linejoin="round" points="78.4992,427.898 79.0722,429.661" stroke-width="0.5" stroke-linecap="round"/>
   <polyline fill="none" stroke="#000000" stroke-linejoin="round" points="73.6451,431.425 73.0722,429.661" stroke-width="0.5" stroke-linecap="round"/>
   <polyline fill="none" stroke="#000000" stroke-linejoin="round" points="80.2498,426.037 76.0722,429.661" stroke-width="0.5" stroke-linecap="butt" stroke-dasharray="9,7"/>
   <polyline fill="none" stroke="#000000" stroke-linejoin="round" points="73.6451,427.898 75.1451,426.808 76.9992,426.808" stroke-width="0.5" stroke-linecap="round"/>
   <polyline fill="none" stroke="#000000" stroke-linejoin="round" points="78.4992,431.425 76.9992,432.515" stroke-width="0.5" stroke-linecap="round"/>
   <polyline fill="none" stroke="#000000" stroke-linejoin="round" points="79.0722,429.661 78.4992,431.425" stroke-width="0.5" stroke-linecap="round"/>
   <polyline fill="none" stroke="#000000" stroke-linejoin="round" points="120.048,348.777 119.833,348.621" stroke-width="0.5" stroke-linecap="round"/>
   <polyline fill="none" stroke="#000000" stroke-linejoin="round" points="83.5277,415.949 121.423,346.249" stroke-width="0.5" stroke-linecap="butt"/>
   <polyline fill="none" stroke="#000000" stroke-linejoin="round" points="120.048,348.777 120.496,349.102" stroke-width="0.5" stroke-linecap="round"/>
   <polyline fill="none" stroke="#000000" stroke-linejoin="round" points="123.012,343.877 123.85,344.486 124.423,346.249" stroke-width="0.5" stroke-linecap="round"/>
   <polyline fill="none" stroke="#000000" stroke-linejoin="round" points="105.662,403.99 80.2498,426.037" stroke-width="0.5" stroke-linecap="butt" stroke-dasharray="9,7"/>
   <polyline fill="none" stroke="#ff0000" stroke-linejoin="round" points="99.5948,422.663 94.2232,430.055" stroke-width="0.5" stroke-linecap="butt"/>
   <polyline fill="none" stroke="#ff0000" stroke-linejoin="round" points="125.958,341.525 125.958,339.482" stroke-width="0.5" stroke-linecap="butt" stroke-dasharray="9,7"/>
   <polyline fill="none" stroke="#000000" stroke-linejoin="round" points="123.85,348.013 122.35,349.102 120.496,349.102" stroke-width="0.5" stroke-linecap="round"/>
   <polyline fill="none" stroke="#00ffff" stroke-linejoin="round" points="126.622,339.482 125.958,339.482" stroke-width="0.5" stroke-linecap="butt"/>
   <polyline fill="none" stroke="#00ffff" stroke-linejoin="round" points="125.958,341.525 125.958,339.482" stroke-width="0.5" stroke-linecap="butt"/>
   <polyline fill="none" stroke="#000000" stroke-linejoin="round" points="124.423,346.249 123.85,348.013" stroke-width="0.5" stroke-linecap="round"/>
   <polyline fill="none" stroke="#000000" stroke-linejoin="round" points="438.878,59.0278 484.229,46.4372" stroke-width="0.5" stroke-linecap="butt"/>
   <polyline fill="none" stroke="#000000" stroke-linejoin="round" points="166.774,278.575 212.124,221.524 257.475,173.523" stroke-width="0.5" stroke-linecap="butt"/>
   <polyline fill="none" stroke="#000000" stroke-linejoin="round" points="484.229,46.4372 529.579,36.2074" stroke-width="0.5" stroke-linecap="butt"/>
   <polyline fill="none" stroke="#000000" stroke-linejoin="round" points="257.475,173.523 302.826,133.784 348.176,101.914" stroke-width="0.5" stroke-linecap="butt"/>
   <polyline fill="none" stroke="#000000" stroke-linejoin="round" points="169.774,278.575 169.201,280.339" stroke-width="0.5" stroke-linecap="round"/>
   <polyline fill="none" stroke="#000000" stroke-linejoin="round" points="167.701,281.428 165.847,281.428" stroke-width="0.5" stroke-linecap="round"/>
   <polyline fill="none" stroke="#000000" stroke-linejoin="round" points="393.527,77.5201 438.878,59.0278" stroke-width="0.5" stroke-linecap="butt"/>
   <polyline fill="none" stroke="#000000" stroke-linejoin="round" points="169.201,280.339 167.701,281.428" stroke-width="0.5" stroke-linecap="round"/>
   <polyline fill="none" stroke="#000000" stroke-linejoin="round" points="165.184,280.947 165.847,281.428" stroke-width="0.5" stroke-linecap="round"/>
   <polyline fill="none" stroke="#000000" stroke-linejoin="round" points="168.363,276.203 169.201,276.812 169.774,278.575" stroke-width="0.5" stroke-linecap="round"/>
   <polyline fill="none" stroke="#000000" stroke-linejoin="round" points="215.124,221.524 214.551,223.288 213.051,224.377 211.197,224.377 209.697,223.288 209.124,221.524 209.697,219.761 211.197,218.671 213.051,218.671 214.551,219.761 215.124,221.524" stroke-width="0.5" stroke-linecap="round"/>
   <polyline fill="none" stroke="#000000" stroke-linejoin="round" points="260.475,173.523 259.902,175.286 258.402,176.376 256.548,176.376 255.048,175.286 254.475,173.523 255.048,171.76 256.548,170.67 258.402,170.67 259.902,171.76 260.475,173.523" stroke-width="0.5" stroke-linecap="round"/>
   <polyline fill="none" stroke="#000000" stroke-linejoin="round" points="305.826,133.784 305.253,135.547 303.753,136.637 301.899,136.637 300.399,135.547 299.826,133.784 300.399,132.021 301.899,130.931 303.753,130.931 305.253,132.021 305.826,133.784" stroke-width="0.5" stroke-linecap="round"/>
   <polyline fill="none" stroke="#000000" stroke-linejoin="round" points="351.176,101.914 350.604,103.678 349.104,104.767 347.249,104.767 345.749,103.678" stroke-width="0.5" stroke-linecap="round"/>
   <polyline fill="none" stroke="#000000" stroke-linejoin="round" points="345.623,103.288 345.749,103.678" stroke-width="0.5" stroke-linecap="round"/>
   <polyline fill="none" stroke="#000000" stroke-linejoin="round" points="350.73,100.541 351.176,101.914" stroke-width="0.5" stroke-linecap="round"/>
   <polyline fill="none" stroke="#000000" stroke-linejoin="round" points="396.527,77.5201 395.954,79.2834 394.454,80.3733 392.6,80.3733 391.1,79.2834" stroke-width="0.5" stroke-linecap="round"/>
   <polyline fill="none" stroke="#000000" stroke-linejoin="round" points="390.974,78.8937 391.1,79.2834" stroke-width="0.5" stroke-linecap="round"/>
   <polyline fill="none" stroke="#000000" stroke-linejoin="round" points="396.081,76.1465 396.527,77.5201" stroke-width="0.5" stroke-linecap="round"/>
   <polyline fill="none" stroke="#000000" stroke-linejoin="round" points="441.878,59.0278 441.305,60.7911 439.805,61.8809 437.951,61.8809 436.451,60.7911 435.878,59.0278 436.451,57.2644 437.951,56.1746 439.805,56.1746 441.305,57.2644 441.878,59.0278" stroke-width="0.5" stroke-linecap="round"/>
   <polyline fill="none" stroke="#000000" stroke-linejoin="round" points="487.229,46.4372 486.656,48.2006 485.156,49.2904 483.302,49.2904 481.802,48.2006 481.229,46.4372 481.802,44.6739 483.302,43.5841 485.156,43.5841 486.656,44.6739 487.229,46.4372" stroke-width="0.5" stroke-linecap="round"/>
   <polyline fill="none" stroke="#000000" stroke-linejoin="round" points="532.579,36.2074 532.006,37.9708 530.506,39.0606 528.652,39.0606 527.152,37.9708 526.579,36.2074 527.152,34.4441 528.652,33.3542 530.506,33.3542 532.006,34.4441 532.579,36.2074" stroke-width="0.5" stroke-linecap="round"/>
   <polyline fill="none" stroke="#000000" stroke-linejoin="round" points="105.662,403.99 529.579,36.2074" stroke-width="0.5" stroke-linecap="butt" stroke-dasharray="9,7"/>
   <polyline fill="none" stroke="#0000ff" stroke-linejoin="round" points="183.366,253.816 529.579,51.6425" stroke-width="0.5" stroke-linecap="butt"/>
   <polyline fill="none" stroke="#0000ff" stroke-linejoin="round" points="475.158,429.661 475.158,36.2074" stroke-width="0.5" stroke-linecap="butt" stroke-dasharray="9,7"/>
   <polyline fill="none" stroke="#ff0000" stroke-linejoin="round" points="322.708,115.614 99.5948,422.663" stroke-width="0.5" stroke-linecap="butt"/>
   <polyline fill="none" stroke="#ff0000" stroke-linejoin="round" points="125.958,341.525 125.958,429.661" stroke-width="0.5" stroke-linecap="butt" stroke-dasharray="9,7"/>
   <polyline fill="none" stroke="#ff00ff" stroke-linejoin="round" points="226.514,189.428 462.779,430.055" stroke-width="0.5" stroke-linecap="butt"/>
   <polyline fill="none" stroke="#ff00ff" stroke-linejoin="round" points="284.685,136.066 284.685,429.661" stroke-width="0.5" stroke-linecap="butt" stroke-dasharray="9,7"/>
   <polyline fill="none" stroke="#00ffff" stroke-linejoin="round" points="518.146,58.3194 441.429,58.3194 441.429,103.118 346.463,103.118 346.463,158.574 274.535,158.574 274.535,200.577 231.915,200.577 231.915,240.564 196.99,240.564 196.99,288.628 160.037,288.628 160.037,339.482" stroke-width="0.5" stroke-linecap="butt"/>
   <polyline fill="none" stroke="#00ffff" stroke-linejoin="round" points="126.622,339.482 160.037,339.482" stroke-width="0.5" stroke-linecap="butt"/>
   <polyline fill="none" stroke="#00ffff" stroke-linejoin="round" points="125.958,341.525 125.958,386.382" stroke-width="0.5" stroke-linecap="butt"/>
   <polyline fill="none" stroke="#000000" stroke-linejoin="round" points="348.176,101.914 393.527,77.5201" stroke-width="0.5" stroke-linecap="butt"/>
   <polyline fill="none" stroke="#000000" stroke-linejoin="round" points="349.104,99.0611 350.604,100.151" stroke-width="0.5" stroke-linecap="round"/>
   <polyline fill="none" stroke="#000000" stroke-linejoin="round" points="350.73,100.541 350.604,100.151" stroke-width="0.5" stroke-linecap="round"/>
   <polyline fill="none" stroke="#000000" stroke-linejoin="round" points="390.974,78.8937 390.527,77.5201 391.1,75.7567" stroke-width="0.5" stroke-linecap="round"/>
   <polyline fill="none" stroke="#000000" stroke-linejoin="round" points="345.623,103.288 345.176,101.914" stroke-width="0.5" stroke-linecap="round"/>
   <polyline fill="none" stroke="#000000" stroke-linejoin="round" points="391.1,75.7567 392.6,74.6669" stroke-width="0.5" stroke-linecap="round"/>
   <polyline fill="none" stroke="#000000" stroke-linejoin="round" points="345.176,101.914 345.749,100.151" stroke-width="0.5" stroke-linecap="round"/>
   <polyline fill="none" stroke="#000000" stroke-linejoin="round" points="347.249,99.0611 349.104,99.0611" stroke-width="0.5" stroke-linecap="round"/>
   <polyline fill="none" stroke="#000000" stroke-linejoin="round" points="392.6,74.6669 394.454,74.6669 395.954,75.7567" stroke-width="0.5" stroke-linecap="round"/>
   <polyline fill="none" stroke="#000000" stroke-linejoin="round" points="396.081,76.1465 395.954,75.7567" stroke-width="0.5" stroke-linecap="round"/>
   <polyline fill="none" stroke="#000000" stroke-linejoin="round" points="345.749,100.151 347.249,99.0611" stroke-width="0.5" stroke-linecap="round"/>
   <polyline fill="none" stroke="#ff0000" stroke-linejoin="round" points="322.708,115.614 380.693,35.814" stroke-width="0.5" stroke-linecap="butt"/>
   <polyline fill="none" stroke="#ff00ff" stroke-linejoin="round" points="284.685,136.066 284.685,102.622" stroke-width="0.5" stroke-linecap="butt" stroke-dasharray="9,7"/>
  </g>
 </g>
</svg>
