<?xml version='1.0' encoding='UTF-8' standalone='no'?>
<svg xmlns:xlink="http://www.w3.org/1999/xlink" width="392pt" height="293pt" viewBox="0 0 392 293" xmlns="http://www.w3.org/2000/svg">
 <title>Figure 1</title>
 <desc>
Creator: GL2PS 1.4.2, (C) 1999-2020 C. Geuzaine
For: Octave
CreationDate: Mon Oct 10 11:24:19 2022
</desc>
 <defs/>
 <polygon fill="#ffffff" points="0,0 392,0 392,293 0,293"/>
 <g>
  <polygon fill="#ffffff" points="0,293 392,293 392,0 0,0" shape-rendering="crispEdges"/>
  <clipPath id="cp00392293">
   <polygon points="0,293 392,293 392,0 0,0"/>
  </clipPath>
  <g clip-path="url(#cp00392293)">
   <polygon fill="#ffffff" points="355.657,252.336 355.657,22.0005 51.0889,22.0005 51.0889,252.336" shape-rendering="crispEdges"/>
   <g font-size="16" xml:space="preserve" font-family="FreeSans" font-weight="normal" font-style="normal" transform="translate(34.1002,28.5005) rotate(-0,9,-6.5)">
    <text fill="rgb(38,38,38)" x="0 " y="-0">1</text>
   </g>
   <g font-size="16" xml:space="preserve" font-family="FreeSans" font-weight="normal" font-style="normal" transform="translate(21.1002,74.5677) rotate(-0,22,-6.5)">
    <text fill="rgb(38,38,38)" x="0 9 13 " y="-0">0.8</text>
   </g>
   <g font-size="16" xml:space="preserve" font-family="FreeSans" font-weight="normal" font-style="normal" transform="translate(21.1002,120.635) rotate(-0,22,-6.5)">
    <text fill="rgb(38,38,38)" x="0 9 13 " y="-0">0.6</text>
   </g>
   <g font-size="16" xml:space="preserve" font-family="FreeSans" font-weight="normal" font-style="normal" transform="translate(21.1002,166.702) rotate(-0,22,-6.5)">
    <text fill="rgb(38,38,38)" x="0 9 13 " y="-0">0.4</text>
   </g>
   <g font-size="16" xml:space="preserve" font-family="FreeSans" font-weight="normal" font-style="normal" transform="translate(21.1002,212.769) rotate(-0,22,-6.5)">
    <text fill="rgb(38,38,38)" x="0 9 13 " y="-0">0.2</text>
   </g>
   <g font-size="16" xml:space="preserve" font-family="FreeSans" font-weight="normal" font-style="normal" transform="translate(34.1002,258.836) rotate(-0,9,-6.5)">
    <text fill="rgb(38,38,38)" x="0 " y="-0">0</text>
   </g>
   <g font-size="17.6" xml:space="preserve" font-family="FreeSans" font-weight="normal" font-style="italic" transform="translate(11.1002,137.168) rotate(-90,5,0)">
    <text fill="rgb(38,38,38)" x="0 " y="-4">y</text>
   </g>
   <g font-size="17.6" xml:space="preserve" font-family="FreeSans" font-weight="normal" font-style="italic" transform="translate(198.373,293.354) rotate(-0,5,-11)">
    <text fill="rgb(38,38,38)" x="0 " y="-0">x</text>
   </g>
   <g font-size="16" xml:space="preserve" font-family="FreeSans" font-weight="normal" font-style="normal" transform="translate(351.157,277.354) rotate(-0,4.5,-13)">
    <text fill="rgb(38,38,38)" x="0 " y="-0">1</text>
   </g>
   <g font-size="16" xml:space="preserve" font-family="FreeSans" font-weight="normal" font-style="normal" transform="translate(283.744,277.354) rotate(-0,11,-13)">
    <text fill="rgb(38,38,38)" x="0 9 13 " y="-0">0.8</text>
   </g>
   <g font-size="16" xml:space="preserve" font-family="FreeSans" font-weight="normal" font-style="normal" transform="translate(222.83,277.354) rotate(-0,11,-13)">
    <text fill="rgb(38,38,38)" x="0 9 13 " y="-0">0.6</text>
   </g>
   <g font-size="16" xml:space="preserve" font-family="FreeSans" font-weight="normal" font-style="normal" transform="translate(161.916,277.354) rotate(-0,11,-13)">
    <text fill="rgb(38,38,38)" x="0 9 13 " y="-0">0.4</text>
   </g>
   <g font-size="16" xml:space="preserve" font-family="FreeSans" font-weight="normal" font-style="normal" transform="translate(101.003,277.354) rotate(-0,11,-13)">
    <text fill="rgb(38,38,38)" x="0 9 13 " y="-0">0.2</text>
   </g>
   <g font-size="16" xml:space="preserve" font-family="FreeSans" font-weight="normal" font-style="normal" transform="translate(46.5889,277.354) rotate(-0,4.5,-13)">
    <text fill="rgb(38,38,38)" x="0 " y="-0">0</text>
   </g>
   <polyline fill="none" points="355.657,252.336 355.657,249.286" stroke-linejoin="miter" stroke-linecap="butt" stroke="#262626" stroke-width="0.5"/>
   <polyline fill="none" points="355.657,22.0005 355.657,25.0506" stroke-linejoin="miter" stroke-linecap="butt" stroke="#262626" stroke-width="0.5"/>
   <polyline fill="none" points="233.83,22.0005 233.83,25.0506" stroke-linejoin="miter" stroke-linecap="butt" stroke="#262626" stroke-width="0.5"/>
   <polyline fill="none" points="233.83,252.336 233.83,249.286" stroke-linejoin="miter" stroke-linecap="butt" stroke="#262626" stroke-width="0.5"/>
   <polyline fill="none" points="172.916,22.0005 172.916,25.0506" stroke-linejoin="miter" stroke-linecap="butt" stroke="#262626" stroke-width="0.5"/>
   <polyline fill="none" points="172.916,252.336 172.916,249.286" stroke-linejoin="miter" stroke-linecap="butt" stroke="#262626" stroke-width="0.5"/>
   <polyline fill="none" points="294.743,252.336 294.743,249.286" stroke-linejoin="miter" stroke-linecap="butt" stroke="#262626" stroke-width="0.5"/>
   <polyline fill="none" points="294.743,22.0005 294.743,25.0506" stroke-linejoin="miter" stroke-linecap="butt" stroke="#262626" stroke-width="0.5"/>
   <polyline fill="none" points="112.003,22.0005 112.003,25.0506" stroke-linejoin="miter" stroke-linecap="butt" stroke="#262626" stroke-width="0.5"/>
   <polyline fill="none" points="112.003,252.336 112.003,249.286" stroke-linejoin="miter" stroke-linecap="butt" stroke="#262626" stroke-width="0.5"/>
   <polyline fill="none" points="51.0889,252.336 355.657,252.336" stroke-linejoin="miter" stroke-opacity="0.15" stroke-linecap="butt" stroke-dasharray="16,0" stroke="#262626" stroke-width="0.5"/>
   <polyline fill="none" points="51.0889,206.269 355.657,206.269" stroke-linejoin="miter" stroke-opacity="0.15" stroke-linecap="butt" stroke-dasharray="16,0" stroke="#262626" stroke-width="0.5"/>
   <polyline fill="none" points="51.0889,160.202 355.657,160.202" stroke-linejoin="miter" stroke-opacity="0.15" stroke-linecap="butt" stroke-dasharray="16,0" stroke="#262626" stroke-width="0.5"/>
   <polyline fill="none" points="51.0889,114.135 355.657,114.135" stroke-linejoin="miter" stroke-opacity="0.15" stroke-linecap="butt" stroke-dasharray="16,0" stroke="#262626" stroke-width="0.5"/>
   <polyline fill="none" points="51.0889,68.0677 355.657,68.0677" stroke-linejoin="miter" stroke-opacity="0.15" stroke-linecap="butt" stroke-dasharray="16,0" stroke="#262626" stroke-width="0.5"/>
   <polyline fill="none" points="51.0889,22.0005 355.657,22.0005" stroke-linejoin="miter" stroke-opacity="0.15" stroke-linecap="butt" stroke-dasharray="16,0" stroke="#262626" stroke-width="0.5"/>
   <polyline fill="none" points="51.0889,252.336 54.1302,252.336" stroke-linejoin="miter" stroke-linecap="butt" stroke="#262626" stroke-width="0.5"/>
   <polyline fill="none" points="355.657,252.336 352.616,252.336" stroke-linejoin="miter" stroke-linecap="butt" stroke="#262626" stroke-width="0.5"/>
   <polyline fill="none" points="51.0889,206.269 54.1302,206.269" stroke-linejoin="miter" stroke-linecap="butt" stroke="#262626" stroke-width="0.5"/>
   <polyline fill="none" points="355.657,206.269 352.616,206.269" stroke-linejoin="miter" stroke-linecap="butt" stroke="#262626" stroke-width="0.5"/>
   <polyline fill="none" points="51.0889,160.202 54.1302,160.202" stroke-linejoin="miter" stroke-linecap="butt" stroke="#262626" stroke-width="0.5"/>
   <polyline fill="none" points="355.657,160.202 352.616,160.202" stroke-linejoin="miter" stroke-linecap="butt" stroke="#262626" stroke-width="0.5"/>
   <polyline fill="none" points="51.0889,114.135 54.1302,114.135" stroke-linejoin="miter" stroke-linecap="butt" stroke="#262626" stroke-width="0.5"/>
   <polyline fill="none" points="355.657,114.135 352.616,114.135" stroke-linejoin="miter" stroke-linecap="butt" stroke="#262626" stroke-width="0.5"/>
   <polyline fill="none" points="51.0889,68.0677 54.1302,68.0677" stroke-linejoin="miter" stroke-linecap="butt" stroke="#262626" stroke-width="0.5"/>
   <polyline fill="none" points="355.657,68.0677 352.616,68.0677" stroke-linejoin="miter" stroke-linecap="butt" stroke="#262626" stroke-width="0.5"/>
   <polyline fill="none" points="51.0889,22.0005 54.1302,22.0005" stroke-linejoin="miter" stroke-linecap="butt" stroke="#262626" stroke-width="0.5"/>
   <polyline fill="none" points="355.657,22.0005 352.616,22.0005" stroke-linejoin="miter" stroke-linecap="butt" stroke="#262626" stroke-width="0.5"/>
   <polyline fill="none" points="51.0889,22.0005 51.0889,25.0506" stroke-linejoin="miter" stroke-linecap="butt" stroke="#262626" stroke-width="0.5"/>
   <polyline fill="none" points="51.0889,252.336 51.0889,249.286" stroke-linejoin="miter" stroke-linecap="butt" stroke="#262626" stroke-width="0.5"/>
   <polyline fill="none" points="355.657,252.336 355.657,22.0005" stroke-linejoin="miter" stroke-opacity="0.15" stroke-linecap="butt" stroke-dasharray="16,0" stroke="#262626" stroke-width="0.5"/>
   <polyline fill="none" points="294.743,252.336 294.743,22.0005" stroke-linejoin="miter" stroke-opacity="0.15" stroke-linecap="butt" stroke-dasharray="16,0" stroke="#262626" stroke-width="0.5"/>
   <polyline fill="none" points="233.83,252.336 233.83,22.0005" stroke-linejoin="miter" stroke-opacity="0.15" stroke-linecap="butt" stroke-dasharray="16,0" stroke="#262626" stroke-width="0.5"/>
   <polyline fill="none" points="172.916,252.336 172.916,22.0005" stroke-linejoin="miter" stroke-opacity="0.15" stroke-linecap="butt" stroke-dasharray="16,0" stroke="#262626" stroke-width="0.5"/>
   <polyline fill="none" points="51.0889,252.336 355.657,252.336" stroke-linejoin="miter" stroke-linecap="square" stroke-dasharray="16,0" stroke="#262626" stroke-width="0.5"/>
   <polyline fill="none" points="51.0889,22.0005 355.657,22.0005" stroke-linejoin="miter" stroke-linecap="square" stroke-dasharray="16,0" stroke="#262626" stroke-width="0.5"/>
   <polyline fill="none" points="51.0889,252.336 51.0889,22.0005" stroke-linejoin="miter" stroke-linecap="square" stroke-dasharray="16,0" stroke="#262626" stroke-width="0.5"/>
   <polyline fill="none" points="355.657,252.336 355.657,22.0005" stroke-linejoin="miter" stroke-linecap="square" stroke-dasharray="16,0" stroke="#262626" stroke-width="0.5"/>
   <polyline fill="none" points="112.003,252.336 112.003,22.0005" stroke-linejoin="miter" stroke-opacity="0.15" stroke-linecap="butt" stroke-dasharray="16,0" stroke="#262626" stroke-width="0.5"/>
   <polyline fill="none" points="51.0889,252.336 51.0889,22.0005" stroke-linejoin="miter" stroke-opacity="0.15" stroke-linecap="butt" stroke-dasharray="16,0" stroke="#262626" stroke-width="0.5"/>
   <polyline fill="none" points="116.833,136.381 51.0889,164.574" stroke-linejoin="round" stroke-linecap="butt" stroke="#0000ff" stroke-width="0.5"/>
   <polyline fill="none" points="84.5914,192.97 84.5914,22.0005" stroke-linejoin="round" stroke-linecap="butt" stroke-dasharray="9,7" stroke="#ff0000" stroke-width="0.5"/>
   <polyline fill="none" points="54.1346,246.426 57.1802,241.081" stroke-linejoin="round" stroke-linecap="butt" stroke="#000000" stroke-width="0.5"/>
   <polyline fill="none" points="51.0889,252.336 54.1346,246.426" stroke-linejoin="round" stroke-linecap="butt" stroke="#000000" stroke-width="0.5"/>
   <polyline fill="none" points="120.454,134.828 116.833,136.381" stroke-linejoin="round" stroke-linecap="butt" stroke="#0000ff" stroke-width="0.5"/>
   <polyline fill="none" points="84.5914,195.051 84.5914,192.97" stroke-linejoin="round" stroke-linecap="butt" stroke-dasharray="9,7" stroke="#ff0000" stroke-width="0.5"/>
   <polyline fill="none" points="57.1802,241.081 60.2259,235.966" stroke-linejoin="round" stroke-linecap="butt" stroke="#000000" stroke-width="0.5"/>
   <polyline fill="none" points="191.19,33.8488 191.19,22.0005" stroke-linejoin="round" stroke-linecap="butt" stroke-dasharray="9,7" stroke="#ff00ff" stroke-width="0.5"/>
   <polyline fill="none" points="127.637,131.748 120.454,134.828" stroke-linejoin="round" stroke-linecap="butt" stroke="#0000ff" stroke-width="0.5"/>
   <polyline fill="none" points="84.5914,198.058 84.5914,195.051" stroke-linejoin="round" stroke-linecap="butt" stroke-dasharray="9,7" stroke="#ff0000" stroke-width="0.5"/>
   <polyline fill="none" points="66.3173,226.208 69.363,221.516" stroke-linejoin="round" stroke-linecap="butt" stroke="#000000" stroke-width="0.5"/>
   <polyline fill="none" points="60.2259,235.966 63.2716,231.019 66.3173,226.208" stroke-linejoin="round" stroke-linecap="butt" stroke="#000000" stroke-width="0.5"/>
   <polyline fill="none" points="191.19,48.7727 191.19,33.8488" stroke-linejoin="round" stroke-linecap="butt" stroke-dasharray="9,7" stroke="#ff00ff" stroke-width="0.5"/>
   <polyline fill="none" points="134.598,128.763 127.637,131.748" stroke-linejoin="round" stroke-linecap="butt" stroke="#0000ff" stroke-width="0.5"/>
   <polyline fill="none" points="84.5914,199.444 84.5914,198.058" stroke-linejoin="round" stroke-linecap="butt" stroke-dasharray="9,7" stroke="#ff0000" stroke-width="0.5"/>
   <polyline fill="none" points="78.5,208.054 81.5457,203.749" stroke-linejoin="round" stroke-linecap="butt" stroke="#000000" stroke-width="0.5"/>
   <polyline fill="none" points="69.363,221.516 72.4086,216.932 75.4543,212.447 78.5,208.054" stroke-linejoin="round" stroke-linecap="butt" stroke="#000000" stroke-width="0.5"/>
   <polyline fill="none" points="141.628,125.749 134.598,128.763" stroke-linejoin="round" stroke-linecap="butt" stroke="#0000ff" stroke-width="0.5"/>
   <polyline fill="none" points="191.19,62.0245 191.19,48.7727" stroke-linejoin="round" stroke-linecap="butt" stroke-dasharray="9,7" stroke="#ff00ff" stroke-width="0.5"/>
   <polyline fill="none" points="93.7284,187.335 96.7741,183.419" stroke-linejoin="round" stroke-linecap="butt" stroke="#000000" stroke-width="0.5"/>
   <polyline fill="none" points="87.6371,195.387 90.6828,191.323 93.7284,187.335" stroke-linejoin="round" stroke-linecap="butt" stroke="#000000" stroke-width="0.5"/>
   <polyline fill="none" points="84.5914,199.528 84.5914,199.444" stroke-linejoin="round" stroke-linecap="butt" stroke-dasharray="9,7" stroke="#ff0000" stroke-width="0.5"/>
   <polyline fill="none" points="81.5457,203.749 84.5914,199.528 87.6371,195.387" stroke-linejoin="round" stroke-linecap="butt" stroke="#000000" stroke-width="0.5"/>
   <polyline fill="none" points="146.358,123.72 141.628,125.749" stroke-linejoin="round" stroke-linecap="butt" stroke="#0000ff" stroke-width="0.5"/>
   <polyline fill="none" points="191.19,70.1066 191.19,62.0245" stroke-linejoin="round" stroke-linecap="butt" stroke-dasharray="9,7" stroke="#ff00ff" stroke-width="0.5"/>
   <polyline fill="none" points="105.911,172.089 108.957,168.447" stroke-linejoin="round" stroke-linecap="butt" stroke="#000000" stroke-width="0.5"/>
   <polyline fill="none" points="96.7741,183.419 99.8198,179.573 102.865,175.798 105.911,172.089" stroke-linejoin="round" stroke-linecap="butt" stroke="#000000" stroke-width="0.5"/>
   <polyline fill="none" points="112.003,164.87 115.048,161.356" stroke-linejoin="round" stroke-linecap="butt" stroke="#000000" stroke-width="0.5"/>
   <polyline fill="none" points="108.957,168.447 112.003,164.87" stroke-linejoin="round" stroke-linecap="butt" stroke="#000000" stroke-width="0.5"/>
   <polyline fill="none" points="156.521,119.362 355.657,33.9681" stroke-linejoin="round" stroke-linecap="butt" stroke="#0000ff" stroke-width="0.5"/>
   <polyline fill="none" points="325.2,31.8156 328.246,30.9658 331.292,30.1122" stroke-linejoin="round" stroke-linecap="butt" stroke="#000000" stroke-width="0.5"/>
   <polyline fill="none" points="216.693,75.1876 62.3437,252.567" stroke-linejoin="round" stroke-linecap="butt" stroke="#ff0000" stroke-width="0.5"/>
   <polyline fill="none" points="331.292,30.1122 334.337,29.2501" stroke-linejoin="round" stroke-linecap="butt" stroke="#000000" stroke-width="0.5"/>
   <polyline fill="none" points="84.5914,199.528 84.5914,252.336" stroke-linejoin="round" stroke-linecap="butt" stroke-dasharray="9,7" stroke="#ff0000" stroke-width="0.5"/>
   <polyline fill="none" points="352.973,24.0304 51.0889,252.336" stroke-linejoin="round" stroke-linecap="butt" stroke-dasharray="9,7" stroke="#000000" stroke-width="0.5"/>
   <polyline fill="none" points="319.109,33.519 319.109,252.336" stroke-linejoin="round" stroke-linecap="butt" stroke-dasharray="9,7" stroke="#0000ff" stroke-width="0.5"/>
   <polyline fill="none" points="191.19,91.716 191.19,252.336" stroke-linejoin="round" stroke-linecap="butt" stroke-dasharray="9,7" stroke="#ff00ff" stroke-width="0.5"/>
   <polyline fill="none" points="319.109,49.6408 269.514,49.6408 269.514,70.9082 224.156,70.9082 224.156,90.3587 193.149,90.3587 193.149,103.655 175.266,103.655 175.266,122.795 152.717,122.795 152.717,148.709 126.506,148.709 126.506,178.831 100.425,178.831 100.425,208.803 77.9877,208.803 77.9877,234.588" stroke-linejoin="round" stroke-linecap="butt" stroke="#00ffff" stroke-width="0.5"/>
   <polyline fill="none" points="306.926,37.019 309.972,36.1265" stroke-linejoin="round" stroke-linecap="butt" stroke="#000000" stroke-width="0.5"/>
   <polyline fill="none" points="316.063,34.3786 319.109,33.519" stroke-linejoin="round" stroke-linecap="butt" stroke="#000000" stroke-width="0.5"/>
   <polyline fill="none" points="313.018,35.2471 316.063,34.3786" stroke-linejoin="round" stroke-linecap="butt" stroke="#000000" stroke-width="0.5"/>
   <polyline fill="none" points="309.972,36.1265 313.018,35.2471" stroke-linejoin="round" stroke-linecap="butt" stroke="#000000" stroke-width="0.5"/>
   <polyline fill="none" points="303.881,37.9265 306.926,37.019" stroke-linejoin="round" stroke-linecap="butt" stroke="#000000" stroke-width="0.5"/>
   <polyline fill="none" points="300.835,38.8504 303.881,37.9265" stroke-linejoin="round" stroke-linecap="butt" stroke="#000000" stroke-width="0.5"/>
   <polyline fill="none" points="322.155,32.6656 325.2,31.8156" stroke-linejoin="round" stroke-linecap="butt" stroke="#000000" stroke-width="0.5"/>
   <polyline fill="none" points="319.109,33.519 322.155,32.6656" stroke-linejoin="round" stroke-linecap="butt" stroke="#000000" stroke-width="0.5"/>
   <polyline fill="none" points="352.973,24.0304 355.657,22.0005" stroke-linejoin="round" stroke-linecap="butt" stroke-dasharray="9,7" stroke="#000000" stroke-width="0.5"/>
   <polyline fill="none" points="352.611,23.3951 355.657,22.0005" stroke-linejoin="round" stroke-linecap="butt" stroke="#000000" stroke-width="0.5"/>
   <polyline fill="none" points="340.429,27.4767 343.474,26.5486" stroke-linejoin="round" stroke-linecap="butt" stroke="#000000" stroke-width="0.5"/>
   <polyline fill="none" points="346.52,25.5763 349.566,24.5385" stroke-linejoin="round" stroke-linecap="butt" stroke="#000000" stroke-width="0.5"/>
   <polyline fill="none" points="334.337,29.2501 337.383,28.3741 340.429,27.4767" stroke-linejoin="round" stroke-linecap="butt" stroke="#000000" stroke-width="0.5"/>
   <polyline fill="none" points="349.566,24.5385 352.611,23.3951" stroke-linejoin="round" stroke-linecap="butt" stroke="#000000" stroke-width="0.5"/>
   <polyline fill="none" points="343.474,26.5486 346.52,25.5763" stroke-linejoin="round" stroke-linecap="butt" stroke="#000000" stroke-width="0.5"/>
   <polyline fill="none" points="319.109,33.519 319.109,33.1978" stroke-linejoin="round" stroke-linecap="butt" stroke-dasharray="9,7" stroke="#0000ff" stroke-width="0.5"/>
   <polyline fill="none" points="297.789,39.7925 300.835,38.8504" stroke-linejoin="round" stroke-linecap="butt" stroke="#000000" stroke-width="0.5"/>
   <polyline fill="none" points="319.109,33.1978 319.109,33.0612" stroke-linejoin="round" stroke-linecap="butt" stroke-dasharray="9,7" stroke="#0000ff" stroke-width="0.5"/>
   <polyline fill="none" points="294.743,40.7541 297.789,39.7925" stroke-linejoin="round" stroke-linecap="butt" stroke="#000000" stroke-width="0.5"/>
   <polyline fill="none" points="319.109,33.0612 319.109,32.8943" stroke-linejoin="round" stroke-linecap="butt" stroke-dasharray="9,7" stroke="#0000ff" stroke-width="0.5"/>
   <polyline fill="none" points="279.515,45.8988 282.561,44.8212" stroke-linejoin="round" stroke-linecap="butt" stroke="#000000" stroke-width="0.5"/>
   <polyline fill="none" points="288.652,42.7411 291.698,41.7366" stroke-linejoin="round" stroke-linecap="butt" stroke="#000000" stroke-width="0.5"/>
   <polyline fill="none" points="285.606,43.769 288.652,42.7411" stroke-linejoin="round" stroke-linecap="butt" stroke="#000000" stroke-width="0.5"/>
   <polyline fill="none" points="282.561,44.8212 285.606,43.769" stroke-linejoin="round" stroke-linecap="butt" stroke="#000000" stroke-width="0.5"/>
   <polyline fill="none" points="291.698,41.7366 294.743,40.7541" stroke-linejoin="round" stroke-linecap="butt" stroke="#000000" stroke-width="0.5"/>
   <polyline fill="none" points="319.109,32.8943 319.109,31.5462" stroke-linejoin="round" stroke-linecap="butt" stroke-dasharray="9,7" stroke="#0000ff" stroke-width="0.5"/>
   <polyline fill="none" points="264.287,51.7013 267.332,50.4826" stroke-linejoin="round" stroke-linecap="butt" stroke="#000000" stroke-width="0.5"/>
   <polyline fill="none" points="273.424,48.1342 276.469,47.0029" stroke-linejoin="round" stroke-linecap="butt" stroke="#000000" stroke-width="0.5"/>
   <polyline fill="none" points="270.378,49.2939 273.424,48.1342" stroke-linejoin="round" stroke-linecap="butt" stroke="#000000" stroke-width="0.5"/>
   <polyline fill="none" points="267.332,50.4826 270.378,49.2939" stroke-linejoin="round" stroke-linecap="butt" stroke="#000000" stroke-width="0.5"/>
   <polyline fill="none" points="276.469,47.0029 279.515,45.8988" stroke-linejoin="round" stroke-linecap="butt" stroke="#000000" stroke-width="0.5"/>
   <polyline fill="none" points="319.109,31.5462 319.109,29.2115" stroke-linejoin="round" stroke-linecap="butt" stroke-dasharray="9,7" stroke="#0000ff" stroke-width="0.5"/>
   <polyline fill="none" points="249.058,58.2709 252.104,56.8911" stroke-linejoin="round" stroke-linecap="butt" stroke="#000000" stroke-width="0.5"/>
   <polyline fill="none" points="258.195,54.2317 261.241,52.9508" stroke-linejoin="round" stroke-linecap="butt" stroke="#000000" stroke-width="0.5"/>
   <polyline fill="none" points="255.15,55.5449 258.195,54.2317" stroke-linejoin="round" stroke-linecap="butt" stroke="#000000" stroke-width="0.5"/>
   <polyline fill="none" points="252.104,56.8911 255.15,55.5449" stroke-linejoin="round" stroke-linecap="butt" stroke="#000000" stroke-width="0.5"/>
   <polyline fill="none" points="261.241,52.9508 264.287,51.7013" stroke-linejoin="round" stroke-linecap="butt" stroke="#000000" stroke-width="0.5"/>
   <polyline fill="none" points="319.109,29.2115 319.109,25.7435" stroke-linejoin="round" stroke-linecap="butt" stroke-dasharray="9,7" stroke="#0000ff" stroke-width="0.5"/>
   <polyline fill="none" points="233.83,65.6987 236.876,64.1405" stroke-linejoin="round" stroke-linecap="butt" stroke="#000000" stroke-width="0.5"/>
   <polyline fill="none" points="242.967,61.1344 246.013,59.6852" stroke-linejoin="round" stroke-linecap="butt" stroke="#000000" stroke-width="0.5"/>
   <polyline fill="none" points="239.921,62.6193 242.967,61.1344" stroke-linejoin="round" stroke-linecap="butt" stroke="#000000" stroke-width="0.5"/>
   <polyline fill="none" points="236.876,64.1405 239.921,62.6193" stroke-linejoin="round" stroke-linecap="butt" stroke="#000000" stroke-width="0.5"/>
   <polyline fill="none" points="246.013,59.6852 249.058,58.2709" stroke-linejoin="round" stroke-linecap="butt" stroke="#000000" stroke-width="0.5"/>
   <polyline fill="none" points="319.109,25.7435 319.109,22.0005" stroke-linejoin="round" stroke-linecap="butt" stroke-dasharray="9,7" stroke="#0000ff" stroke-width="0.5"/>
   <polyline fill="none" points="218.601,74.0643 221.647,72.3126" stroke-linejoin="round" stroke-linecap="butt" stroke="#000000" stroke-width="0.5"/>
   <polyline fill="none" points="212.51,77.6896 215.556,75.8565" stroke-linejoin="round" stroke-linecap="butt" stroke="#000000" stroke-width="0.5"/>
   <polyline fill="none" points="209.464,79.5644 212.51,77.6896" stroke-linejoin="round" stroke-linecap="butt" stroke="#000000" stroke-width="0.5"/>
   <polyline fill="none" points="221.647,72.3126 224.693,70.6007" stroke-linejoin="round" stroke-linecap="butt" stroke="#000000" stroke-width="0.5"/>
   <polyline fill="none" points="215.556,75.8565 218.601,74.0643" stroke-linejoin="round" stroke-linecap="butt" stroke="#000000" stroke-width="0.5"/>
   <polyline fill="none" points="216.693,75.1876 217.024,74.8069" stroke-linejoin="round" stroke-linecap="butt" stroke="#ff0000" stroke-width="0.5"/>
   <polyline fill="none" points="227.738,68.9282 230.784,67.2944" stroke-linejoin="round" stroke-linecap="butt" stroke="#000000" stroke-width="0.5"/>
   <polyline fill="none" points="224.693,70.6007 227.738,68.9282" stroke-linejoin="round" stroke-linecap="butt" stroke="#000000" stroke-width="0.5"/>
   <polyline fill="none" points="206.419,81.4812 209.464,79.5644" stroke-linejoin="round" stroke-linecap="butt" stroke="#000000" stroke-width="0.5"/>
   <polyline fill="none" points="217.024,74.8069 217.318,74.4691" stroke-linejoin="round" stroke-linecap="butt" stroke="#ff0000" stroke-width="0.5"/>
   <polyline fill="none" points="230.784,67.2944 233.83,65.6987" stroke-linejoin="round" stroke-linecap="butt" stroke="#000000" stroke-width="0.5"/>
   <polyline fill="none" points="188.145,93.8969 191.19,91.716" stroke-linejoin="round" stroke-linecap="butt" stroke="#000000" stroke-width="0.5"/>
   <polyline fill="none" points="185.099,96.1237 188.145,93.8969" stroke-linejoin="round" stroke-linecap="butt" stroke="#000000" stroke-width="0.5"/>
   <polyline fill="none" points="194.236,89.5805 197.282,87.4898" stroke-linejoin="round" stroke-linecap="butt" stroke="#000000" stroke-width="0.5"/>
   <polyline fill="none" points="191.19,91.716 194.236,89.5805" stroke-linejoin="round" stroke-linecap="butt" stroke="#000000" stroke-width="0.5"/>
   <polyline fill="none" points="191.19,91.716 191.19,91.5772" stroke-linejoin="round" stroke-linecap="butt" stroke-dasharray="9,7" stroke="#ff00ff" stroke-width="0.5"/>
   <polyline fill="none" points="197.282,87.4898 200.327,85.4434 203.373,83.4407" stroke-linejoin="round" stroke-linecap="butt" stroke="#000000" stroke-width="0.5"/>
   <polyline fill="none" points="182.053,98.3969 185.099,96.1237" stroke-linejoin="round" stroke-linecap="butt" stroke="#000000" stroke-width="0.5"/>
   <polyline fill="none" points="191.19,91.5772 191.19,91.4362" stroke-linejoin="round" stroke-linecap="butt" stroke-dasharray="9,7" stroke="#ff00ff" stroke-width="0.5"/>
   <polyline fill="none" points="203.373,83.4407 206.419,81.4812" stroke-linejoin="round" stroke-linecap="butt" stroke="#000000" stroke-width="0.5"/>
   <polyline fill="none" points="217.318,74.4691 224.899,65.7571" stroke-linejoin="round" stroke-linecap="butt" stroke="#ff0000" stroke-width="0.5"/>
   <polyline fill="none" points="166.825,110.479 169.87,107.965" stroke-linejoin="round" stroke-linecap="butt" stroke="#000000" stroke-width="0.5"/>
   <polyline fill="none" points="175.962,103.085 179.008,100.717" stroke-linejoin="round" stroke-linecap="butt" stroke="#000000" stroke-width="0.5"/>
   <polyline fill="none" points="172.916,105.501 175.962,103.085" stroke-linejoin="round" stroke-linecap="butt" stroke="#000000" stroke-width="0.5"/>
   <polyline fill="none" points="169.87,107.965 172.916,105.501" stroke-linejoin="round" stroke-linecap="butt" stroke="#000000" stroke-width="0.5"/>
   <polyline fill="none" points="179.008,100.717 182.053,98.3969" stroke-linejoin="round" stroke-linecap="butt" stroke="#000000" stroke-width="0.5"/>
   <polyline fill="none" points="224.899,65.7571 238.423,50.2142" stroke-linejoin="round" stroke-linecap="butt" stroke="#ff0000" stroke-width="0.5"/>
   <polyline fill="none" points="191.19,91.4362 191.19,89.9705" stroke-linejoin="round" stroke-linecap="butt" stroke-dasharray="9,7" stroke="#ff00ff" stroke-width="0.5"/>
   <polyline fill="none" points="151.596,123.807 154.642,121.038" stroke-linejoin="round" stroke-linecap="butt" stroke="#000000" stroke-width="0.5"/>
   <polyline fill="none" points="160.733,115.657 163.779,113.043" stroke-linejoin="round" stroke-linecap="butt" stroke="#000000" stroke-width="0.5"/>
   <polyline fill="none" points="157.688,118.322 160.733,115.657" stroke-linejoin="round" stroke-linecap="butt" stroke="#000000" stroke-width="0.5"/>
   <polyline fill="none" points="154.642,121.038 157.688,118.322" stroke-linejoin="round" stroke-linecap="butt" stroke="#000000" stroke-width="0.5"/>
   <polyline fill="none" points="156.521,119.362 156.285,119.463" stroke-linejoin="round" stroke-linecap="butt" stroke="#0000ff" stroke-width="0.5"/>
   <polyline fill="none" points="163.779,113.043 166.825,110.479" stroke-linejoin="round" stroke-linecap="butt" stroke="#000000" stroke-width="0.5"/>
   <polyline fill="none" points="238.423,50.2142 263.174,21.7701" stroke-linejoin="round" stroke-linecap="butt" stroke="#ff0000" stroke-width="0.5"/>
   <polyline fill="none" points="191.19,89.9705 191.19,87.1267" stroke-linejoin="round" stroke-linecap="butt" stroke-dasharray="9,7" stroke="#ff00ff" stroke-width="0.5"/>
   <polyline fill="none" points="148.551,126.628 151.596,123.807" stroke-linejoin="round" stroke-linecap="butt" stroke="#000000" stroke-width="0.5"/>
   <polyline fill="none" points="156.285,119.463 156.021,119.576" stroke-linejoin="round" stroke-linecap="butt" stroke="#0000ff" stroke-width="0.5"/>
   <polyline fill="none" points="191.19,87.1267 191.19,86.3773" stroke-linejoin="round" stroke-linecap="butt" stroke-dasharray="9,7" stroke="#ff00ff" stroke-width="0.5"/>
   <polyline fill="none" points="145.505,129.503 148.551,126.628" stroke-linejoin="round" stroke-linecap="butt" stroke="#000000" stroke-width="0.5"/>
   <polyline fill="none" points="156.021,119.576 155.67,119.727" stroke-linejoin="round" stroke-linecap="butt" stroke="#0000ff" stroke-width="0.5"/>
   <polyline fill="none" points="191.19,86.3773 191.19,85.5648" stroke-linejoin="round" stroke-linecap="butt" stroke-dasharray="9,7" stroke="#ff00ff" stroke-width="0.5"/>
   <polyline fill="none" points="142.459,132.433 145.505,129.503" stroke-linejoin="round" stroke-linecap="butt" stroke="#000000" stroke-width="0.5"/>
   <polyline fill="none" points="155.67,119.727 155.238,119.912" stroke-linejoin="round" stroke-linecap="butt" stroke="#0000ff" stroke-width="0.5"/>
   <polyline fill="none" points="191.19,85.5648 191.19,84.6874" stroke-linejoin="round" stroke-linecap="butt" stroke-dasharray="9,7" stroke="#ff00ff" stroke-width="0.5"/>
   <polyline fill="none" points="139.414,135.417 142.459,132.433" stroke-linejoin="round" stroke-linecap="butt" stroke="#000000" stroke-width="0.5"/>
   <polyline fill="none" points="155.238,119.912 154.731,120.13" stroke-linejoin="round" stroke-linecap="butt" stroke="#0000ff" stroke-width="0.5"/>
   <polyline fill="none" points="191.19,84.6874 191.19,83.7432" stroke-linejoin="round" stroke-linecap="butt" stroke-dasharray="9,7" stroke="#ff00ff" stroke-width="0.5"/>
   <polyline fill="none" points="124.185,151.186 127.231,147.916" stroke-linejoin="round" stroke-linecap="butt" stroke="#000000" stroke-width="0.5"/>
   <polyline fill="none" points="133.322,141.552 136.368,138.456" stroke-linejoin="round" stroke-linecap="butt" stroke="#000000" stroke-width="0.5"/>
   <polyline fill="none" points="130.277,144.705 133.322,141.552" stroke-linejoin="round" stroke-linecap="butt" stroke="#000000" stroke-width="0.5"/>
   <polyline fill="none" points="127.231,147.916 130.277,144.705" stroke-linejoin="round" stroke-linecap="butt" stroke="#000000" stroke-width="0.5"/>
   <polyline fill="none" points="136.368,138.456 139.414,135.417" stroke-linejoin="round" stroke-linecap="butt" stroke="#000000" stroke-width="0.5"/>
   <polyline fill="none" points="154.731,120.13 151.219,121.636" stroke-linejoin="round" stroke-linecap="butt" stroke="#0000ff" stroke-width="0.5"/>
   <polyline fill="none" points="191.19,83.7432 191.19,77.9441" stroke-linejoin="round" stroke-linecap="butt" stroke-dasharray="9,7" stroke="#ff00ff" stroke-width="0.5"/>
   <polyline fill="none" points="118.094,157.905 121.14,154.515" stroke-linejoin="round" stroke-linecap="butt" stroke="#000000" stroke-width="0.5"/>
   <polyline fill="none" points="115.048,161.356 118.094,157.905" stroke-linejoin="round" stroke-linecap="butt" stroke="#000000" stroke-width="0.5"/>
   <polyline fill="none" points="121.14,154.515 124.185,151.186" stroke-linejoin="round" stroke-linecap="butt" stroke="#000000" stroke-width="0.5"/>
   <polyline fill="none" points="151.219,121.636 146.358,123.72" stroke-linejoin="round" stroke-linecap="butt" stroke="#0000ff" stroke-width="0.5"/>
   <polyline fill="none" points="191.19,77.9441 191.19,70.1066" stroke-linejoin="round" stroke-linecap="butt" stroke-dasharray="9,7" stroke="#ff00ff" stroke-width="0.5"/>
  </g>
 </g>
</svg>
